<svg width="136" height="105" viewBox="0 0 136 105" fill="none" xmlns="http://www.w3.org/2000/svg">
<rect x="0.5" y="0.5" width="135" height="104" rx="2.5" stroke="#E0E1DD"/>
<path d="M27.966 75H29.926V70.87H33.048V69.316H29.926V66.81H34V65.228H27.966V75ZM34.8858 71.094C34.8858 73.516 36.4538 75.126 38.4138 75.126C39.6458 75.126 40.5278 74.538 40.9898 73.866V75H42.9638V67.244H40.9898V68.35C40.5278 67.706 39.6738 67.118 38.4278 67.118C36.4538 67.118 34.8858 68.672 34.8858 71.094ZM40.9898 71.122C40.9898 72.592 40.0098 73.404 38.9318 73.404C37.8818 73.404 36.8878 72.564 36.8878 71.094C36.8878 69.624 37.8818 68.84 38.9318 68.84C40.0098 68.84 40.9898 69.652 40.9898 71.122ZM44.3741 71.122C44.3741 73.558 45.9701 75.126 48.2101 75.126C50.1421 75.126 51.4441 74.034 51.8641 72.382H49.7501C49.5121 73.082 49.0081 73.446 48.1961 73.446C47.1041 73.446 46.3761 72.634 46.3761 71.122C46.3761 69.61 47.1041 68.784 48.1961 68.784C49.0081 68.784 49.5261 69.204 49.7501 69.862H51.8641C51.4441 68.126 50.1421 67.118 48.2101 67.118C45.9701 67.118 44.3741 68.686 44.3741 71.122ZM56.632 68.728C57.64 68.728 58.452 69.372 58.48 70.394H54.798C54.952 69.33 55.694 68.728 56.632 68.728ZM60.314 72.564H58.2C57.948 73.082 57.486 73.502 56.646 73.502C55.666 73.502 54.882 72.858 54.784 71.71H60.454C60.496 71.458 60.51 71.206 60.51 70.954C60.51 68.644 58.928 67.118 56.688 67.118C54.392 67.118 52.796 68.672 52.796 71.122C52.796 73.558 54.434 75.126 56.688 75.126C58.606 75.126 59.894 73.992 60.314 72.564ZM64.7725 71.094C64.7725 73.516 66.3405 75.126 68.3005 75.126C69.5325 75.126 70.4145 74.538 70.8765 73.866V75H72.8505V67.244H70.8765V68.35C70.4145 67.706 69.5605 67.118 68.3145 67.118C66.3405 67.118 64.7725 68.672 64.7725 71.094ZM70.8765 71.122C70.8765 72.592 69.8965 73.404 68.8185 73.404C67.7685 73.404 66.7745 72.564 66.7745 71.094C66.7745 69.624 67.7685 68.84 68.8185 68.84C69.8965 68.84 70.8765 69.652 70.8765 71.122ZM67.3905 65.228L70.6105 66.698V65.298L67.3905 63.632V65.228ZM78.3108 75H80.2988V68.854H81.6568V67.244H80.2988V66.922C80.2988 66.054 80.6208 65.746 81.5728 65.774V64.122C79.3888 64.066 78.3108 64.948 78.3108 66.852V67.244H77.4288V68.854H78.3108V75ZM82.4229 71.094C82.4229 73.516 83.9909 75.126 85.9509 75.126C87.1829 75.126 88.0649 74.538 88.5269 73.866V75H90.5009V67.244H88.5269V68.35C88.0649 67.706 87.2109 67.118 85.9649 67.118C83.9909 67.118 82.4229 68.672 82.4229 71.094ZM88.5269 71.122C88.5269 72.592 87.5469 73.404 86.4689 73.404C85.4189 73.404 84.4249 72.564 84.4249 71.094C84.4249 69.624 85.4189 68.84 86.4689 68.84C87.5469 68.84 88.5269 69.652 88.5269 71.122ZM91.9112 71.122C91.9112 73.558 93.5072 75.126 95.7472 75.126C97.6792 75.126 98.9812 74.034 99.4012 72.382H97.2872C97.0492 73.082 96.5452 73.446 95.7332 73.446C94.6412 73.446 93.9132 72.634 93.9132 71.122C93.9132 69.61 94.6412 68.784 95.7332 68.784C96.5452 68.784 97.0632 69.204 97.2872 69.862H99.4012C98.9812 68.126 97.6792 67.118 95.7472 67.118C93.5072 67.118 91.9112 68.686 91.9112 71.122ZM104.169 68.728C105.177 68.728 105.989 69.372 106.017 70.394H102.335C102.489 69.33 103.231 68.728 104.169 68.728ZM107.851 72.564H105.737C105.485 73.082 105.023 73.502 104.183 73.502C103.203 73.502 102.419 72.858 102.321 71.71H107.991C108.033 71.458 108.047 71.206 108.047 70.954C108.047 68.644 106.465 67.118 104.225 67.118C101.929 67.118 100.333 68.672 100.333 71.122C100.333 73.558 101.971 75.126 104.225 75.126C106.143 75.126 107.431 73.992 107.851 72.564Z" fill="black"/>
<path d="M53.3333 45.6667H55.556C56.121 45.654 56.6647 45.4489 57.0972 45.0852C57.5297 44.7215 57.8252 44.2211 57.9347 43.6667C57.9782 43.4724 58.0001 43.2738 58 43.0747V42.6667C58 42.5783 58.0351 42.4935 58.0976 42.431C58.1601 42.3685 58.2449 42.3334 58.3333 42.3334H60C60.0939 42.3333 60.1867 42.3532 60.2725 42.3916C60.3582 42.4299 60.4348 42.486 60.4973 42.556L65.284 47.92C65.4374 48.1021 65.6431 48.2326 65.8732 48.2938C66.1032 48.3551 66.3465 48.3442 66.5702 48.2625C66.7938 48.1809 66.987 48.0325 67.1235 47.8374C67.26 47.6424 67.3332 47.4101 67.3333 47.172V46.748C67.3335 46.7042 67.325 46.6608 67.3083 46.6203C67.2916 46.5798 67.267 46.543 67.236 46.512L66.1947 45.472C66.0695 45.3468 65.9992 45.1771 65.9992 45C65.9992 44.823 66.0695 44.6532 66.1947 44.528C66.3198 44.4028 66.4896 44.3325 66.6667 44.3325C66.8437 44.3325 67.0135 44.4028 67.1387 44.528L68.3747 45.7654L68.4853 45.8094C68.6902 45.8914 68.9099 45.9299 69.1305 45.9224C69.3511 45.9149 69.5677 45.8615 69.7665 45.7657C69.9653 45.6699 70.1419 45.5337 70.2852 45.3658C70.4285 45.1979 70.5353 45.0021 70.5987 44.7907C70.6163 44.7331 70.618 44.6717 70.6034 44.6132C70.5888 44.5547 70.5586 44.5013 70.516 44.4587L68.8613 42.8C68.7362 42.6748 68.6658 42.5051 68.6658 42.328C68.6658 42.151 68.7362 41.9812 68.8613 41.856C68.9865 41.7308 69.1563 41.6605 69.3333 41.6605C69.5104 41.6605 69.6802 41.7308 69.8053 41.856L71.512 43.564C71.543 43.595 71.5798 43.6196 71.6203 43.6363C71.6608 43.653 71.7042 43.6615 71.748 43.6614H72C72.3536 43.6614 72.6928 43.5209 72.9428 43.2708C73.1929 43.0208 73.3333 42.6816 73.3333 42.328C73.3323 42.0397 73.2388 41.7593 73.0667 41.528L69.2347 36.624C69.1921 36.57 69.134 36.5304 69.0681 36.5106C69.0023 36.4908 68.9319 36.4918 68.8667 36.5134L66.7867 37.2C66.3181 37.3562 65.8111 37.3537 65.3441 37.193C64.877 37.0322 64.4759 36.7221 64.2028 36.3105C63.9297 35.899 63.7997 35.4089 63.8329 34.9161C63.8661 34.4233 64.0607 33.9552 64.3867 33.584C64.4261 33.5386 64.4525 33.4834 64.4632 33.4242C64.474 33.365 64.4685 33.3041 64.4475 33.2477C64.4265 33.1914 64.3907 33.1417 64.3438 33.104C64.297 33.0663 64.2409 33.0419 64.1813 33.0334C63.8036 32.9813 63.4189 33.0272 63.064 33.1667L58.4573 35.0027C58.4067 35.0225 58.352 35.0298 58.2979 35.024C58.2439 35.0182 58.192 34.9994 58.1467 34.9694C58.1015 34.9388 58.0645 34.8977 58.039 34.8496C58.0134 34.8015 58 34.7478 58 34.6934V34.2587C57.9999 34.0936 57.9847 33.929 57.9547 33.7667C57.8637 33.1911 57.5737 32.6657 57.1351 32.2819C56.6965 31.8982 56.1372 31.6805 55.5547 31.6667H53.3333C52.9797 31.6667 52.6406 31.8072 52.3905 32.0572C52.1405 32.3073 52 32.6464 52 33V44.3334C52 44.687 52.1405 45.0261 52.3905 45.2762C52.6406 45.5262 52.9797 45.6667 53.3333 45.6667Z" fill="#F8B816"/>
<path d="M71.5413 35.6347L70.8879 35.8494C70.836 35.8651 70.7888 35.8932 70.7502 35.9313C70.7116 35.9694 70.6829 36.0163 70.6666 36.068C70.6511 36.1191 70.6482 36.1733 70.6582 36.2257C70.6682 36.2782 70.6908 36.3275 70.7239 36.3694L74.1333 40.724C74.4791 41.1894 74.666 41.7536 74.6666 42.3334C74.6667 42.4758 74.6551 42.6181 74.6319 42.7587C74.6237 42.8118 74.6283 42.8661 74.6452 42.9171C74.6621 42.9681 74.6909 43.0144 74.7293 43.052C74.7677 43.0893 74.8146 43.1167 74.8659 43.132C74.9171 43.1473 74.9714 43.1501 75.0239 43.14L77.6039 42.6494C77.6521 42.6407 77.7016 42.6425 77.749 42.6547C77.7964 42.6669 77.8406 42.6892 77.8786 42.72C77.9166 42.7512 77.9473 42.7905 77.9682 42.835C77.9892 42.8795 78 42.9282 77.9999 42.9774V43.0747C78.001 43.3577 78.0459 43.6388 78.1333 43.908C78.2827 44.4085 78.5873 44.8486 79.0031 45.1647C79.4189 45.4808 79.9244 45.6566 80.4466 45.6667H82.6666C83.0202 45.6667 83.3594 45.5262 83.6094 45.2762C83.8595 45.0261 83.9999 44.687 83.9999 44.3334V33C83.9999 32.6464 83.8595 32.3073 83.6094 32.0572C83.3594 31.8072 83.0202 31.6667 82.6666 31.6667H80.4439C80.0677 31.6698 79.6975 31.7616 79.3635 31.9347C79.0294 32.1077 78.7408 32.3572 78.5213 32.6627C78.3258 32.9264 78.1815 33.2244 78.0959 33.5414C78.0836 33.5858 78.0622 33.6271 78.0332 33.6629C78.0042 33.6988 77.9681 33.7282 77.9272 33.7495C77.8863 33.7707 77.8415 33.7833 77.7955 33.7865C77.7495 33.7897 77.7034 33.7834 77.6599 33.768L72.3066 31.8214C71.9787 31.7042 71.6305 31.654 71.2828 31.674C70.9351 31.6939 70.595 31.7835 70.2826 31.9374L65.6759 34.2414C65.4707 34.3454 65.3122 34.5229 65.2321 34.7386C65.152 34.9542 65.156 35.1922 65.2435 35.405C65.331 35.6177 65.4954 35.7898 65.7041 35.8867C65.9127 35.9836 66.1502 35.9984 66.3693 35.928L71.1253 34.3667C71.2934 34.3115 71.4766 34.3254 71.6345 34.4053C71.7924 34.4852 71.9121 34.6245 71.9673 34.7927C72.0224 34.9608 72.0085 35.144 71.9287 35.3019C71.8488 35.4598 71.7094 35.5795 71.5413 35.6347Z" fill="#F8B816"/>

<defs>
<clipPath id="clip0">
<rect width="32" height="32" fill="white" transform="translate(52 24)"/>
</clipPath>
</defs>
</svg>
