<svg width="14" height="14" viewBox="0 0 14 14" fill="none" xmlns="http://www.w3.org/2000/svg">
<g clip-path="url(#clip0)">
<path d="M7.00004 0C5.76279 0.00138956 4.57661 0.493501 3.70174 1.36837C2.82687 2.24324 2.33476 3.42942 2.33337 4.66667C2.33337 6.71417 5.25004 11.6812 6.50304 13.7223C6.55526 13.8072 6.62836 13.8773 6.71537 13.9259C6.80237 13.9745 6.90038 14 7.00004 14C7.09986 14.0005 7.19809 13.9751 7.28519 13.9263C7.37228 13.8776 7.44527 13.8071 7.49704 13.7218C8.75004 11.6818 11.6667 6.7165 11.6667 4.66667C11.6653 3.42942 11.1732 2.24324 10.2983 1.36837C9.42347 0.493501 8.23729 0.00138956 7.00004 0V0ZM7.00004 6.70833C6.59624 6.70833 6.2015 6.58859 5.86575 6.36425C5.53 6.13991 5.26832 5.82104 5.11379 5.44798C4.95926 5.07491 4.91883 4.6644 4.9976 4.26836C5.07638 3.87231 5.27083 3.50852 5.55636 3.22299C5.8419 2.93746 6.20569 2.74301 6.60173 2.66423C6.99778 2.58545 7.40829 2.62588 7.78135 2.78041C8.15442 2.93494 8.47328 3.19663 8.69762 3.53238C8.92197 3.86813 9.04171 4.26286 9.04171 4.66667C9.04171 5.20815 8.8266 5.72746 8.44372 6.11034C8.06083 6.49323 7.54152 6.70833 7.00004 6.70833Z" fill="#616365"/>
</g>
<defs>
<clipPath id="clip0">
<rect width="14" height="14" fill="white"/>
</clipPath>
</defs>
</svg>
