<svg width="136" height="105" viewBox="0 0 136 105" fill="none" xmlns="http://www.w3.org/2000/svg">
<rect x="0.5" y="0.5" width="135" height="104" rx="2.5" stroke="#E0E1DD"/>
<path d="M46.57 70.016L49.622 66.88H47.158L44.106 70.016L47.158 73.152H49.622L46.57 70.016ZM55.1417 74.86H62.0577V73.236H57.9277C59.5517 71.864 61.8337 70.016 61.8337 67.65C61.8337 65.872 60.7277 64.57 58.5297 64.57C56.6957 64.57 55.1977 65.648 55.1277 67.986H57.0317C57.0457 66.908 57.5637 66.236 58.5017 66.236C59.4677 66.236 59.8737 66.852 59.8737 67.762C59.8737 69.638 57.4517 71.444 55.1417 73.404V74.86ZM66.3487 71.094C66.3487 73.516 67.9167 75.126 69.8767 75.126C71.1087 75.126 71.9907 74.538 72.4527 73.866V75H74.4267V67.244H72.4527V68.35C71.9907 67.706 71.1367 67.118 69.8907 67.118C67.9167 67.118 66.3487 68.672 66.3487 71.094ZM72.4527 71.122C72.4527 72.592 71.4727 73.404 70.3947 73.404C69.3447 73.404 68.3507 72.564 68.3507 71.094C68.3507 69.624 69.3447 68.84 70.3947 68.84C71.4727 68.84 72.4527 69.652 72.4527 71.122ZM81.773 75H83.733V70.45C83.733 68.308 82.445 67.132 80.639 67.132C79.645 67.132 78.805 67.552 78.301 68.21V67.244H76.341V75H78.301V70.716C78.301 69.47 78.987 68.798 80.051 68.798C81.087 68.798 81.773 69.47 81.773 70.716V75ZM91.6169 72.788C91.5609 69.946 87.2629 70.828 87.2629 69.414C87.2629 68.966 87.6409 68.672 88.3689 68.672C89.1389 68.672 89.6149 69.078 89.6709 69.68H91.5469C91.4349 68.14 90.3009 67.118 88.4249 67.118C86.5069 67.118 85.3589 68.154 85.3589 69.442C85.3589 72.284 89.7409 71.402 89.7409 72.788C89.7409 73.236 89.3209 73.586 88.5509 73.586C87.7669 73.586 87.2209 73.138 87.1509 72.55H85.1769C85.2609 73.992 86.6189 75.126 88.5649 75.126C90.4549 75.126 91.6169 74.118 91.6169 72.788Z" fill="black"/>
<path d="M61.96 45.4667C59.1749 45.9477 56.5359 47.0561 54.2426 48.708C53.8465 49.011 53.5262 49.4019 53.3071 49.8499C53.088 50.2978 52.976 50.7906 52.98 51.2893V55.3467C52.9798 55.4324 52.9965 55.5173 53.0292 55.5966C53.0619 55.6758 53.1099 55.7479 53.1705 55.8086C53.231 55.8692 53.303 55.9174 53.3821 55.9502C53.4613 55.9831 53.5462 56 53.632 56H82.368C82.4537 56 82.5386 55.9831 82.6178 55.9502C82.697 55.9174 82.7689 55.8692 82.8295 55.8086C82.89 55.7479 82.938 55.6758 82.9707 55.5966C83.0034 55.5173 83.0201 55.4324 83.02 55.3467V51.2893C83.024 50.7906 82.912 50.2978 82.6928 49.8499C82.4737 49.4019 82.1534 49.011 81.7573 48.708C79.464 47.0561 76.825 45.9477 74.04 45.4667C73.9248 45.4441 73.8058 45.4534 73.6956 45.4936C73.5854 45.5338 73.4882 45.6033 73.4146 45.6947C73.264 45.8747 71.8253 49.4667 68 49.4667C64.2906 49.4667 62.7 45.8293 62.5866 45.6933C62.5119 45.6031 62.4143 45.5345 62.3041 45.4947C62.194 45.4548 62.0751 45.4452 61.96 45.4667Z" fill="#F8B816"/>
<path d="M71.3733 44.2453C73.0736 43.569 74.5321 42.3985 75.5605 40.885C76.5889 39.3715 77.14 37.5845 77.1426 35.7547V33.1427C77.1426 30.7179 76.1794 28.3924 74.4648 26.6778C72.7502 24.9632 70.4248 24 68 24C65.5752 24 63.2497 24.9632 61.5351 26.6778C59.8206 28.3924 58.8573 30.7179 58.8573 33.1427V35.7547C58.8549 37.2474 59.2186 38.718 59.9166 40.0375C60.6146 41.357 61.6256 42.4852 62.8609 43.3232C64.0962 44.1613 65.5182 44.6835 67.0023 44.8443C68.4863 45.0051 69.9872 44.7994 71.3733 44.2453ZM61.4666 35.7547V33.4667C61.4666 33.4238 61.4751 33.3813 61.4915 33.3417C61.5079 33.302 61.532 33.266 61.5623 33.2357C61.5927 33.2053 61.6287 33.1813 61.6683 33.1649C61.7079 33.1484 61.7504 33.14 61.7933 33.14H62.7733C64.452 33.14 67.852 33.5533 70.3733 30.804C70.4037 30.7705 70.4407 30.7436 70.482 30.7253C70.5234 30.7069 70.5681 30.6974 70.6133 30.6973C70.6587 30.6976 70.7036 30.7072 70.7451 30.7256C70.7866 30.7439 70.8239 30.7706 70.8546 30.804C71.7797 31.8197 72.9867 32.5365 74.3213 32.8627C74.3822 32.8782 74.4362 32.9135 74.4751 32.9629C74.5139 33.0123 74.5353 33.0732 74.536 33.136V35.7547C74.536 37.4874 73.8476 39.1492 72.6224 40.3744C71.3972 41.5997 69.7354 42.288 68.0026 42.288C66.2699 42.288 64.6081 41.5997 63.3829 40.3744C62.1576 39.1492 61.4693 37.4874 61.4693 35.7547H61.4666Z" fill="#F8B816"/>
<path d="M70.612 37.388C71.3336 37.388 71.9186 36.803 71.9186 36.0813C71.9186 35.3597 71.3336 34.7747 70.612 34.7747C69.8903 34.7747 69.3053 35.3597 69.3053 36.0813C69.3053 36.803 69.8903 37.388 70.612 37.388Z" fill="#F8B816"/>
<path d="M65.388 37.388C66.1096 37.388 66.6946 36.803 66.6946 36.0813C66.6946 35.3597 66.1096 34.7747 65.388 34.7747C64.6663 34.7747 64.0813 35.3597 64.0813 36.0813C64.0813 36.803 64.6663 37.388 65.388 37.388Z" fill="#F8B816"/>
<path d="M68.1067 40.8093C68.4887 40.81 68.8687 40.7548 69.2347 40.6453C69.4319 40.586 69.6227 40.507 69.804 40.4093C69.9679 40.321 70.0975 40.1804 70.1723 40.0099C70.247 39.8395 70.2627 39.6489 70.2167 39.4685C70.1707 39.2881 70.0658 39.1283 69.9185 39.0144C69.7713 38.9005 69.5902 38.8391 69.404 38.84H66.8C66.6134 38.8386 66.4317 38.8997 66.284 39.0137C66.1362 39.1276 66.0309 39.2878 65.9848 39.4686C65.9387 39.6495 65.9546 39.8405 66.0299 40.0113C66.1052 40.182 66.2355 40.3227 66.4 40.4107C66.5811 40.5076 66.7713 40.5862 66.968 40.6453C67.3353 40.7554 67.7167 40.8111 68.1 40.8107L68.1067 40.8093Z" fill="#F8B816"/>

<defs>
<clipPath id="clip0">
<rect width="32" height="32" fill="white" transform="translate(52 24)"/>
</clipPath>
</defs>
</svg>
