<svg width="136" height="105" viewBox="0 0 136 105" fill="none" xmlns="http://www.w3.org/2000/svg">
<rect x="0.5" y="0.5" width="135" height="104" rx="2.5" stroke="#E0E1DD"/>
<path d="M36.63 74.86H43.546V73.236H39.416C41.04 71.864 43.322 70.016 43.322 67.65C43.322 65.872 42.216 64.57 40.018 64.57C38.184 64.57 36.686 65.648 36.616 67.986H38.52C38.534 66.908 39.052 66.236 39.99 66.236C40.956 66.236 41.362 66.852 41.362 67.762C41.362 69.638 38.94 71.444 36.63 73.404V74.86ZM47.837 71.094C47.837 73.516 49.405 75.126 51.365 75.126C52.597 75.126 53.479 74.538 53.941 73.866V75H55.915V67.244H53.941V68.35C53.479 67.706 52.625 67.118 51.379 67.118C49.405 67.118 47.837 68.672 47.837 71.094ZM53.941 71.122C53.941 72.592 52.961 73.404 51.883 73.404C50.833 73.404 49.839 72.564 49.839 71.094C49.839 69.624 50.833 68.84 51.883 68.84C52.961 68.84 53.941 69.652 53.941 71.122ZM50.455 65.228L53.675 66.698V65.298L50.455 63.632V65.228ZM61.4732 64.766V70.758H63.3492C63.5592 70.128 64.0772 69.68 64.8892 69.68C65.9952 69.68 66.5692 70.31 66.5692 71.458C66.5692 72.536 66.0512 73.348 64.9032 73.348C63.9512 73.348 63.3772 72.83 63.2092 72.116H61.3052C61.4732 73.782 62.7332 75 64.9312 75C67.2552 75 68.4592 73.516 68.4592 71.43C68.4592 69.848 67.6472 68.056 65.2672 68.056C64.4132 68.056 63.6432 68.42 63.2652 68.882V66.488H67.8012V64.766H61.4732ZM73.0069 71.094C73.0069 73.516 74.5749 75.126 76.5349 75.126C77.7669 75.126 78.6489 74.538 79.1109 73.866V75H81.0849V67.244H79.1109V68.35C78.6489 67.706 77.7949 67.118 76.5489 67.118C74.5749 67.118 73.0069 68.672 73.0069 71.094ZM79.1109 71.122C79.1109 72.592 78.1309 73.404 77.0529 73.404C76.0029 73.404 75.0089 72.564 75.0089 71.094C75.0089 69.624 76.0029 68.84 77.0529 68.84C78.1309 68.84 79.1109 69.652 79.1109 71.122ZM88.4312 75H90.3912V70.45C90.3912 68.308 89.1032 67.132 87.2972 67.132C86.3032 67.132 85.4632 67.552 84.9592 68.21V67.244H82.9992V75H84.9592V70.716C84.9592 69.47 85.6452 68.798 86.7092 68.798C87.7452 68.798 88.4312 69.47 88.4312 70.716V75ZM98.2751 72.788C98.2191 69.946 93.9211 70.828 93.9211 69.414C93.9211 68.966 94.2991 68.672 95.0271 68.672C95.7971 68.672 96.2731 69.078 96.3291 69.68H98.2051C98.0931 68.14 96.9591 67.118 95.0831 67.118C93.1651 67.118 92.0171 68.154 92.0171 69.442C92.0171 72.284 96.3991 71.402 96.3991 72.788C96.3991 73.236 95.9791 73.586 95.2091 73.586C94.4251 73.586 93.8791 73.138 93.8091 72.55H91.8351C91.9191 73.992 93.2771 75.126 95.2231 75.126C97.1131 75.126 98.2751 74.118 98.2751 72.788Z" fill="black"/>

<path d="M69.16 41.352C69.3607 41.2905 69.5549 41.2096 69.74 41.1107C69.9056 41.0204 70.0366 40.8776 70.1124 40.7049C70.1882 40.5321 70.2045 40.339 70.1587 40.156C70.1129 39.973 70.0077 39.8103 69.8596 39.6935C69.7114 39.5767 69.5286 39.5124 69.34 39.5107H66.6667C66.4773 39.5107 66.2934 39.5737 66.1439 39.6899C65.9943 39.806 65.8878 39.9687 65.841 40.1522C65.7942 40.3356 65.8099 40.5294 65.8855 40.703C65.9611 40.8766 66.0924 41.02 66.2587 41.1107C66.445 41.21 66.6406 41.2908 66.8427 41.352C67.2157 41.4749 67.6074 41.5318 68 41.52H68.0267C68.4105 41.5183 68.7921 41.4617 69.16 41.352Z" fill="#F8B816"/>
<path d="M82.448 49.36C79.4573 47.2422 75.9631 45.9465 72.3146 45.6027C72.2442 45.5936 72.1785 45.5623 72.127 45.5132C72.0756 45.4642 72.0413 45.4 72.0289 45.33C72.0165 45.2601 72.0269 45.188 72.0584 45.1243C72.0899 45.0606 72.1409 45.0086 72.204 44.976C72.324 44.9133 72.4426 44.8493 72.56 44.7827C72.6129 44.7527 72.6731 44.7377 72.7339 44.7393C72.7948 44.741 72.854 44.7592 72.9053 44.792C73.4283 45.1377 74.0398 45.3256 74.6666 45.3333C75.5507 45.3333 76.3985 44.9821 77.0237 44.357C77.6488 43.7319 78 42.8841 78 42V34C78 31.3478 76.9464 28.8043 75.071 26.9289C73.1957 25.0536 70.6521 24 68 24C65.3478 24 62.8043 25.0536 60.9289 26.9289C59.0535 28.8043 58 31.3478 58 34V42C58 42.8841 58.3512 43.7319 58.9763 44.357C59.6014 44.9821 60.4493 45.3333 61.3333 45.3333C61.9625 45.3269 62.5764 45.1389 63.1013 44.792C63.1526 44.7592 63.2118 44.741 63.2727 44.7393C63.3335 44.7377 63.3937 44.7527 63.4466 44.7827C63.564 44.8493 63.6826 44.916 63.8026 44.976C63.8658 45.0086 63.9168 45.0606 63.9483 45.1243C63.9798 45.188 63.9901 45.2601 63.9777 45.33C63.9654 45.4 63.931 45.4642 63.8796 45.5132C63.8282 45.5623 63.7624 45.5936 63.692 45.6027C60.0409 45.9456 56.5438 47.2413 53.5506 49.36C53.0646 49.7314 52.6716 50.2107 52.4025 50.76C52.1334 51.3093 51.9956 51.9137 52 52.5253V54.6667C52 55.0203 52.1405 55.3594 52.3905 55.6095C52.6406 55.8595 52.9797 56 53.3333 56C53.6869 56 54.0261 55.8595 54.2761 55.6095C54.5262 55.3594 54.6666 55.0203 54.6666 54.6667V52.5253C54.6639 52.324 54.7078 52.1248 54.7947 51.9433C54.8817 51.7617 55.0094 51.6027 55.168 51.4787C56.3036 50.6369 57.5547 49.9633 58.8826 49.4787C58.9331 49.4597 58.9874 49.4532 59.0409 49.4599C59.0943 49.4665 59.1454 49.4859 59.1897 49.5166C59.234 49.5473 59.2702 49.5882 59.2952 49.636C59.3202 49.6837 59.3333 49.7368 59.3333 49.7907V55.6573C59.3333 55.7457 59.3684 55.8305 59.4309 55.893C59.4935 55.9555 59.5782 55.9907 59.6666 55.9907H76.3333C76.4217 55.9907 76.5065 55.9555 76.569 55.893C76.6315 55.8305 76.6666 55.7457 76.6666 55.6573V49.7907C76.6666 49.7368 76.6797 49.6837 76.7047 49.636C76.7297 49.5882 76.7659 49.5473 76.8102 49.5166C76.8545 49.4859 76.9056 49.4665 76.9591 49.4599C77.0126 49.4532 77.0669 49.4597 77.1173 49.4787C78.445 49.9629 79.6957 50.6366 80.8306 51.4787C80.9896 51.6024 81.1177 51.7614 81.2049 51.943C81.2921 52.1246 81.3361 52.3239 81.3333 52.5253V54.6667C81.3333 55.0203 81.4738 55.3594 81.7238 55.6095C81.9739 55.8595 82.313 56 82.6666 56C83.0203 56 83.3594 55.8595 83.6095 55.6095C83.8595 55.3594 84 55.0203 84 54.6667V52.5253C84.0044 51.9135 83.8665 51.309 83.5972 50.7597C83.3278 50.2103 82.9344 49.7311 82.448 49.36ZM62.388 40.2667C62.3428 40.1969 62.3253 40.1128 62.3392 40.0308C62.353 39.9488 62.397 39.875 62.4626 39.824C62.9428 39.4499 63.3309 38.9709 63.5974 38.4236C63.8639 37.8763 64.0016 37.2754 64 36.6667V35.5467C64.0001 35.4974 64.0112 35.4487 64.0325 35.4043C64.0538 35.3598 64.0847 35.3207 64.123 35.2896C64.1613 35.2586 64.206 35.2365 64.2539 35.2249C64.3019 35.2133 64.3517 35.2126 64.4 35.2227C64.9854 35.3472 65.5906 35.3454 66.1753 35.2176C66.7599 35.0898 67.3106 34.8388 67.7906 34.4813C67.8483 34.4379 67.9185 34.4143 67.9906 34.4143C68.0628 34.4143 68.133 34.4379 68.1906 34.4813C68.6706 34.8389 69.2214 35.0898 69.8061 35.2174C70.3908 35.345 70.996 35.3464 71.5813 35.2213C71.6296 35.2117 71.6794 35.2129 71.7272 35.2247C71.775 35.2366 71.8196 35.2589 71.8578 35.2899C71.896 35.321 71.9269 35.3601 71.9483 35.4045C71.9696 35.4489 71.9809 35.4974 71.9813 35.5467V36.6667C71.9797 37.2754 72.1174 37.8763 72.3839 38.4236C72.6503 38.9709 73.0385 39.4499 73.5186 39.824C73.5847 39.8747 73.6292 39.9484 73.6433 40.0305C73.6574 40.1125 73.64 40.1969 73.5946 40.2667C72.9914 41.2078 72.1613 41.9821 71.1805 42.5184C70.1997 43.0547 69.0998 43.3358 67.982 43.3358C66.8642 43.3358 65.7643 43.0547 64.7835 42.5184C63.8027 41.9821 62.9725 41.2078 62.3693 40.2667H62.388ZM68 50.6667C67.2444 50.6594 66.4998 50.4846 65.8199 50.1549C65.1399 49.8252 64.5416 49.3488 64.068 48.76C64.0298 48.7137 64.0047 48.658 63.9954 48.5987C63.9861 48.5394 63.9929 48.4787 64.0151 48.423C64.0373 48.3672 64.0741 48.3184 64.1217 48.2818C64.1692 48.2451 64.2257 48.222 64.2853 48.2147C66.7534 47.9276 69.2465 47.9276 71.7146 48.2147C71.7743 48.2215 71.831 48.2444 71.8787 48.2809C71.9264 48.3174 71.9633 48.3662 71.9855 48.422C72.0077 48.4778 72.0143 48.5386 72.0046 48.5979C71.995 48.6572 71.9694 48.7128 71.9306 48.7587C71.4572 49.3475 70.8592 49.824 70.1795 50.1539C69.4998 50.4838 68.7555 50.6589 68 50.6667Z" fill="#F8B816"/>

<defs>
<clipPath id="clip0">
<rect width="32" height="32" fill="white" transform="translate(52 24)"/>
</clipPath>
</defs>
</svg>
