<svg width="136" height="105" viewBox="0 0 136 105" fill="none" xmlns="http://www.w3.org/2000/svg">
<rect x="0.5" y="0.5" width="135" height="104" rx="2.5" stroke="#E0E1DD"/>
<path d="M34.274 64.766V70.758H36.15C36.36 70.128 36.878 69.68 37.69 69.68C38.796 69.68 39.37 70.31 39.37 71.458C39.37 72.536 38.852 73.348 37.704 73.348C36.752 73.348 36.178 72.83 36.01 72.116H34.106C34.274 73.782 35.534 75 37.732 75C40.056 75 41.26 73.516 41.26 71.43C41.26 69.848 40.448 68.056 38.068 68.056C37.214 68.056 36.444 68.42 36.066 68.882V66.488H40.602V64.766H34.274ZM45.8077 71.094C45.8077 73.516 47.3757 75.126 49.3357 75.126C50.5677 75.126 51.4497 74.538 51.9117 73.866V75H53.8857V67.244H51.9117V68.35C51.4497 67.706 50.5957 67.118 49.3497 67.118C47.3757 67.118 45.8077 68.672 45.8077 71.094ZM51.9117 71.122C51.9117 72.592 50.9317 73.404 49.8537 73.404C48.8037 73.404 47.8097 72.564 47.8097 71.094C47.8097 69.624 48.8037 68.84 49.8537 68.84C50.9317 68.84 51.9117 69.652 51.9117 71.122ZM48.4257 65.228L51.6457 66.698V65.298L48.4257 63.632V65.228ZM60.0319 75H62.0479V64.794H58.6739V66.6H60.0319V75ZM63.9842 69.764C63.9842 72.746 64.8802 74.972 67.7642 74.972C70.6482 74.972 71.5442 72.746 71.5442 69.764C71.5442 66.81 70.6482 64.598 67.7642 64.598C64.8802 64.598 63.9842 66.81 63.9842 69.764ZM69.6122 69.764C69.6122 71.584 69.4162 73.152 67.7642 73.152C66.1122 73.152 65.9162 71.584 65.9162 69.764C65.9162 68.014 66.1122 66.418 67.7642 66.418C69.4162 66.418 69.6122 68.014 69.6122 69.764ZM76.0909 71.094C76.0909 73.516 77.6589 75.126 79.6189 75.126C80.8509 75.126 81.7329 74.538 82.1949 73.866V75H84.1689V67.244H82.1949V68.35C81.7329 67.706 80.8789 67.118 79.6329 67.118C77.6589 67.118 76.0909 68.672 76.0909 71.094ZM82.1949 71.122C82.1949 72.592 81.2149 73.404 80.1369 73.404C79.0869 73.404 78.0929 72.564 78.0929 71.094C78.0929 69.624 79.0869 68.84 80.1369 68.84C81.2149 68.84 82.1949 69.652 82.1949 71.122ZM91.5152 75H93.4752V70.45C93.4752 68.308 92.1872 67.132 90.3812 67.132C89.3872 67.132 88.5472 67.552 88.0432 68.21V67.244H86.0832V75H88.0432V70.716C88.0432 69.47 88.7292 68.798 89.7932 68.798C90.8292 68.798 91.5152 69.47 91.5152 70.716V75ZM101.359 72.788C101.303 69.946 97.005 70.828 97.005 69.414C97.005 68.966 97.383 68.672 98.111 68.672C98.881 68.672 99.357 69.078 99.413 69.68H101.289C101.177 68.14 100.043 67.118 98.167 67.118C96.249 67.118 95.101 68.154 95.101 69.442C95.101 72.284 99.483 71.402 99.483 72.788C99.483 73.236 99.063 73.586 98.293 73.586C97.509 73.586 96.963 73.138 96.893 72.55H94.919C95.003 73.992 96.361 75.126 98.307 75.126C100.197 75.126 101.359 74.118 101.359 72.788Z" fill="black"/>
<path d="M52.6667 55.1667C52.6667 55.3435 52.7369 55.5131 52.8619 55.6381C52.9869 55.7631 53.1565 55.8334 53.3333 55.8334H66.8333C66.9217 55.8334 67.0065 55.7982 67.069 55.7357C67.1315 55.6732 67.1667 55.5884 67.1667 55.5V49.7854C67.1667 49.6678 67.1926 49.5517 67.2427 49.4454C67.264 49.4008 67.2752 49.3521 67.2752 49.3027C67.2752 49.2533 67.264 49.2045 67.2427 49.16C67.2214 49.1156 67.1908 49.0763 67.1527 49.045C67.1147 49.0136 67.0703 48.991 67.0227 48.9787C66.3631 48.811 65.7572 48.4782 65.2617 48.0117C64.7663 47.5452 64.3977 46.9603 64.1906 46.312C64.1667 46.2382 64.1178 46.1751 64.0524 46.1334C63.9869 46.0918 63.909 46.0744 63.832 46.084C60.2768 46.4061 56.8694 47.6597 53.9533 49.7187C53.5489 50.0289 53.2222 50.4289 52.9989 50.8871C52.7756 51.3452 52.6618 51.849 52.6667 52.3587V55.1667Z" fill="#F8B816"/>
<path d="M68.976 48.9787C68.9283 48.991 68.8839 49.0136 68.8459 49.0449C68.8079 49.0763 68.7772 49.1155 68.756 49.16C68.7346 49.2045 68.7235 49.2533 68.7235 49.3027C68.7235 49.352 68.7346 49.4008 68.756 49.4453C68.806 49.5517 68.832 49.6678 68.832 49.7853V55.5C68.832 55.5884 68.8671 55.6732 68.9296 55.7357C68.9922 55.7982 69.0769 55.8333 69.1653 55.8333H82.6667C82.8435 55.8333 83.0131 55.7631 83.1381 55.6381C83.2631 55.513 83.3333 55.3435 83.3333 55.1667V52.3587C83.3374 51.8494 83.2231 51.3462 82.9993 50.8887C82.7756 50.4312 82.4485 50.032 82.044 49.7227C79.1286 47.6634 75.7215 46.4097 72.1667 46.088C72.0897 46.0783 72.0118 46.0958 71.9463 46.1374C71.8808 46.179 71.8319 46.2422 71.808 46.316C71.6004 46.9635 71.2316 47.5476 70.7362 48.0133C70.2408 48.4791 69.6351 48.8113 68.976 48.9787Z" fill="#F8B816"/>
<path d="M70.6667 36.5C71.4031 36.5 72 35.903 72 35.1666C72 34.4303 71.4031 33.8333 70.6667 33.8333C69.9303 33.8333 69.3334 34.4303 69.3334 35.1666C69.3334 35.903 69.9303 36.5 70.6667 36.5Z" fill="#F8B816"/>
<path d="M65.3333 36.5C66.0697 36.5 66.6667 35.903 66.6667 35.1666C66.6667 34.4303 66.0697 33.8333 65.3333 33.8333C64.597 33.8333 64 34.4303 64 35.1666C64 35.903 64.597 36.5 65.3333 36.5Z" fill="#F8B816"/>
<path d="M65.456 46.468C66.2535 46.8365 67.1215 47.0273 68 47.0273C68.8785 47.0273 69.7465 46.8365 70.544 46.468L71.9227 45.8307L73.4747 45.1147C74.58 44.6038 75.5061 43.7723 76.1327 42.7282C76.7593 41.6841 77.0573 40.4757 76.988 39.26C76.9873 39.2516 76.9873 39.2431 76.988 39.2347C76.988 38.8947 77.0027 32.772 77.0013 33.1653C77.0013 30.7784 76.0531 28.4892 74.3653 26.8014C72.6775 25.1136 70.3883 24.1653 68.0013 24.1653C65.6144 24.1653 63.3252 25.1136 61.6374 26.8014C59.9496 28.4892 59.0013 30.7784 59.0013 33.1653C59.0013 33.2987 59.0173 39.572 59.0173 39.172C58.9336 40.4011 59.2241 41.6267 59.8505 42.6875C60.477 43.7483 61.41 44.5945 62.5267 45.1147L64.0787 45.8307L65.456 46.468ZM67.7827 31.4787C67.8431 31.4267 67.9203 31.3981 68 31.3981C68.0798 31.3981 68.1569 31.4267 68.2173 31.4787C70.0166 32.9188 72.2827 33.6468 74.584 33.524H74.6667C74.7107 33.5233 74.7543 33.5314 74.7951 33.5479C74.8359 33.5644 74.8729 33.5889 74.904 33.62C74.9671 33.6829 75.0025 33.7683 75.0027 33.8573V35.296C75.0027 35.3825 74.9693 35.4656 74.9093 35.528L72.1093 38.436L72.0853 38.464C71.8916 38.7175 71.6234 38.9041 71.3183 38.9976C71.0132 39.0911 70.6865 39.0868 70.384 38.9853C68.8352 38.472 67.1621 38.472 65.6133 38.9853C65.2895 39.0857 64.9421 39.0801 64.6217 38.9693C64.3013 38.8585 64.0247 38.6483 63.832 38.3693L63.808 38.3427L61.0933 35.5267C61.0334 35.4643 61 35.3812 61 35.2947V33.8547C60.9999 33.8107 61.0085 33.7672 61.0255 33.7267C61.0424 33.6862 61.0673 33.6494 61.0987 33.6187C61.1611 33.5567 61.2454 33.5217 61.3333 33.5213C63.6619 33.6626 65.96 32.9348 67.7827 31.4787ZM65.8 41.836C65.8546 41.6203 65.9796 41.429 66.1551 41.2923C66.3307 41.1556 66.5468 41.0814 66.7693 41.0813H69.2307C69.4527 41.0816 69.6683 41.1558 69.8435 41.2921C70.0187 41.4284 70.1436 41.6192 70.1985 41.8343C70.2533 42.0494 70.235 42.2767 70.1465 42.4802C70.0579 42.6838 69.9041 42.8521 69.7093 42.9587C69.5258 43.0577 69.3329 43.1381 69.1333 43.1987C68.7681 43.3091 68.3883 43.3644 68.0067 43.3627H68C67.6176 43.3632 67.2371 43.308 66.8707 43.1987C66.6719 43.1378 66.4794 43.0579 66.296 42.96C66.1001 42.8546 65.9449 42.6867 65.855 42.4832C65.7652 42.2796 65.7458 42.0518 65.8 41.836Z" fill="#F8B816"/>
</svg>
