<svg width="136" height="105" viewBox="0 0 136 105" fill="none" xmlns="http://www.w3.org/2000/svg">
<rect width="136" height="105" rx="3" fill="#79C792"/>
<path d="M40.728 66.656H36.038V69.148C36.2527 68.896 36.5467 68.6953 36.92 68.546C37.3027 68.3873 37.7227 68.308 38.18 68.308C38.8613 68.308 39.426 68.4573 39.874 68.756C40.3313 69.0453 40.6673 69.4373 40.882 69.932C41.106 70.4173 41.218 70.9587 41.218 71.556C41.218 72.6107 40.9193 73.4553 40.322 74.09C39.734 74.7247 38.8893 75.042 37.788 75.042C37.0693 75.042 36.444 74.916 35.912 74.664C35.38 74.4027 34.9647 74.0433 34.666 73.586C34.3673 73.1193 34.204 72.578 34.176 71.962H36.094C36.1687 72.382 36.3413 72.718 36.612 72.97C36.8827 73.2127 37.242 73.334 37.69 73.334C38.2313 73.334 38.6327 73.1707 38.894 72.844C39.1647 72.508 39.3 72.0647 39.3 71.514C39.3 70.9913 39.16 70.5853 38.88 70.296C38.6 70.0067 38.2033 69.862 37.69 69.862C37.3167 69.862 36.9993 69.946 36.738 70.114C36.4767 70.2727 36.2853 70.4873 36.164 70.758H34.246V64.92H40.728V66.656ZM48.8422 67.146C49.4955 67.146 50.0555 67.3 50.5222 67.608C50.9889 67.916 51.3202 68.3313 51.5162 68.854V67.244H53.4762V75H51.5162V73.376C51.3202 73.8987 50.9889 74.3187 50.5222 74.636C50.0555 74.944 49.4955 75.098 48.8422 75.098C48.1889 75.098 47.6009 74.9393 47.0782 74.622C46.5555 74.3047 46.1449 73.8473 45.8462 73.25C45.5569 72.6433 45.4122 71.934 45.4122 71.122C45.4122 70.31 45.5569 69.6053 45.8462 69.008C46.1449 68.4013 46.5555 67.9393 47.0782 67.622C47.6009 67.3047 48.1889 67.146 48.8422 67.146ZM49.4582 68.868C48.8422 68.868 48.3475 69.0687 47.9742 69.47C47.6009 69.8713 47.4142 70.422 47.4142 71.122C47.4142 71.822 47.6009 72.3727 47.9742 72.774C48.3475 73.166 48.8422 73.362 49.4582 73.362C50.0555 73.362 50.5455 73.1613 50.9282 72.76C51.3202 72.3493 51.5162 71.8033 51.5162 71.122C51.5162 70.4313 51.3202 69.8853 50.9282 69.484C50.5455 69.0733 50.0555 68.868 49.4582 68.868ZM50.5082 65.312V66.656L47.2882 65.144V63.632L50.5082 65.312ZM57.586 66.964V65.116H61.142V75H59.07V66.964H57.586ZM62.6971 69.974C62.6971 73.3247 63.9571 75 66.4771 75C67.8117 75 68.7731 74.552 69.3611 73.656C69.9491 72.76 70.2431 71.5327 70.2431 69.974C70.2431 68.4247 69.9491 67.202 69.3611 66.306C68.7731 65.41 67.8117 64.962 66.4771 64.962C63.9571 64.962 62.6971 66.6327 62.6971 69.974ZM68.2971 69.974C68.2971 70.9913 68.1711 71.7753 67.9191 72.326C67.6764 72.8673 67.1957 73.138 66.4771 73.138C65.7491 73.138 65.2591 72.8673 65.0071 72.326C64.7644 71.7753 64.6431 70.9913 64.6431 69.974C64.6431 68.966 64.7644 68.1913 65.0071 67.65C65.2591 67.0993 65.7491 66.824 66.4771 66.824C67.1957 66.824 67.6764 67.0993 67.9191 67.65C68.1711 68.1913 68.2971 68.966 68.2971 69.974ZM77.8676 67.146C78.5209 67.146 79.0809 67.3 79.5476 67.608C80.0143 67.916 80.3456 68.3313 80.5416 68.854V67.244H82.5016V75H80.5416V73.376C80.3456 73.8987 80.0143 74.3187 79.5476 74.636C79.0809 74.944 78.5209 75.098 77.8676 75.098C77.2143 75.098 76.6263 74.9393 76.1036 74.622C75.5809 74.3047 75.1703 73.8473 74.8716 73.25C74.5823 72.6433 74.4376 71.934 74.4376 71.122C74.4376 70.31 74.5823 69.6053 74.8716 69.008C75.1703 68.4013 75.5809 67.9393 76.1036 67.622C76.6263 67.3047 77.2143 67.146 77.8676 67.146ZM78.4836 68.868C77.8676 68.868 77.3729 69.0687 76.9996 69.47C76.6263 69.8713 76.4396 70.422 76.4396 71.122C76.4396 71.822 76.6263 72.3727 76.9996 72.774C77.3729 73.166 77.8676 73.362 78.4836 73.362C79.0809 73.362 79.5709 73.1613 79.9536 72.76C80.3456 72.3493 80.5416 71.8033 80.5416 71.122C80.5416 70.4313 80.3456 69.8853 79.9536 69.484C79.5709 69.0733 79.0809 68.868 78.4836 68.868ZM88.9105 67.132C89.8065 67.132 90.5205 67.426 91.0525 68.014C91.5845 68.602 91.8505 69.428 91.8505 70.492V75H89.8905V70.716C89.8905 70.1 89.7319 69.624 89.4145 69.288C89.0972 68.9427 88.6632 68.77 88.1125 68.77C87.5525 68.77 87.1045 68.952 86.7685 69.316C86.4325 69.68 86.2645 70.2027 86.2645 70.884V75H84.2905V67.244H86.2645V68.798C86.4699 68.2753 86.8059 67.8693 87.2725 67.58C87.7485 67.2813 88.2945 67.132 88.9105 67.132ZM96.2614 67.146C97.2041 67.146 97.9601 67.384 98.5294 67.86C99.0987 68.336 99.4534 68.9707 99.5934 69.764H97.7454C97.6707 69.3907 97.5027 69.092 97.2414 68.868C96.9801 68.644 96.6394 68.532 96.2194 68.532C95.8834 68.532 95.6221 68.6113 95.4354 68.77C95.2487 68.9287 95.1554 69.1433 95.1554 69.414C95.1554 69.6287 95.2301 69.8013 95.3794 69.932C95.5287 70.0627 95.7154 70.1653 95.9394 70.24C96.1634 70.3147 96.4854 70.4033 96.9054 70.506C97.4934 70.6367 97.9694 70.7767 98.3334 70.926C98.7067 71.066 99.0241 71.2947 99.2854 71.612C99.5561 71.92 99.6914 72.34 99.6914 72.872C99.6914 73.5347 99.4301 74.0713 98.9074 74.482C98.3941 74.8927 97.6987 75.098 96.8214 75.098C95.8134 75.098 95.0061 74.874 94.3994 74.426C93.7927 73.9687 93.4241 73.32 93.2934 72.48H95.1834C95.2301 72.8627 95.3981 73.166 95.6874 73.39C95.9767 73.6047 96.3547 73.712 96.8214 73.712C97.1574 73.712 97.4141 73.6327 97.5914 73.474C97.7687 73.306 97.8574 73.0913 97.8574 72.83C97.8574 72.606 97.7781 72.424 97.6194 72.284C97.4701 72.144 97.2787 72.0367 97.0454 71.962C96.8214 71.8873 96.4994 71.7987 96.0794 71.696C95.5007 71.5653 95.0294 71.4347 94.6654 71.304C94.3107 71.164 94.0027 70.9447 93.7414 70.646C93.4894 70.3473 93.3634 69.9367 93.3634 69.414C93.3634 68.742 93.6201 68.196 94.1334 67.776C94.6467 67.356 95.3561 67.146 96.2614 67.146Z" fill="white"/>
<path d="M127.218 17.8324L125.38 16.3544C125.237 16.2393 125.125 16.0899 125.056 15.9202C124.986 15.7505 124.96 15.5659 124.98 15.3834L125.235 13.0384C125.269 12.7271 125.233 12.4119 125.13 12.1163C125.026 11.8207 124.857 11.5522 124.635 11.3307C124.414 11.1091 124.146 10.9401 123.85 10.8362C123.554 10.7323 123.239 10.6962 122.928 10.7304L120.58 10.9824C120.398 11.0027 120.213 10.9766 120.043 10.9067C119.874 10.8368 119.724 10.7253 119.609 10.5824L118.131 8.74544C117.928 8.51148 117.678 8.32382 117.397 8.19519C117.115 8.06657 116.809 8 116.5 8C116.191 8 115.885 8.06657 115.603 8.19519C115.322 8.32382 115.071 8.51148 114.869 8.74544L113.391 10.5824C113.276 10.7258 113.127 10.8377 112.957 10.9076C112.787 10.9776 112.602 11.0033 112.42 10.9824L110.075 10.7304C109.764 10.6961 109.448 10.7321 109.153 10.8358C108.857 10.9396 108.589 11.1085 108.367 11.3299C108.146 11.5514 107.977 11.8198 107.873 12.1154C107.769 12.4109 107.733 12.726 107.767 13.0374L108.022 15.3824C108.043 15.5649 108.017 15.7497 107.947 15.9195C107.877 16.0893 107.765 16.2386 107.622 16.3534L105.782 17.8324C105.538 18.0285 105.341 18.2768 105.206 18.5591C105.07 18.8414 105 19.1504 105 19.4634C105 19.7765 105.07 20.0855 105.206 20.3678C105.341 20.6501 105.538 20.8984 105.782 21.0944L107.62 22.5724C107.763 22.6874 107.875 22.8367 107.945 23.0065C108.015 23.1763 108.041 23.361 108.02 23.5434L107.765 25.8884C107.731 26.1998 107.767 26.515 107.87 26.8106C107.974 27.1062 108.143 27.3747 108.364 27.5962C108.586 27.8178 108.854 27.9868 109.15 28.0907C109.445 28.1945 109.761 28.2307 110.072 28.1964L112.418 27.9414C112.6 27.9211 112.785 27.9471 112.955 28.0171C113.124 28.087 113.274 28.1985 113.389 28.3414L114.869 30.1824C115.065 30.4265 115.313 30.6235 115.596 30.7588C115.878 30.8941 116.187 30.9644 116.5 30.9644C116.813 30.9644 117.122 30.8941 117.404 30.7588C117.687 30.6235 117.935 30.4265 118.131 30.1824L119.609 28.3444C119.724 28.2016 119.874 28.0901 120.043 28.0202C120.213 27.9503 120.398 27.9242 120.58 27.9444L122.925 28.1994C123.236 28.2338 123.551 28.1978 123.847 28.0941C124.143 27.9903 124.411 27.8214 124.633 27.6C124.854 27.3785 125.023 27.1101 125.127 26.8145C125.231 26.519 125.267 26.2038 125.233 25.8924L124.978 23.5464C124.957 23.364 124.983 23.1792 125.053 23.0094C125.123 22.8396 125.235 22.6903 125.378 22.5754L127.216 21.0974C127.46 20.9014 127.657 20.6531 127.792 20.3708C127.928 20.0885 127.998 19.7795 127.998 19.4664C127.998 19.1534 127.928 18.8444 127.792 18.5621C127.657 18.2798 127.46 18.0315 127.216 17.8354L127.218 17.8324ZM116.9 22.5304C116.746 22.7305 116.552 22.8958 116.33 23.0153C116.108 23.1349 115.863 23.2059 115.611 23.2239C115.359 23.2418 115.107 23.2063 114.87 23.1195C114.633 23.0327 114.417 22.8967 114.237 22.7204L111.793 20.2824C111.697 20.1902 111.621 20.0799 111.569 19.9578C111.516 19.8358 111.489 19.7046 111.488 19.5718C111.487 19.4391 111.512 19.3074 111.562 19.1845C111.612 19.0616 111.687 18.9499 111.781 18.856C111.874 18.7622 111.986 18.6879 112.109 18.6376C112.232 18.5873 112.364 18.562 112.496 18.5632C112.629 18.5643 112.76 18.5919 112.882 18.6443C113.004 18.6968 113.115 18.7729 113.207 18.8684L115.458 21.1194L119.367 15.9084C119.526 15.6963 119.763 15.556 120.026 15.5185C120.156 15.4999 120.288 15.5071 120.415 15.5397C120.542 15.5723 120.662 15.6297 120.767 15.7084C120.872 15.7872 120.96 15.886 121.027 15.999C121.094 16.112 121.138 16.237 121.157 16.367C121.175 16.497 121.168 16.6294 121.136 16.7566C121.103 16.8838 121.046 17.0034 120.967 17.1084L116.9 22.5304Z" fill="white"/>
<path d="M52.6667 55.1667C52.6667 55.3435 52.7369 55.5131 52.8619 55.6381C52.9869 55.7631 53.1565 55.8334 53.3333 55.8334H66.8333C66.9217 55.8334 67.0065 55.7982 67.069 55.7357C67.1315 55.6732 67.1667 55.5884 67.1667 55.5V49.7854C67.1667 49.6678 67.1926 49.5517 67.2427 49.4454C67.264 49.4008 67.2752 49.3521 67.2752 49.3027C67.2752 49.2533 67.264 49.2045 67.2427 49.16C67.2214 49.1156 67.1908 49.0763 67.1527 49.045C67.1147 49.0136 67.0703 48.991 67.0227 48.9787C66.3631 48.811 65.7572 48.4782 65.2617 48.0117C64.7663 47.5452 64.3977 46.9603 64.1907 46.312C64.1667 46.2382 64.1178 46.1751 64.0524 46.1334C63.9869 46.0918 63.909 46.0744 63.832 46.084C60.2768 46.4061 56.8694 47.6597 53.9533 49.7187C53.5489 50.0289 53.2222 50.4289 52.9989 50.8871C52.7756 51.3452 52.6618 51.849 52.6667 52.3587V55.1667Z" fill="white"/>
<path d="M68.9761 48.9787C68.9285 48.991 68.884 49.0136 68.846 49.0449C68.808 49.0763 68.7773 49.1155 68.7561 49.16C68.7347 49.2045 68.7236 49.2533 68.7236 49.3027C68.7236 49.352 68.7347 49.4008 68.7561 49.4453C68.8061 49.5517 68.8321 49.6678 68.8321 49.7853V55.5C68.8321 55.5884 68.8673 55.6732 68.9298 55.7357C68.9923 55.7982 69.0771 55.8333 69.1655 55.8333H82.6668C82.8436 55.8333 83.0132 55.7631 83.1382 55.6381C83.2632 55.513 83.3335 55.3435 83.3335 55.1667V52.3587C83.3376 51.8494 83.2232 51.3462 82.9995 50.8887C82.7757 50.4312 82.4487 50.032 82.0441 49.7227C79.1287 47.6634 75.7216 46.4097 72.1668 46.088C72.0898 46.0783 72.0119 46.0958 71.9464 46.1374C71.881 46.179 71.832 46.2422 71.8081 46.316C71.6005 46.9635 71.2317 47.5476 70.7363 48.0133C70.2409 48.4791 69.6352 48.8113 68.9761 48.9787Z" fill="white"/>
<path d="M70.6666 36.5C71.403 36.5 71.9999 35.903 71.9999 35.1666C71.9999 34.4303 71.403 33.8333 70.6666 33.8333C69.9302 33.8333 69.3333 34.4303 69.3333 35.1666C69.3333 35.903 69.9302 36.5 70.6666 36.5Z" fill="white"/>
<path d="M65.3333 36.5C66.0697 36.5 66.6667 35.903 66.6667 35.1666C66.6667 34.4303 66.0697 33.8333 65.3333 33.8333C64.597 33.8333 64 34.4303 64 35.1666C64 35.903 64.597 36.5 65.3333 36.5Z" fill="white"/>
<path d="M65.4559 46.468C66.2534 46.8365 67.1214 47.0273 67.9999 47.0273C68.8784 47.0273 69.7464 46.8365 70.5439 46.468L71.9226 45.8307L73.4746 45.1147C74.5799 44.6038 75.506 43.7723 76.1326 42.7282C76.7591 41.6841 77.0572 40.4757 76.9879 39.26C76.9872 39.2516 76.9872 39.2431 76.9879 39.2347C76.9879 38.8947 77.0026 32.772 77.0012 33.1653C77.0012 30.7784 76.053 28.4892 74.3652 26.8014C72.6774 25.1136 70.3882 24.1653 68.0012 24.1653C65.6143 24.1653 63.3251 25.1136 61.6373 26.8014C59.9494 28.4892 59.0012 30.7784 59.0012 33.1653C59.0012 33.2987 59.0172 39.572 59.0172 39.172C58.9335 40.4011 59.224 41.6267 59.8504 42.6875C60.4768 43.7483 61.4098 44.5945 62.5266 45.1147L64.0786 45.8307L65.4559 46.468ZM67.7826 31.4787C67.843 31.4267 67.9201 31.3981 67.9999 31.3981C68.0796 31.3981 68.1568 31.4267 68.2172 31.4787C70.0165 32.9188 72.2826 33.6468 74.5839 33.524H74.6666C74.7105 33.5233 74.7542 33.5314 74.795 33.5479C74.8357 33.5644 74.8728 33.5889 74.9039 33.62C74.9669 33.6829 75.0024 33.7683 75.0026 33.8573V35.296C75.0026 35.3825 74.9691 35.4656 74.9092 35.528L72.1092 38.436L72.0852 38.464C71.8915 38.7175 71.6233 38.9041 71.3182 38.9976C71.0131 39.0911 70.6864 39.0868 70.3839 38.9853C68.8351 38.472 67.162 38.472 65.6132 38.9853C65.2894 39.0857 64.942 39.0801 64.6216 38.9693C64.3012 38.8585 64.0245 38.6483 63.8319 38.3693L63.8079 38.3427L61.0932 35.5267C61.0333 35.4643 60.9999 35.3812 60.9999 35.2947V33.8547C60.9998 33.8107 61.0084 33.7672 61.0254 33.7267C61.0423 33.6862 61.0672 33.6494 61.0986 33.6187C61.1609 33.5567 61.2452 33.5217 61.3332 33.5213C63.6618 33.6626 65.9599 32.9348 67.7826 31.4787V31.4787ZM65.7999 41.836C65.8545 41.6203 65.9794 41.429 66.155 41.2923C66.3306 41.1556 66.5467 41.0814 66.7692 41.0813H69.2306C69.4526 41.0816 69.6682 41.1558 69.8434 41.2921C70.0186 41.4284 70.1435 41.6192 70.1983 41.8343C70.2532 42.0494 70.2349 42.2767 70.1463 42.4802C70.0578 42.6838 69.904 42.8521 69.7092 42.9587C69.5257 43.0577 69.3327 43.1381 69.1332 43.1987C68.7679 43.3091 68.3882 43.3644 68.0066 43.3627H67.9999C67.6175 43.3632 67.237 43.308 66.8706 43.1987C66.6718 43.1378 66.4793 43.0579 66.2959 42.96C66.0999 42.8546 65.9448 42.6867 65.8549 42.4832C65.7651 42.2796 65.7457 42.0518 65.7999 41.836V41.836Z" fill="white"/>
</svg>
