<svg width="136" height="105" viewBox="0 0 136 105" fill="none" xmlns="http://www.w3.org/2000/svg">
<rect width="136" height="105" rx="3" fill="#79C792"/>
<path d="M40.392 66.866H42.856L45.922 70.016L42.856 73.152H40.392L43.444 70.016L40.392 66.866ZM49.5332 66.964V65.116H53.0892V75H51.0172V66.964H49.5332ZM54.6443 69.974C54.6443 73.3247 55.9043 75 58.4243 75C59.759 75 60.7203 74.552 61.3083 73.656C61.8963 72.76 62.1903 71.5327 62.1903 69.974C62.1903 68.4247 61.8963 67.202 61.3083 66.306C60.7203 65.41 59.759 64.962 58.4243 64.962C55.9043 64.962 54.6443 66.6327 54.6443 69.974ZM60.2443 69.974C60.2443 70.9913 60.1183 71.7753 59.8663 72.326C59.6237 72.8673 59.143 73.138 58.4243 73.138C57.6963 73.138 57.2063 72.8673 56.9543 72.326C56.7117 71.7753 56.5903 70.9913 56.5903 69.974C56.5903 68.966 56.7117 68.1913 56.9543 67.65C57.2063 67.0993 57.6963 66.824 58.4243 66.824C59.143 66.824 59.6237 67.0993 59.8663 67.65C60.1183 68.1913 60.2443 68.966 60.2443 69.974ZM69.8149 67.146C70.4682 67.146 71.0282 67.3 71.4949 67.608C71.9615 67.916 72.2929 68.3313 72.4889 68.854V67.244H74.4489V75H72.4889V73.376C72.2929 73.8987 71.9615 74.3187 71.4949 74.636C71.0282 74.944 70.4682 75.098 69.8149 75.098C69.1615 75.098 68.5735 74.9393 68.0509 74.622C67.5282 74.3047 67.1175 73.8473 66.8189 73.25C66.5295 72.6433 66.3849 71.934 66.3849 71.122C66.3849 70.31 66.5295 69.6053 66.8189 69.008C67.1175 68.4013 67.5282 67.9393 68.0509 67.622C68.5735 67.3047 69.1615 67.146 69.8149 67.146ZM70.4309 68.868C69.8149 68.868 69.3202 69.0687 68.9469 69.47C68.5735 69.8713 68.3869 70.422 68.3869 71.122C68.3869 71.822 68.5735 72.3727 68.9469 72.774C69.3202 73.166 69.8149 73.362 70.4309 73.362C71.0282 73.362 71.5182 73.1613 71.9009 72.76C72.2929 72.3493 72.4889 71.8033 72.4889 71.122C72.4889 70.4313 72.2929 69.8853 71.9009 69.484C71.5182 69.0733 71.0282 68.868 70.4309 68.868ZM80.8578 67.132C81.7538 67.132 82.4678 67.426 82.9998 68.014C83.5318 68.602 83.7978 69.428 83.7978 70.492V75H81.8378V70.716C81.8378 70.1 81.6791 69.624 81.3618 69.288C81.0445 68.9427 80.6105 68.77 80.0598 68.77C79.4998 68.77 79.0518 68.952 78.7158 69.316C78.3798 69.68 78.2118 70.2027 78.2118 70.884V75H76.2378V67.244H78.2118V68.798C78.4171 68.2753 78.7531 67.8693 79.2198 67.58C79.6958 67.2813 80.2418 67.132 80.8578 67.132ZM88.2087 67.146C89.1513 67.146 89.9073 67.384 90.4767 67.86C91.046 68.336 91.4007 68.9707 91.5407 69.764H89.6927C89.618 69.3907 89.45 69.092 89.1887 68.868C88.9273 68.644 88.5867 68.532 88.1667 68.532C87.8307 68.532 87.5693 68.6113 87.3827 68.77C87.196 68.9287 87.1027 69.1433 87.1027 69.414C87.1027 69.6287 87.1773 69.8013 87.3267 69.932C87.476 70.0627 87.6627 70.1653 87.8867 70.24C88.1107 70.3147 88.4327 70.4033 88.8527 70.506C89.4407 70.6367 89.9167 70.7767 90.2807 70.926C90.654 71.066 90.9713 71.2947 91.2327 71.612C91.5033 71.92 91.6387 72.34 91.6387 72.872C91.6387 73.5347 91.3773 74.0713 90.8547 74.482C90.3413 74.8927 89.646 75.098 88.7687 75.098C87.7607 75.098 86.9533 74.874 86.3467 74.426C85.74 73.9687 85.3713 73.32 85.2407 72.48H87.1307C87.1773 72.8627 87.3453 73.166 87.6347 73.39C87.924 73.6047 88.302 73.712 88.7687 73.712C89.1047 73.712 89.3613 73.6327 89.5387 73.474C89.716 73.306 89.8047 73.0913 89.8047 72.83C89.8047 72.606 89.7253 72.424 89.5667 72.284C89.4173 72.144 89.226 72.0367 88.9927 71.962C88.7687 71.8873 88.4467 71.7987 88.0267 71.696C87.448 71.5653 86.9767 71.4347 86.6127 71.304C86.258 71.164 85.95 70.9447 85.6887 70.646C85.4367 70.3473 85.3107 69.9367 85.3107 69.414C85.3107 68.742 85.5673 68.196 86.0807 67.776C86.594 67.356 87.3033 67.146 88.2087 67.146Z" fill="white"/>
<path d="M127.218 17.8324L125.38 16.3544C125.237 16.2393 125.125 16.0899 125.056 15.9202C124.986 15.7505 124.96 15.5659 124.98 15.3834L125.235 13.0384C125.269 12.7271 125.233 12.4119 125.13 12.1163C125.026 11.8207 124.857 11.5522 124.635 11.3307C124.414 11.1091 124.146 10.9401 123.85 10.8362C123.554 10.7323 123.239 10.6962 122.928 10.7304L120.58 10.9824C120.398 11.0027 120.213 10.9766 120.043 10.9067C119.874 10.8368 119.724 10.7253 119.609 10.5824L118.131 8.74544C117.928 8.51148 117.678 8.32382 117.397 8.19519C117.115 8.06657 116.809 8 116.5 8C116.191 8 115.885 8.06657 115.603 8.19519C115.322 8.32382 115.071 8.51148 114.869 8.74544L113.391 10.5824C113.276 10.7258 113.127 10.8377 112.957 10.9076C112.787 10.9776 112.602 11.0033 112.42 10.9824L110.075 10.7304C109.764 10.6961 109.448 10.7321 109.153 10.8358C108.857 10.9396 108.589 11.1085 108.367 11.3299C108.146 11.5514 107.977 11.8198 107.873 12.1154C107.769 12.4109 107.733 12.726 107.767 13.0374L108.022 15.3824C108.043 15.5649 108.017 15.7497 107.947 15.9195C107.877 16.0893 107.765 16.2386 107.622 16.3534L105.782 17.8324C105.538 18.0285 105.341 18.2768 105.206 18.5591C105.07 18.8414 105 19.1504 105 19.4634C105 19.7765 105.07 20.0855 105.206 20.3678C105.341 20.6501 105.538 20.8984 105.782 21.0944L107.62 22.5724C107.763 22.6874 107.875 22.8367 107.945 23.0065C108.015 23.1763 108.041 23.361 108.02 23.5434L107.765 25.8884C107.731 26.1998 107.767 26.515 107.87 26.8106C107.974 27.1062 108.143 27.3747 108.364 27.5962C108.586 27.8178 108.854 27.9868 109.15 28.0907C109.445 28.1945 109.761 28.2307 110.072 28.1964L112.418 27.9414C112.6 27.9211 112.785 27.9471 112.955 28.0171C113.124 28.087 113.274 28.1985 113.389 28.3414L114.869 30.1824C115.065 30.4265 115.313 30.6235 115.596 30.7588C115.878 30.8941 116.187 30.9644 116.5 30.9644C116.813 30.9644 117.122 30.8941 117.404 30.7588C117.687 30.6235 117.935 30.4265 118.131 30.1824L119.609 28.3444C119.724 28.2016 119.874 28.0901 120.043 28.0202C120.213 27.9503 120.398 27.9242 120.58 27.9444L122.925 28.1994C123.236 28.2338 123.551 28.1978 123.847 28.0941C124.143 27.9903 124.411 27.8214 124.633 27.6C124.854 27.3785 125.023 27.1101 125.127 26.8145C125.231 26.519 125.267 26.2038 125.233 25.8924L124.978 23.5464C124.957 23.364 124.983 23.1792 125.053 23.0094C125.123 22.8396 125.235 22.6903 125.378 22.5754L127.216 21.0974C127.46 20.9014 127.657 20.6531 127.792 20.3708C127.928 20.0885 127.998 19.7795 127.998 19.4664C127.998 19.1534 127.928 18.8444 127.792 18.5621C127.657 18.2798 127.46 18.0315 127.216 17.8354L127.218 17.8324ZM116.9 22.5304C116.746 22.7305 116.552 22.8958 116.33 23.0153C116.108 23.1349 115.863 23.2059 115.611 23.2239C115.359 23.2418 115.107 23.2063 114.87 23.1195C114.633 23.0327 114.417 22.8967 114.237 22.7204L111.793 20.2824C111.697 20.1902 111.621 20.0799 111.569 19.9578C111.516 19.8358 111.489 19.7046 111.488 19.5718C111.487 19.4391 111.512 19.3074 111.562 19.1845C111.612 19.0616 111.687 18.9499 111.781 18.856C111.874 18.7622 111.986 18.6879 112.109 18.6376C112.232 18.5873 112.364 18.562 112.496 18.5632C112.629 18.5643 112.76 18.5919 112.882 18.6443C113.004 18.6968 113.115 18.7729 113.207 18.8684L115.458 21.1194L119.367 15.9084C119.526 15.6963 119.763 15.556 120.026 15.5185C120.156 15.4999 120.288 15.5071 120.415 15.5397C120.542 15.5723 120.662 15.6297 120.767 15.7084C120.872 15.7872 120.96 15.886 121.027 15.999C121.094 16.112 121.138 16.237 121.157 16.367C121.175 16.497 121.168 16.6294 121.136 16.7566C121.103 16.8838 121.046 17.0034 120.967 17.1084L116.9 22.5304Z" fill="white"/>
<g clip-path="url(#clip0)">
<path d="M76.6667 47.7533C76.6668 47.8218 76.6879 47.8886 76.7273 47.9447C76.7666 48.0008 76.8223 48.0434 76.8867 48.0666C78.2989 48.5573 79.6289 49.2581 80.8321 50.1453C80.9913 50.2688 81.1197 50.4277 81.2069 50.6093C81.2941 50.791 81.3379 50.9905 81.3347 51.192V54.6666C81.3347 55.0203 81.4752 55.3594 81.7253 55.6095C81.9753 55.8595 82.3145 56 82.6681 56C83.0217 56 83.3608 55.8595 83.6109 55.6095C83.8609 55.3594 84.0014 55.0203 84.0014 54.6666V51.192C84.0062 50.5801 83.8684 49.9755 83.599 49.4261C83.3297 48.8767 82.9361 48.3976 82.4494 48.0266C80.9405 46.9106 79.2635 46.0419 77.4814 45.4533C77.433 45.4369 77.3814 45.4315 77.3306 45.4378C77.2798 45.444 77.2311 45.4616 77.1881 45.4893C77.0707 45.568 76.9547 45.6466 76.8307 45.7186C76.7808 45.7483 76.7394 45.7904 76.7106 45.8409C76.6818 45.8914 76.6667 45.9485 76.6667 46.0066V47.7533Z" fill="white"/>
<path d="M52.0002 54.6667C52.0002 55.0203 52.1406 55.3594 52.3907 55.6095C52.6407 55.8595 52.9799 56 53.3335 56C53.6871 56 54.0263 55.8595 54.2763 55.6095C54.5264 55.3594 54.6668 55.0203 54.6668 54.6667V51.192C54.6637 50.9905 54.7074 50.791 54.7947 50.6094C54.8819 50.4277 55.0102 50.2688 55.1695 50.1453C56.3718 49.2575 57.7015 48.5567 59.1135 48.0667C59.1779 48.0434 59.2336 48.0008 59.273 47.9447C59.3123 47.8887 59.3335 47.8218 59.3335 47.7533V46C59.3334 45.9418 59.3181 45.8846 59.2891 45.8341C59.2601 45.7835 59.2184 45.7415 59.1682 45.712C59.0455 45.64 58.9295 45.5613 58.8122 45.484C58.7694 45.4557 58.7207 45.4377 58.6697 45.4314C58.6188 45.4252 58.5672 45.4309 58.5188 45.448C56.7368 46.0369 55.0599 46.9055 53.5508 48.0213C53.0639 48.3931 52.6702 48.8732 52.401 49.4235C52.1319 49.9739 51.9946 50.5794 52.0002 51.192V54.6667Z" fill="white"/>
<path d="M59.1774 41.7413C59.0488 41.7399 58.9226 41.7756 58.814 41.8442C58.7053 41.9128 58.6187 42.0114 58.5648 42.1281C58.5108 42.2447 58.4917 42.3745 58.5098 42.5018C58.5279 42.629 58.5824 42.7483 58.6667 42.8453C59.389 43.6211 60.312 44.1818 61.3334 44.4653V44.4653V48.6667C61.3333 49.1902 61.5385 49.693 61.9049 50.0669C62.2714 50.4409 62.7699 50.6562 63.2934 50.6667C63.3039 50.667 63.3139 50.6713 63.3213 50.6788C63.3287 50.6862 63.333 50.6962 63.3334 50.7067C63.3438 51.2301 63.5592 51.7286 63.9331 52.0951C64.3071 52.4616 64.8098 52.6668 65.3334 52.6667C65.4214 52.6649 65.5089 52.6809 65.5906 52.7137C65.6723 52.7466 65.7465 52.7956 65.8088 52.8579C65.8711 52.9202 65.9201 52.9944 65.953 53.0761C65.9859 53.1578 66.0019 53.2453 66 53.3333C66 53.8638 66.2108 54.3725 66.5858 54.7475C66.9609 55.1226 67.4696 55.3333 68 55.3333C68.5305 55.3333 69.0392 55.1226 69.4143 54.7475C69.7893 54.3725 70 53.8638 70 53.3333C69.9982 53.2453 70.0142 53.1578 70.0471 53.0761C70.0799 52.9944 70.129 52.9202 70.1913 52.8579C70.2535 52.7956 70.3277 52.7466 70.4094 52.7137C70.4912 52.6809 70.5787 52.6649 70.6667 52.6667C71.1903 52.6668 71.693 52.4616 72.067 52.0951C72.4409 51.7286 72.6562 51.2301 72.6667 50.7067C72.667 50.6962 72.6714 50.6862 72.6788 50.6788C72.6862 50.6713 72.6962 50.667 72.7067 50.6667C73.2302 50.6562 73.7287 50.4409 74.0951 50.0669C74.4616 49.693 74.6668 49.1902 74.6667 48.6667V44.4653C75.6881 44.1818 76.611 43.6211 77.3334 42.8453C77.4176 42.7484 77.4721 42.6292 77.4902 42.5021C77.5083 42.375 77.4894 42.2453 77.4356 42.1287C77.3818 42.0121 77.2954 41.9135 77.187 41.8448C77.0785 41.7761 76.9524 41.7401 76.824 41.7413C76.5449 41.7446 76.2658 41.7321 75.988 41.704C75.9309 41.6979 75.8764 41.6771 75.8296 41.6437C75.7829 41.6103 75.7456 41.5654 75.7214 41.5133C75.6969 41.4613 75.6865 41.4038 75.6912 41.3464C75.6959 41.2891 75.7155 41.2341 75.748 41.1867C76.7823 39.6547 77.3344 37.8484 77.3334 36V33.3333C77.3334 30.858 76.35 28.484 74.5997 26.7337C72.8494 24.9833 70.4754 24 68 24C65.5247 24 63.1507 24.9833 61.4004 26.7337C59.65 28.484 58.6667 30.858 58.6667 33.3333V36C58.6655 37.8488 59.2187 39.6554 60.2547 41.1867C60.2873 41.2341 60.3069 41.2891 60.3116 41.3464C60.3162 41.4038 60.3058 41.4613 60.2814 41.5133C60.2571 41.5654 60.2198 41.6103 60.1731 41.6437C60.1264 41.6771 60.0718 41.6979 60.0147 41.704C59.7365 41.7322 59.457 41.7447 59.1774 41.7413V41.7413ZM61.3334 34.732C61.3333 34.6453 61.3672 34.5621 61.4278 34.5C61.4883 34.438 61.5707 34.4021 61.6574 34.4C63.9632 34.4431 66.2031 33.6298 67.944 32.1173C67.9593 32.1033 67.9793 32.0955 68 32.0955C68.0208 32.0955 68.0408 32.1033 68.056 32.1173C69.797 33.6298 72.0369 34.4431 74.3427 34.4C74.4294 34.4028 74.5116 34.4391 74.572 34.5012C74.6325 34.5634 74.6664 34.6466 74.6667 34.7333V36C74.6659 36.8695 74.4938 37.7304 74.16 38.5333C73.9411 39.0552 73.6532 39.5453 73.304 39.9907C73.274 40.0306 73.2354 40.0633 73.1912 40.0864C73.1469 40.1094 73.098 40.1223 73.048 40.124C72.9977 40.1254 72.9476 40.1156 72.9015 40.0953C72.8554 40.0751 72.8143 40.0448 72.7814 40.0067C72.5008 39.5122 72.0974 39.0984 71.6102 38.8052C71.1229 38.5121 70.5684 38.3496 70 38.3333C69.3438 38.3322 68.7106 38.5745 68.2227 39.0133C68.1614 39.068 68.0822 39.0982 68 39.0982C67.9179 39.0982 67.8387 39.068 67.7774 39.0133C67.2893 38.5749 66.6561 38.3327 66 38.3333C65.4316 38.3482 64.8767 38.5094 64.3888 38.8014C63.9009 39.0933 63.4965 39.5062 63.2147 40C63.1825 40.0379 63.1422 40.0681 63.0967 40.0884C63.0513 40.1087 63.0019 40.1186 62.9522 40.1173C62.9024 40.116 62.8536 40.1036 62.8093 40.081C62.765 40.0584 62.7263 40.0262 62.696 39.9867C62.3472 39.5426 62.0593 39.0538 61.84 38.5333C61.5063 37.7304 61.3341 36.8695 61.3334 36V34.732ZM70.3027 41.0867C70.3577 41.3021 70.3392 41.5297 70.2504 41.7335C70.1615 41.9373 70.0073 42.1057 69.812 42.212C69.6286 42.3112 69.4356 42.3916 69.236 42.452C68.8706 42.5618 68.491 42.6171 68.1094 42.616C67.7236 42.6282 67.3387 42.5727 66.972 42.452C66.7727 42.3915 66.5798 42.3115 66.396 42.2133C66.2001 42.1076 66.045 41.9394 65.9555 41.7356C65.8659 41.5317 65.8469 41.3038 65.9016 41.0879C65.9563 40.872 66.0814 40.6806 66.2572 40.5439C66.433 40.4072 66.6494 40.3331 66.872 40.3333H69.3334C69.5556 40.3335 69.7715 40.4076 69.947 40.544C70.1225 40.6804 70.2477 40.8713 70.3027 41.0867V41.0867Z" fill="white"/>
<path d="M70.6666 37.6667C70.9517 37.6644 71.2284 37.5698 71.4551 37.3969C71.6818 37.2241 71.8463 36.9823 71.9239 36.708C71.9676 36.5875 71.9932 36.4613 71.9999 36.3333C71.9999 35.9797 71.8594 35.6406 71.6094 35.3905C71.3593 35.1405 71.0202 35 70.6666 35C70.313 35 69.9738 35.1405 69.7238 35.3905C69.4737 35.6406 69.3333 35.9797 69.3333 36.3333C69.3333 36.36 69.3466 36.3813 69.3479 36.4067C69.3646 36.7456 69.5107 37.0652 69.756 37.2996C70.0014 37.534 70.3273 37.6654 70.6666 37.6667Z" fill="white"/>
<path d="M65.3333 37.6667C65.6726 37.6654 65.9985 37.534 66.2439 37.2996C66.4892 37.0652 66.6353 36.7456 66.652 36.4067C66.652 36.3813 66.6667 36.36 66.6667 36.3333C66.6667 35.9797 66.5262 35.6406 66.2761 35.3905C66.0261 35.1405 65.687 35 65.3333 35C64.9797 35 64.6406 35.1405 64.3905 35.3905C64.1405 35.6406 64 35.9797 64 36.3333C64.0067 36.4613 64.0323 36.5875 64.076 36.708C64.1536 36.9823 64.3181 37.2241 64.5448 37.3969C64.7716 37.5698 65.0482 37.6644 65.3333 37.6667V37.6667Z" fill="white"/>
</g>
<defs>
<clipPath id="clip0">
<rect width="32" height="32" fill="white" transform="translate(52 24)"/>
</clipPath>
</defs>
</svg>
