<svg width="136" height="96" viewBox="0 0 136 96" fill="none" xmlns="http://www.w3.org/2000/svg">
<rect x="0.5" y="0.5" width="135" height="95" rx="2.5" fill="#79C792" stroke="#79C792"/>
<path d="M32.966 74H34.926V64.228H32.966V74ZM42.2945 74H44.2545V69.45C44.2545 67.308 42.9665 66.132 41.1605 66.132C40.1665 66.132 39.3265 66.552 38.8225 67.21V66.244H36.8625V74H38.8225V69.716C38.8225 68.47 39.5085 67.798 40.5725 67.798C41.6085 67.798 42.2945 68.47 42.2945 69.716V74ZM45.6143 70.094C45.6143 72.516 47.1823 74.126 49.1563 74.126C50.3743 74.126 51.2423 73.566 51.7043 72.852V74H53.6923V63.64H51.7043V67.322C51.1723 66.594 50.1923 66.118 49.1703 66.118C47.1823 66.118 45.6143 67.672 45.6143 70.094ZM51.7183 70.122C51.7183 71.592 50.7383 72.404 49.6603 72.404C48.6103 72.404 47.6163 71.564 47.6163 70.094C47.6163 68.624 48.6103 67.84 49.6603 67.84C50.7383 67.84 51.7183 68.652 51.7183 70.122ZM55.6066 74H57.5666V66.244H55.6066V74ZM56.6006 65.32C57.2866 65.32 57.8046 64.816 57.8046 64.172C57.8046 63.528 57.2866 63.024 56.6006 63.024C55.9006 63.024 55.3966 63.528 55.3966 64.172C55.3966 64.816 55.9006 65.32 56.6006 65.32ZM58.6771 66.244L61.5331 74H63.9131L66.7831 66.244H64.6971L62.7371 72.194L60.7771 66.244H58.6771ZM67.884 74H69.844V66.244H67.884V74ZM68.878 65.32C69.564 65.32 70.082 64.816 70.082 64.172C70.082 63.528 69.564 63.024 68.878 63.024C68.178 63.024 67.674 63.528 67.674 64.172C67.674 64.816 68.178 65.32 68.878 65.32ZM71.2765 70.094C71.2765 72.516 72.8445 74.126 74.8185 74.126C76.0365 74.126 76.9045 73.566 77.3665 72.852V74H79.3545V63.64H77.3665V67.322C76.8345 66.594 75.8545 66.118 74.8325 66.118C72.8445 66.118 71.2765 67.672 71.2765 70.094ZM77.3805 70.122C77.3805 71.592 76.4005 72.404 75.3225 72.404C74.2725 72.404 73.2785 71.564 73.2785 70.094C73.2785 68.624 74.2725 67.84 75.3225 67.84C76.4005 67.84 77.3805 68.652 77.3805 70.122ZM88.5907 66.244H86.6167V70.514C86.6167 71.76 85.9447 72.432 84.8807 72.432C83.8447 72.432 83.1587 71.76 83.1587 70.514V66.244H81.1987V70.794C81.1987 72.922 82.5007 74.098 84.3067 74.098C85.2727 74.098 86.1267 73.678 86.6167 73.02V74H88.5907V66.244ZM93.8566 67.728C94.8646 67.728 95.6766 68.372 95.7046 69.394H92.0226C92.1766 68.33 92.9186 67.728 93.8566 67.728ZM97.5386 71.564H95.4246C95.1726 72.082 94.7106 72.502 93.8706 72.502C92.8906 72.502 92.1066 71.858 92.0086 70.71H97.6786C97.7206 70.458 97.7346 70.206 97.7346 69.954C97.7346 67.644 96.1526 66.118 93.9126 66.118C91.6166 66.118 90.0206 67.672 90.0206 70.122C90.0206 72.558 91.6586 74.126 93.9126 74.126C95.8306 74.126 97.1186 72.992 97.5386 71.564ZM99.1652 74H101.125V63.64H99.1652V74Z" fill="white"/>
<path d="M68 35.3334C66.0557 35.3355 64.1917 36.1088 62.8168 37.4836C61.442 38.8584 60.6687 40.7224 60.6666 42.6667V47.3334C60.6666 47.5102 60.7369 47.6798 60.8619 47.8048C60.9869 47.9298 61.1565 48 61.3333 48H63.7466C63.8302 48.0001 63.9106 48.0315 63.9721 48.088C64.0336 48.1446 64.0716 48.2221 64.0786 48.3054L64.6666 55.3894C64.6807 55.5563 64.7571 55.7118 64.8806 55.825C65.0042 55.9381 65.1658 56.0006 65.3333 56H70.6666C70.8341 56.0006 70.9958 55.9381 71.1193 55.825C71.2428 55.7118 71.3192 55.5563 71.3333 55.3894L71.924 48.3054C71.9309 48.2226 71.9686 48.1454 72.0295 48.0889C72.0904 48.0324 72.1702 48.0007 72.2533 48H74.6666C74.8434 48 75.013 47.9298 75.138 47.8048C75.2631 47.6798 75.3333 47.5102 75.3333 47.3334V42.6667C75.3312 40.7224 74.5579 38.8584 73.1831 37.4836C71.8083 36.1088 69.9442 35.3355 68 35.3334V35.3334Z" fill="white"/>
<path d="M68 33.3333C70.5774 33.3333 72.6667 31.244 72.6667 28.6667C72.6667 26.0893 70.5774 24 68 24C65.4227 24 63.3334 26.0893 63.3334 28.6667C63.3334 31.244 65.4227 33.3333 68 33.3333Z" fill="white"/>
<path d="M68 35.3334C66.0557 35.3355 64.1917 36.1088 62.8168 37.4836C61.442 38.8584 60.6687 40.7224 60.6666 42.6667V47.3334C60.6666 47.5102 60.7369 47.6798 60.8619 47.8048C60.9869 47.9298 61.1565 48 61.3333 48H63.7466C63.8302 48.0001 63.9106 48.0315 63.9721 48.088C64.0336 48.1446 64.0716 48.2221 64.0786 48.3054L64.6666 55.3894C64.6807 55.5563 64.7571 55.7118 64.8806 55.825C65.0042 55.9381 65.1658 56.0006 65.3333 56H70.6666C70.8341 56.0006 70.9958 55.9381 71.1193 55.825C71.2428 55.7118 71.3192 55.5563 71.3333 55.3894L71.924 48.3054C71.9309 48.2226 71.9686 48.1454 72.0295 48.0889C72.0904 48.0324 72.1702 48.0007 72.2533 48H74.6666C74.8434 48 75.013 47.9298 75.138 47.8048C75.2631 47.6798 75.3333 47.5102 75.3333 47.3334V42.6667C75.3312 40.7224 74.5579 38.8584 73.1831 37.4836C71.8083 36.1088 69.9442 35.3355 68 35.3334V35.3334Z" fill="white"/>
<path d="M68 33.3333C70.5774 33.3333 72.6667 31.244 72.6667 28.6667C72.6667 26.0893 70.5774 24 68 24C65.4227 24 63.3334 26.0893 63.3334 28.6667C63.3334 31.244 65.4227 33.3333 68 33.3333Z" fill="white"/>
<path d="M124.718 18.35L122.88 16.872C122.737 16.7568 122.626 16.6075 122.556 16.4378C122.486 16.268 122.46 16.0834 122.48 15.901L122.735 13.556C122.769 13.2446 122.733 12.9295 122.63 12.6339C122.526 12.3383 122.357 12.0698 122.136 11.8482C121.914 11.6267 121.646 11.4577 121.35 11.3538C121.055 11.2499 120.739 11.2138 120.428 11.248L118.08 11.5C117.898 11.5202 117.713 11.4942 117.543 11.4243C117.374 11.3544 117.224 11.2429 117.109 11.1L115.631 9.26302C115.429 9.02906 115.178 8.84139 114.897 8.71277C114.615 8.58415 114.309 8.51758 114 8.51758C113.691 8.51758 113.385 8.58415 113.103 8.71277C112.822 8.84139 112.572 9.02906 112.369 9.26302L110.891 11.1C110.776 11.2434 110.627 11.3552 110.457 11.4252C110.287 11.4951 110.103 11.5209 109.92 11.5L107.575 11.248C107.264 11.2136 106.949 11.2497 106.653 11.3534C106.357 11.4572 106.089 11.626 105.867 11.8475C105.646 12.069 105.477 12.3374 105.373 12.633C105.269 12.9285 105.233 13.2436 105.267 13.555L105.522 15.9C105.543 16.0825 105.517 16.2672 105.447 16.437C105.377 16.6068 105.265 16.7561 105.122 16.871L103.282 18.35C103.038 18.5461 102.841 18.7944 102.706 19.0766C102.57 19.3589 102.5 19.668 102.5 19.981C102.5 20.2941 102.57 20.6031 102.706 20.8854C102.841 21.1677 103.038 21.416 103.282 21.612L105.12 23.09C105.263 23.205 105.375 23.3543 105.445 23.5241C105.515 23.6938 105.541 23.8786 105.52 24.061L105.265 26.406C105.231 26.7174 105.267 27.0325 105.37 27.3281C105.474 27.6237 105.643 27.8922 105.865 28.1138C106.086 28.3354 106.354 28.5043 106.65 28.6082C106.946 28.7121 107.261 28.7483 107.572 28.714L109.918 28.459C110.1 28.4387 110.285 28.4647 110.455 28.5346C110.625 28.6045 110.774 28.7161 110.889 28.859L112.369 30.7C112.565 30.9441 112.813 31.141 113.096 31.2764C113.378 31.4117 113.687 31.4819 114 31.4819C114.313 31.4819 114.622 31.4117 114.904 31.2764C115.187 31.141 115.435 30.9441 115.631 30.7L117.109 28.862C117.224 28.7192 117.374 28.6077 117.543 28.5378C117.713 28.4679 117.898 28.4418 118.08 28.462L120.425 28.717C120.736 28.7514 121.052 28.7154 121.347 28.6116C121.643 28.5079 121.911 28.339 122.133 28.1175C122.354 27.8961 122.523 27.6276 122.627 27.3321C122.731 27.0365 122.767 26.7214 122.733 26.41L122.478 24.064C122.457 23.8816 122.483 23.6968 122.553 23.527C122.623 23.3571 122.735 23.2078 122.878 23.093L124.716 21.615C124.96 21.419 125.157 21.1707 125.292 20.8884C125.428 20.6061 125.498 20.2971 125.498 19.984C125.498 19.671 125.428 19.3619 125.292 19.0796C125.157 18.7974 124.96 18.5491 124.716 18.353L124.718 18.35ZM114.4 23.048C114.246 23.2481 114.052 23.4134 113.83 23.5329C113.608 23.6524 113.363 23.7235 113.111 23.7415C112.86 23.7594 112.607 23.7238 112.37 23.6371C112.133 23.5503 111.918 23.4143 111.737 23.238L109.293 20.8C109.198 20.7078 109.121 20.5974 109.069 20.4754C109.017 20.3534 108.989 20.2222 108.988 20.0894C108.987 19.9566 109.012 19.825 109.062 19.7021C109.113 19.5792 109.187 19.4675 109.281 19.3736C109.375 19.2797 109.486 19.2055 109.609 19.1552C109.732 19.1049 109.864 19.0796 109.996 19.0808C110.129 19.0819 110.26 19.1095 110.382 19.1619C110.504 19.2143 110.615 19.2905 110.707 19.386L112.958 21.637L116.867 16.426C117.026 16.2138 117.263 16.0736 117.526 16.0361C117.656 16.0175 117.788 16.0247 117.915 16.0573C118.042 16.0899 118.162 16.1472 118.267 16.226C118.372 16.3048 118.461 16.4035 118.528 16.5165C118.594 16.6295 118.638 16.7546 118.657 16.8846C118.676 17.0146 118.668 17.147 118.636 17.2742C118.603 17.4014 118.546 17.521 118.467 17.626L114.4 23.048Z" fill="white"/>
<defs>
<clipPath id="clip0">
<rect width="32" height="32" fill="white" transform="translate(52 24)"/>
</clipPath>
</defs>
</svg>
