<svg width="136" height="105" viewBox="0 0 136 105" fill="none" xmlns="http://www.w3.org/2000/svg">
<rect x="0.5" y="0.5" width="135" height="104" rx="2.5" stroke="#E0E1DD"/>
<path d="M41.246 73.152H43.724L46.776 70.016L43.724 66.88H41.246L44.312 70.016L41.246 73.152ZM53.1413 75H55.1573V64.794H51.7833V66.6H53.1413V75ZM57.0936 69.764C57.0936 72.746 57.9896 74.972 60.8736 74.972C63.7576 74.972 64.6536 72.746 64.6536 69.764C64.6536 66.81 63.7576 64.598 60.8736 64.598C57.9896 64.598 57.0936 66.81 57.0936 69.764ZM62.7216 69.764C62.7216 71.584 62.5256 73.152 60.8736 73.152C59.2216 73.152 59.0256 71.584 59.0256 69.764C59.0256 68.014 59.2216 66.418 60.8736 66.418C62.5256 66.418 62.7216 68.014 62.7216 69.764ZM69.2003 71.094C69.2003 73.516 70.7683 75.126 72.7283 75.126C73.9603 75.126 74.8423 74.538 75.3043 73.866V75H77.2783V67.244H75.3043V68.35C74.8423 67.706 73.9883 67.118 72.7423 67.118C70.7683 67.118 69.2003 68.672 69.2003 71.094ZM75.3043 71.122C75.3043 72.592 74.3243 73.404 73.2463 73.404C72.1963 73.404 71.2023 72.564 71.2023 71.094C71.2023 69.624 72.1963 68.84 73.2463 68.84C74.3243 68.84 75.3043 69.652 75.3043 71.122ZM84.6246 75H86.5846V70.45C86.5846 68.308 85.2966 67.132 83.4906 67.132C82.4966 67.132 81.6566 67.552 81.1526 68.21V67.244H79.1926V75H81.1526V70.716C81.1526 69.47 81.8386 68.798 82.9026 68.798C83.9386 68.798 84.6246 69.47 84.6246 70.716V75ZM94.4684 72.788C94.4124 69.946 90.1144 70.828 90.1144 69.414C90.1144 68.966 90.4924 68.672 91.2204 68.672C91.9904 68.672 92.4664 69.078 92.5224 69.68H94.3984C94.2864 68.14 93.1524 67.118 91.2764 67.118C89.3584 67.118 88.2104 68.154 88.2104 69.442C88.2104 72.284 92.5924 71.402 92.5924 72.788C92.5924 73.236 92.1724 73.586 91.4024 73.586C90.6184 73.586 90.0724 73.138 90.0024 72.55H88.0284C88.1124 73.992 89.4704 75.126 91.4164 75.126C93.3064 75.126 94.4684 74.118 94.4684 72.788Z" fill="black"/>

<path d="M76.6666 47.7533C76.6667 47.8218 76.6878 47.8886 76.7272 47.9447C76.7665 48.0008 76.8222 48.0434 76.8866 48.0666C78.2987 48.5573 79.6288 49.2581 80.832 50.1453C80.9912 50.2688 81.1195 50.4277 81.2068 50.6093C81.294 50.791 81.3378 50.9905 81.3346 51.192V54.6666C81.3346 55.0203 81.4751 55.3594 81.7251 55.6095C81.9752 55.8595 82.3143 56 82.668 56C83.0216 56 83.3607 55.8595 83.6108 55.6095C83.8608 55.3594 84.0013 55.0203 84.0013 54.6666V51.192C84.0061 50.5801 83.8683 49.9755 83.5989 49.4261C83.3295 48.8767 82.9359 48.3976 82.4493 48.0266C80.9404 46.9106 79.2634 46.0419 77.4813 45.4533C77.4328 45.4369 77.3813 45.4315 77.3305 45.4378C77.2797 45.444 77.231 45.4616 77.188 45.4893C77.0706 45.568 76.9546 45.6466 76.8306 45.7186C76.7806 45.7483 76.7392 45.7904 76.7105 45.8409C76.6817 45.8914 76.6666 45.9485 76.6666 46.0066V47.7533Z" fill="#F8B816"/>
<path d="M52 54.6667C52 55.0203 52.1405 55.3594 52.3906 55.6095C52.6406 55.8595 52.9798 56 53.3334 56C53.687 56 54.0261 55.8595 54.2762 55.6095C54.5262 55.3594 54.6667 55.0203 54.6667 54.6667V51.192C54.6635 50.9905 54.7073 50.791 54.7946 50.6094C54.8818 50.4277 55.0101 50.2688 55.1694 50.1453C56.3717 49.2575 57.7014 48.5567 59.1134 48.0667C59.1778 48.0434 59.2335 48.0008 59.2728 47.9447C59.3122 47.8887 59.3333 47.8218 59.3334 47.7533V46C59.3333 45.9418 59.3179 45.8846 59.2889 45.8341C59.26 45.7835 59.2183 45.7415 59.168 45.712C59.0454 45.64 58.9294 45.5613 58.812 45.484C58.7693 45.4557 58.7205 45.4377 58.6696 45.4314C58.6187 45.4252 58.567 45.4309 58.5187 45.448C56.7367 46.0369 55.0598 46.9055 53.5507 48.0213C53.0637 48.3931 52.6701 48.8732 52.4009 49.4235C52.1317 49.9739 51.9945 50.5794 52 51.192V54.6667Z" fill="#F8B816"/>
<path d="M59.1774 41.7413C59.0488 41.7399 58.9226 41.7756 58.814 41.8442C58.7053 41.9128 58.6187 42.0114 58.5648 42.1281C58.5108 42.2447 58.4917 42.3745 58.5098 42.5018C58.5279 42.629 58.5824 42.7483 58.6667 42.8453C59.389 43.6211 60.312 44.1818 61.3334 44.4653V48.6667C61.3333 49.1902 61.5385 49.693 61.9049 50.0669C62.2714 50.4409 62.7699 50.6562 63.2934 50.6667C63.3039 50.667 63.3139 50.6713 63.3213 50.6788C63.3287 50.6862 63.333 50.6962 63.3334 50.7067C63.3438 51.2301 63.5592 51.7286 63.9331 52.0951C64.3071 52.4616 64.8098 52.6668 65.3334 52.6667C65.4214 52.6649 65.5089 52.6809 65.5906 52.7137C65.6723 52.7466 65.7465 52.7956 65.8088 52.8579C65.8711 52.9202 65.9201 52.9944 65.953 53.0761C65.9859 53.1578 66.0019 53.2453 66 53.3333C66 53.8638 66.2108 54.3725 66.5858 54.7475C66.9609 55.1226 67.4696 55.3333 68 55.3333C68.5305 55.3333 69.0392 55.1226 69.4143 54.7475C69.7893 54.3725 70 53.8638 70 53.3333C69.9982 53.2453 70.0142 53.1578 70.0471 53.0761C70.0799 52.9944 70.129 52.9202 70.1913 52.8579C70.2535 52.7956 70.3277 52.7466 70.4094 52.7137C70.4912 52.6809 70.5787 52.6649 70.6667 52.6667C71.1903 52.6668 71.693 52.4616 72.067 52.0951C72.4409 51.7286 72.6562 51.2301 72.6667 50.7067C72.667 50.6962 72.6714 50.6862 72.6788 50.6788C72.6862 50.6713 72.6962 50.667 72.7067 50.6667C73.2302 50.6562 73.7287 50.4409 74.0951 50.0669C74.4616 49.693 74.6668 49.1902 74.6667 48.6667V44.4653C75.6881 44.1818 76.611 43.6211 77.3334 42.8453C77.4176 42.7484 77.4721 42.6292 77.4902 42.5021C77.5083 42.375 77.4894 42.2453 77.4356 42.1287C77.3818 42.0121 77.2954 41.9135 77.187 41.8448C77.0785 41.7761 76.9524 41.7401 76.824 41.7413C76.5449 41.7446 76.2658 41.7321 75.988 41.704C75.9309 41.6979 75.8764 41.6771 75.8296 41.6437C75.7829 41.6103 75.7456 41.5654 75.7214 41.5133C75.6969 41.4613 75.6865 41.4038 75.6912 41.3464C75.6959 41.2891 75.7155 41.2341 75.748 41.1867C76.7823 39.6547 77.3344 37.8484 77.3334 36V33.3333C77.3334 30.858 76.35 28.484 74.5997 26.7337C72.8494 24.9833 70.4754 24 68 24C65.5247 24 63.1507 24.9833 61.4004 26.7337C59.65 28.484 58.6667 30.858 58.6667 33.3333V36C58.6655 37.8488 59.2187 39.6554 60.2547 41.1867C60.2873 41.2341 60.3069 41.2891 60.3116 41.3464C60.3162 41.4038 60.3058 41.4613 60.2814 41.5133C60.2571 41.5654 60.2198 41.6103 60.1731 41.6437C60.1264 41.6771 60.0718 41.6979 60.0147 41.704C59.7365 41.7322 59.457 41.7447 59.1774 41.7413ZM61.3334 34.732C61.3333 34.6453 61.3672 34.5621 61.4278 34.5C61.4883 34.438 61.5707 34.4021 61.6574 34.4C63.9632 34.4431 66.2031 33.6298 67.944 32.1173C67.9593 32.1033 67.9793 32.0955 68 32.0955C68.0208 32.0955 68.0408 32.1033 68.056 32.1173C69.797 33.6298 72.0369 34.4431 74.3427 34.4C74.4294 34.4028 74.5116 34.4391 74.572 34.5012C74.6325 34.5634 74.6664 34.6466 74.6667 34.7333V36C74.6659 36.8695 74.4938 37.7304 74.16 38.5333C73.9411 39.0552 73.6532 39.5453 73.304 39.9907C73.274 40.0306 73.2354 40.0633 73.1912 40.0864C73.1469 40.1094 73.098 40.1223 73.048 40.124C72.9977 40.1254 72.9476 40.1156 72.9015 40.0953C72.8554 40.0751 72.8143 40.0448 72.7814 40.0067C72.5008 39.5122 72.0974 39.0984 71.6102 38.8052C71.1229 38.5121 70.5684 38.3496 70 38.3333C69.3438 38.3322 68.7106 38.5745 68.2227 39.0133C68.1614 39.068 68.0822 39.0982 68 39.0982C67.9179 39.0982 67.8387 39.068 67.7774 39.0133C67.2893 38.5749 66.6561 38.3327 66 38.3333C65.4316 38.3482 64.8767 38.5094 64.3888 38.8014C63.9009 39.0933 63.4965 39.5062 63.2147 40C63.1825 40.0379 63.1422 40.0681 63.0967 40.0884C63.0513 40.1087 63.0019 40.1186 62.9522 40.1173C62.9024 40.116 62.8536 40.1036 62.8093 40.081C62.765 40.0584 62.7263 40.0262 62.696 39.9867C62.3472 39.5426 62.0593 39.0538 61.84 38.5333C61.5063 37.7304 61.3341 36.8695 61.3334 36V34.732ZM70.3027 41.0867C70.3577 41.3021 70.3392 41.5297 70.2504 41.7335C70.1615 41.9373 70.0073 42.1057 69.812 42.212C69.6286 42.3112 69.4356 42.3916 69.236 42.452C68.8706 42.5618 68.491 42.6171 68.1094 42.616C67.7236 42.6282 67.3387 42.5727 66.972 42.452C66.7727 42.3915 66.5798 42.3116 66.396 42.2133C66.2001 42.1076 66.045 41.9394 65.9555 41.7356C65.8659 41.5317 65.8469 41.3038 65.9016 41.0879C65.9563 40.872 66.0814 40.6806 66.2572 40.5439C66.433 40.4072 66.6494 40.3331 66.872 40.3333H69.3334C69.5556 40.3335 69.7715 40.4076 69.947 40.544C70.1225 40.6804 70.2477 40.8713 70.3027 41.0867Z" fill="#F8B816"/>
<path d="M70.6667 37.6667C70.9518 37.6644 71.2285 37.5698 71.4552 37.3969C71.6819 37.2241 71.8464 36.9823 71.924 36.708C71.9677 36.5875 71.9933 36.4613 72 36.3333C72 35.9797 71.8596 35.6406 71.6095 35.3905C71.3595 35.1405 71.0203 35 70.6667 35C70.3131 35 69.9739 35.1405 69.7239 35.3905C69.4739 35.6406 69.3334 35.9797 69.3334 36.3333C69.3334 36.36 69.3467 36.3813 69.348 36.4067C69.3648 36.7456 69.5108 37.0652 69.7562 37.2996C70.0015 37.534 70.3274 37.6654 70.6667 37.6667Z" fill="#F8B816"/>
<path d="M65.3333 37.6667C65.6726 37.6654 65.9985 37.534 66.2439 37.2996C66.4892 37.0652 66.6353 36.7456 66.652 36.4067C66.652 36.3813 66.6667 36.36 66.6667 36.3333C66.6667 35.9797 66.5262 35.6406 66.2761 35.3905C66.0261 35.1405 65.687 35 65.3333 35C64.9797 35 64.6406 35.1405 64.3905 35.3905C64.1405 35.6406 64 35.9797 64 36.3333C64.0067 36.4613 64.0323 36.5875 64.076 36.708C64.1536 36.9823 64.3181 37.2241 64.5448 37.3969C64.7716 37.5698 65.0482 37.6644 65.3333 37.6667Z" fill="#F8B816"/>

<defs>
<clipPath id="clip0">
<rect width="32" height="32" fill="white" transform="translate(52 24)"/>
</clipPath>
</defs>
</svg>
