<svg width="136" height="105" viewBox="0 0 136 105" fill="none" xmlns="http://www.w3.org/2000/svg">
<rect width="136" height="105" rx="3" fill="#79C792"/>
<path d="M46.444 73.152L43.392 70.016L46.444 66.866H48.922L45.856 70.016L48.922 73.152H46.444ZM52.8832 73.446C56.0472 71.2527 57.6292 69.4327 57.6292 67.986C57.6292 67.5473 57.5219 67.202 57.3072 66.95C57.1019 66.698 56.7752 66.572 56.3272 66.572C55.4032 66.572 54.9132 67.202 54.8572 68.462H52.9392C52.9952 67.2953 53.3499 66.4133 54.0032 65.816C54.6566 65.2093 55.4826 64.906 56.4812 64.906C57.4986 64.906 58.2779 65.172 58.8192 65.704C59.3699 66.2267 59.6452 66.9267 59.6452 67.804C59.6452 68.4947 59.4399 69.19 59.0292 69.89C58.6279 70.5807 58.1146 71.22 57.4892 71.808C56.8639 72.3867 56.2059 72.886 55.5152 73.306H59.8412V74.916H52.8832V73.446ZM67.2778 67.146C67.9311 67.146 68.4911 67.3 68.9578 67.608C69.4244 67.916 69.7558 68.3313 69.9518 68.854V67.244H71.9118V75H69.9518V73.376C69.7558 73.8987 69.4244 74.3187 68.9578 74.636C68.4911 74.944 67.9311 75.098 67.2778 75.098C66.6244 75.098 66.0364 74.9393 65.5138 74.622C64.9911 74.3047 64.5804 73.8473 64.2818 73.25C63.9924 72.6433 63.8478 71.934 63.8478 71.122C63.8478 70.31 63.9924 69.6053 64.2818 69.008C64.5804 68.4013 64.9911 67.9393 65.5138 67.622C66.0364 67.3047 66.6244 67.146 67.2778 67.146ZM67.8938 68.868C67.2778 68.868 66.7831 69.0687 66.4098 69.47C66.0364 69.8713 65.8498 70.422 65.8498 71.122C65.8498 71.822 66.0364 72.3727 66.4098 72.774C66.7831 73.166 67.2778 73.362 67.8938 73.362C68.4911 73.362 68.9811 73.1613 69.3638 72.76C69.7558 72.3493 69.9518 71.8033 69.9518 71.122C69.9518 70.4313 69.7558 69.8853 69.3638 69.484C68.9811 69.0733 68.4911 68.868 67.8938 68.868ZM78.3207 67.132C79.2167 67.132 79.9307 67.426 80.4627 68.014C80.9947 68.602 81.2607 69.428 81.2607 70.492V75H79.3007V70.716C79.3007 70.1 79.142 69.624 78.8247 69.288C78.5074 68.9427 78.0734 68.77 77.5227 68.77C76.9627 68.77 76.5147 68.952 76.1787 69.316C75.8427 69.68 75.6747 70.2027 75.6747 70.884V75H73.7007V67.244H75.6747V68.798C75.88 68.2753 76.216 67.8693 76.6827 67.58C77.1587 67.2813 77.7047 67.132 78.3207 67.132ZM85.6716 67.146C86.6142 67.146 87.3702 67.384 87.9396 67.86C88.5089 68.336 88.8636 68.9707 89.0036 69.764H87.1556C87.0809 69.3907 86.9129 69.092 86.6516 68.868C86.3902 68.644 86.0496 68.532 85.6296 68.532C85.2936 68.532 85.0322 68.6113 84.8456 68.77C84.6589 68.9287 84.5656 69.1433 84.5656 69.414C84.5656 69.6287 84.6402 69.8013 84.7896 69.932C84.9389 70.0627 85.1256 70.1653 85.3496 70.24C85.5736 70.3147 85.8956 70.4033 86.3156 70.506C86.9036 70.6367 87.3796 70.7767 87.7436 70.926C88.1169 71.066 88.4342 71.2947 88.6956 71.612C88.9662 71.92 89.1016 72.34 89.1016 72.872C89.1016 73.5347 88.8402 74.0713 88.3176 74.482C87.8042 74.8927 87.1089 75.098 86.2316 75.098C85.2236 75.098 84.4162 74.874 83.8096 74.426C83.2029 73.9687 82.8342 73.32 82.7036 72.48H84.5936C84.6402 72.8627 84.8082 73.166 85.0976 73.39C85.3869 73.6047 85.7649 73.712 86.2316 73.712C86.5676 73.712 86.8242 73.6327 87.0016 73.474C87.1789 73.306 87.2676 73.0913 87.2676 72.83C87.2676 72.606 87.1882 72.424 87.0296 72.284C86.8802 72.144 86.6889 72.0367 86.4556 71.962C86.2316 71.8873 85.9096 71.7987 85.4896 71.696C84.9109 71.5653 84.4396 71.4347 84.0756 71.304C83.7209 71.164 83.4129 70.9447 83.1516 70.646C82.8996 70.3473 82.7736 69.9367 82.7736 69.414C82.7736 68.742 83.0302 68.196 83.5436 67.776C84.0569 67.356 84.7662 67.146 85.6716 67.146Z" fill="white"/>
<path d="M127.218 17.8324L125.38 16.3544C125.237 16.2393 125.125 16.0899 125.056 15.9202C124.986 15.7505 124.96 15.5659 124.98 15.3834L125.235 13.0384C125.269 12.7271 125.233 12.4119 125.13 12.1163C125.026 11.8207 124.857 11.5522 124.635 11.3307C124.414 11.1091 124.146 10.9401 123.85 10.8362C123.554 10.7323 123.239 10.6962 122.928 10.7304L120.58 10.9824C120.398 11.0027 120.213 10.9766 120.043 10.9067C119.874 10.8368 119.724 10.7253 119.609 10.5824L118.131 8.74544C117.928 8.51148 117.678 8.32382 117.397 8.19519C117.115 8.06657 116.809 8 116.5 8C116.191 8 115.885 8.06657 115.603 8.19519C115.322 8.32382 115.071 8.51148 114.869 8.74544L113.391 10.5824C113.276 10.7258 113.127 10.8377 112.957 10.9076C112.787 10.9776 112.602 11.0033 112.42 10.9824L110.075 10.7304C109.764 10.6961 109.448 10.7321 109.153 10.8358C108.857 10.9396 108.589 11.1085 108.367 11.3299C108.146 11.5514 107.977 11.8198 107.873 12.1154C107.769 12.4109 107.733 12.726 107.767 13.0374L108.022 15.3824C108.043 15.5649 108.017 15.7497 107.947 15.9195C107.877 16.0893 107.765 16.2386 107.622 16.3534L105.782 17.8324C105.538 18.0285 105.341 18.2768 105.206 18.5591C105.07 18.8414 105 19.1504 105 19.4634C105 19.7765 105.07 20.0855 105.206 20.3678C105.341 20.6501 105.538 20.8984 105.782 21.0944L107.62 22.5724C107.763 22.6874 107.875 22.8367 107.945 23.0065C108.015 23.1763 108.041 23.361 108.02 23.5434L107.765 25.8884C107.731 26.1998 107.767 26.515 107.87 26.8106C107.974 27.1062 108.143 27.3747 108.364 27.5962C108.586 27.8178 108.854 27.9868 109.15 28.0907C109.445 28.1945 109.761 28.2307 110.072 28.1964L112.418 27.9414C112.6 27.9211 112.785 27.9471 112.955 28.0171C113.124 28.087 113.274 28.1985 113.389 28.3414L114.869 30.1824C115.065 30.4265 115.313 30.6235 115.596 30.7588C115.878 30.8941 116.187 30.9644 116.5 30.9644C116.813 30.9644 117.122 30.8941 117.404 30.7588C117.687 30.6235 117.935 30.4265 118.131 30.1824L119.609 28.3444C119.724 28.2016 119.874 28.0901 120.043 28.0202C120.213 27.9503 120.398 27.9242 120.58 27.9444L122.925 28.1994C123.236 28.2338 123.551 28.1978 123.847 28.0941C124.143 27.9903 124.411 27.8214 124.633 27.6C124.854 27.3785 125.023 27.1101 125.127 26.8145C125.231 26.519 125.267 26.2038 125.233 25.8924L124.978 23.5464C124.957 23.364 124.983 23.1792 125.053 23.0094C125.123 22.8396 125.235 22.6903 125.378 22.5754L127.216 21.0974C127.46 20.9014 127.657 20.6531 127.792 20.3708C127.928 20.0885 127.998 19.7795 127.998 19.4664C127.998 19.1534 127.928 18.8444 127.792 18.5621C127.657 18.2798 127.46 18.0315 127.216 17.8354L127.218 17.8324ZM116.9 22.5304C116.746 22.7305 116.552 22.8958 116.33 23.0153C116.108 23.1349 115.863 23.2059 115.611 23.2239C115.359 23.2418 115.107 23.2063 114.87 23.1195C114.633 23.0327 114.417 22.8967 114.237 22.7204L111.793 20.2824C111.697 20.1902 111.621 20.0799 111.569 19.9578C111.516 19.8358 111.489 19.7046 111.488 19.5718C111.487 19.4391 111.512 19.3074 111.562 19.1845C111.612 19.0616 111.687 18.9499 111.781 18.856C111.874 18.7622 111.986 18.6879 112.109 18.6376C112.232 18.5873 112.364 18.562 112.496 18.5632C112.629 18.5643 112.76 18.5919 112.882 18.6443C113.004 18.6968 113.115 18.7729 113.207 18.8684L115.458 21.1194L119.367 15.9084C119.526 15.6963 119.763 15.556 120.026 15.5185C120.156 15.4999 120.288 15.5071 120.415 15.5397C120.542 15.5723 120.662 15.6297 120.767 15.7084C120.872 15.7872 120.96 15.886 121.027 15.999C121.094 16.112 121.138 16.237 121.157 16.367C121.175 16.497 121.168 16.6294 121.136 16.7566C121.103 16.8838 121.046 17.0034 120.967 17.1084L116.9 22.5304Z" fill="white"/>
<g clip-path="url(#clip0)">
<path d="M61.9601 45.4667C59.1751 45.9477 56.536 47.0561 54.2428 48.708C53.8466 49.011 53.5263 49.4019 53.3072 49.8499C53.0881 50.2978 52.9761 50.7906 52.9801 51.2893V55.3467C52.9799 55.4324 52.9966 55.5173 53.0293 55.5966C53.062 55.6758 53.11 55.7479 53.1706 55.8086C53.2311 55.8692 53.3031 55.9174 53.3823 55.9502C53.4615 55.9831 53.5463 56 53.6321 56H82.3681C82.4538 56 82.5387 55.9831 82.6179 55.9502C82.6971 55.9174 82.769 55.8692 82.8296 55.8086C82.8901 55.7479 82.9381 55.6758 82.9708 55.5966C83.0035 55.5173 83.0203 55.4324 83.0201 55.3467V51.2893C83.0241 50.7906 82.9121 50.2978 82.693 49.8499C82.4738 49.4019 82.1535 49.011 81.7574 48.708C79.4642 47.0561 76.8251 45.9477 74.0401 45.4667C73.925 45.4441 73.8059 45.4534 73.6957 45.4936C73.5855 45.5338 73.4883 45.6033 73.4148 45.6947C73.2641 45.8747 71.8254 49.4667 68.0001 49.4667C64.2907 49.4667 62.7001 45.8293 62.5868 45.6933C62.512 45.6031 62.4144 45.5345 62.3043 45.4947C62.1941 45.4548 62.0753 45.4452 61.9601 45.4667V45.4667Z" fill="white"/>
<path d="M71.3734 44.2453C73.0737 43.569 74.5322 42.3985 75.5606 40.885C76.589 39.3715 77.1401 37.5845 77.1428 35.7547V33.1427C77.1428 30.7179 76.1795 28.3924 74.4649 26.6778C72.7504 24.9632 70.4249 24 68.0001 24C65.5753 24 63.2498 24.9632 61.5353 26.6778C59.8207 28.3924 58.8574 30.7179 58.8574 33.1427V35.7547C58.855 37.2474 59.2188 38.718 59.9167 40.0375C60.6147 41.357 61.6257 42.4852 62.861 43.3232C64.0963 44.1613 65.5183 44.6835 67.0024 44.8443C68.4865 45.0051 69.9873 44.7994 71.3734 44.2453V44.2453ZM61.4668 35.7547V33.4667C61.4668 33.4238 61.4752 33.3813 61.4916 33.3417C61.508 33.302 61.5321 33.266 61.5624 33.2357C61.5928 33.2053 61.6288 33.1813 61.6684 33.1649C61.7081 33.1484 61.7505 33.14 61.7934 33.14H62.7734C64.4521 33.14 67.8521 33.5533 70.3734 30.804C70.4038 30.7705 70.4408 30.7436 70.4821 30.7253C70.5235 30.7069 70.5682 30.6974 70.6134 30.6973C70.6588 30.6976 70.7037 30.7072 70.7452 30.7256C70.7867 30.7439 70.824 30.7706 70.8548 30.804C71.7798 31.8197 72.9868 32.5365 74.3214 32.8627C74.3823 32.8782 74.4364 32.9135 74.4752 32.9629C74.514 33.0123 74.5354 33.0732 74.5361 33.136V35.7547C74.5361 37.4874 73.8478 39.1492 72.6225 40.3744C71.3973 41.5997 69.7355 42.288 68.0028 42.288C66.27 42.288 64.6082 41.5997 63.383 40.3744C62.1578 39.1492 61.4694 37.4874 61.4694 35.7547H61.4668Z" fill="white"/>
<path d="M70.6121 37.388C71.3337 37.388 71.9188 36.803 71.9188 36.0813C71.9188 35.3597 71.3337 34.7747 70.6121 34.7747C69.8904 34.7747 69.3054 35.3597 69.3054 36.0813C69.3054 36.803 69.8904 37.388 70.6121 37.388Z" fill="white"/>
<path d="M65.388 37.388C66.1096 37.388 66.6946 36.803 66.6946 36.0813C66.6946 35.3597 66.1096 34.7747 65.388 34.7747C64.6663 34.7747 64.0813 35.3597 64.0813 36.0813C64.0813 36.803 64.6663 37.388 65.388 37.388Z" fill="white"/>
<path d="M68.1067 40.8093C68.4887 40.81 68.8687 40.7548 69.2347 40.6453C69.4319 40.586 69.6227 40.507 69.804 40.4093C69.9679 40.321 70.0975 40.1804 70.1723 40.0099C70.247 39.8395 70.2627 39.6489 70.2167 39.4685C70.1707 39.2881 70.0658 39.1283 69.9185 39.0144C69.7713 38.9005 69.5902 38.8391 69.404 38.84H66.8C66.6134 38.8386 66.4317 38.8997 66.284 39.0137C66.1362 39.1276 66.0309 39.2878 65.9848 39.4686C65.9387 39.6495 65.9546 39.8405 66.0299 40.0113C66.1052 40.182 66.2355 40.3227 66.4 40.4107C66.5811 40.5076 66.7713 40.5862 66.968 40.6453C67.3353 40.7554 67.7167 40.8111 68.1 40.8107L68.1067 40.8093Z" fill="white"/>
</g>
<defs>
<clipPath id="clip0">
<rect width="32" height="32" fill="white" transform="translate(52 24)"/>
</clipPath>
</defs>
</svg>
