<svg width="136" height="105" viewBox="0 0 136 105" fill="none" xmlns="http://www.w3.org/2000/svg">
<rect width="136" height="105" rx="3" fill="url(#paint0_linear)"/>
<path d="M37.358 72.788C38.254 72.0413 38.968 71.4207 39.5 70.926C40.032 70.422 40.4753 69.8993 40.83 69.358C41.1847 68.8167 41.362 68.2847 41.362 67.762C41.362 67.286 41.25 66.9127 41.026 66.642C40.802 66.3713 40.4567 66.236 39.99 66.236C39.5233 66.236 39.164 66.3947 38.912 66.712C38.66 67.02 38.5293 67.4447 38.52 67.986H36.616C36.6533 66.866 36.9847 66.0167 37.61 65.438C38.2447 64.8593 39.0473 64.57 40.018 64.57C41.082 64.57 41.8987 64.8547 42.468 65.424C43.0373 65.984 43.322 66.726 43.322 67.65C43.322 68.378 43.126 69.0733 42.734 69.736C42.342 70.3987 41.894 70.9773 41.39 71.472C40.886 71.9573 40.228 72.5453 39.416 73.236H43.546V74.86H36.63V73.404L37.358 72.788ZM47.837 71.094C47.837 70.31 47.991 69.6147 48.299 69.008C48.6163 68.4013 49.041 67.9347 49.573 67.608C50.1143 67.2813 50.7163 67.118 51.379 67.118C51.9577 67.118 52.4617 67.2347 52.891 67.468C53.3297 67.7013 53.6797 67.9953 53.941 68.35V67.244H55.915V75H53.941V73.866C53.689 74.23 53.339 74.5333 52.891 74.776C52.4523 75.0093 51.9437 75.126 51.365 75.126C50.7117 75.126 50.1143 74.958 49.573 74.622C49.041 74.286 48.6163 73.8147 48.299 73.208C47.991 72.592 47.837 71.8873 47.837 71.094ZM53.941 71.122C53.941 70.646 53.8477 70.24 53.661 69.904C53.4743 69.5587 53.2223 69.2973 52.905 69.12C52.5877 68.9333 52.247 68.84 51.883 68.84C51.519 68.84 51.183 68.9287 50.875 69.106C50.567 69.2833 50.315 69.5447 50.119 69.89C49.9323 70.226 49.839 70.6273 49.839 71.094C49.839 71.5607 49.9323 71.9713 50.119 72.326C50.315 72.6713 50.567 72.9373 50.875 73.124C51.1923 73.3107 51.5283 73.404 51.883 73.404C52.247 73.404 52.5877 73.3153 52.905 73.138C53.2223 72.9513 53.4743 72.69 53.661 72.354C53.8477 72.0087 53.941 71.598 53.941 71.122ZM53.675 65.298V66.698L50.455 65.228V63.632L53.675 65.298ZM67.8012 66.488H63.2652V68.882C63.4612 68.6393 63.7412 68.4433 64.1052 68.294C64.4692 68.1353 64.8566 68.056 65.2672 68.056C66.0139 68.056 66.6252 68.2193 67.1012 68.546C67.5772 68.8727 67.9226 69.2927 68.1372 69.806C68.3519 70.31 68.4592 70.8513 68.4592 71.43C68.4592 72.5033 68.1512 73.3667 67.5352 74.02C66.9286 74.6733 66.0606 75 64.9312 75C63.8672 75 63.0179 74.734 62.3832 74.202C61.7486 73.67 61.3892 72.9747 61.3052 72.116H63.2092C63.2932 72.4893 63.4799 72.788 63.7692 73.012C64.0679 73.236 64.4459 73.348 64.9032 73.348C65.4539 73.348 65.8692 73.1753 66.1492 72.83C66.4292 72.4847 66.5692 72.0273 66.5692 71.458C66.5692 70.8793 66.4246 70.4407 66.1352 70.142C65.8552 69.834 65.4399 69.68 64.8892 69.68C64.4972 69.68 64.1706 69.778 63.9092 69.974C63.6479 70.17 63.4612 70.4313 63.3492 70.758H61.4732V64.766H67.8012V66.488ZM73.0069 71.094C73.0069 70.31 73.1609 69.6147 73.4689 69.008C73.7863 68.4013 74.2109 67.9347 74.7429 67.608C75.2843 67.2813 75.8863 67.118 76.5489 67.118C77.1276 67.118 77.6316 67.2347 78.0609 67.468C78.4996 67.7013 78.8496 67.9953 79.1109 68.35V67.244H81.0849V75H79.1109V73.866C78.8589 74.23 78.5089 74.5333 78.0609 74.776C77.6223 75.0093 77.1136 75.126 76.5349 75.126C75.8816 75.126 75.2843 74.958 74.7429 74.622C74.2109 74.286 73.7863 73.8147 73.4689 73.208C73.1609 72.592 73.0069 71.8873 73.0069 71.094ZM79.1109 71.122C79.1109 70.646 79.0176 70.24 78.8309 69.904C78.6443 69.5587 78.3923 69.2973 78.0749 69.12C77.7576 68.9333 77.4169 68.84 77.0529 68.84C76.6889 68.84 76.3529 68.9287 76.0449 69.106C75.7369 69.2833 75.4849 69.5447 75.2889 69.89C75.1023 70.226 75.0089 70.6273 75.0089 71.094C75.0089 71.5607 75.1023 71.9713 75.2889 72.326C75.4849 72.6713 75.7369 72.9373 76.0449 73.124C76.3623 73.3107 76.6983 73.404 77.0529 73.404C77.4169 73.404 77.7576 73.3153 78.0749 73.138C78.3923 72.9513 78.6443 72.69 78.8309 72.354C79.0176 72.0087 79.1109 71.598 79.1109 71.122ZM87.2972 67.132C88.2212 67.132 88.9679 67.426 89.5372 68.014C90.1065 68.5927 90.3912 69.4047 90.3912 70.45V75H88.4312V70.716C88.4312 70.1 88.2772 69.6287 87.9692 69.302C87.6612 68.966 87.2412 68.798 86.7092 68.798C86.1679 68.798 85.7385 68.966 85.4212 69.302C85.1132 69.6287 84.9592 70.1 84.9592 70.716V75H82.9992V67.244H84.9592V68.21C85.2205 67.874 85.5519 67.6127 85.9532 67.426C86.3639 67.23 86.8119 67.132 87.2972 67.132ZM95.2231 75.126C94.5884 75.126 94.0191 75.014 93.5151 74.79C93.0111 74.5567 92.6097 74.244 92.3111 73.852C92.0217 73.46 91.8631 73.026 91.8351 72.55H93.8091C93.8464 72.8487 93.9911 73.096 94.2431 73.292C94.5044 73.488 94.8264 73.586 95.2091 73.586C95.5824 73.586 95.8717 73.5113 96.0771 73.362C96.2917 73.2127 96.3991 73.0213 96.3991 72.788C96.3991 72.536 96.2684 72.3493 96.0071 72.228C95.7551 72.0973 95.3491 71.9573 94.7891 71.808C94.2104 71.668 93.7344 71.5233 93.3611 71.374C92.9971 71.2247 92.6797 70.996 92.4091 70.688C92.1477 70.38 92.0171 69.9647 92.0171 69.442C92.0171 69.0127 92.1384 68.6207 92.3811 68.266C92.6331 67.9113 92.9877 67.6313 93.4451 67.426C93.9117 67.2207 94.4577 67.118 95.0831 67.118C96.0071 67.118 96.7444 67.3513 97.2951 67.818C97.8457 68.2753 98.1491 68.896 98.2051 69.68H96.3291C96.3011 69.372 96.1704 69.1293 95.9371 68.952C95.7131 68.7653 95.4097 68.672 95.0271 68.672C94.6724 68.672 94.3971 68.7373 94.2011 68.868C94.0144 68.9987 93.9211 69.1807 93.9211 69.414C93.9211 69.6753 94.0517 69.876 94.3131 70.016C94.5744 70.1467 94.9804 70.282 95.5311 70.422C96.0911 70.562 96.5531 70.7067 96.9171 70.856C97.2811 71.0053 97.5937 71.2387 97.8551 71.556C98.1257 71.864 98.2657 72.2747 98.2751 72.788C98.2751 73.236 98.1491 73.6373 97.8971 73.992C97.6544 74.3467 97.2997 74.6267 96.8331 74.832C96.3757 75.028 95.8391 75.126 95.2231 75.126Z" fill="white"/>
<g clip-path="url(#clip0)">
<path d="M69.1599 41.352C69.3605 41.2905 69.5548 41.2096 69.7399 41.1107C69.9055 41.0204 70.0365 40.8776 70.1123 40.7049C70.188 40.5321 70.2043 40.339 70.1586 40.156C70.1128 39.973 70.0076 39.8103 69.8594 39.6935C69.7113 39.5767 69.5285 39.5124 69.3399 39.5107H66.6665C66.4772 39.5107 66.2932 39.5737 66.1437 39.6899C65.9942 39.806 65.8877 39.9687 65.8409 40.1522C65.7941 40.3356 65.8097 40.5294 65.8854 40.703C65.961 40.8766 66.0923 41.02 66.2585 41.1107C66.4448 41.21 66.6404 41.2908 66.8425 41.352C67.2156 41.4749 67.6073 41.5318 67.9999 41.52H68.0265C68.4104 41.5183 68.792 41.4617 69.1599 41.352V41.352Z" fill="white"/>
<path d="M82.4481 49.36C79.4574 47.2422 75.9632 45.9465 72.3148 45.6027C72.2443 45.5936 72.1786 45.5623 72.1272 45.5132C72.0758 45.4642 72.0414 45.4 72.029 45.33C72.0167 45.2601 72.027 45.188 72.0585 45.1243C72.09 45.0606 72.141 45.0086 72.2041 44.976C72.3241 44.9133 72.4428 44.8493 72.5601 44.7827C72.6131 44.7527 72.6732 44.7377 72.7341 44.7393C72.7949 44.741 72.8542 44.7592 72.9054 44.792C73.4284 45.1377 74.0399 45.3256 74.6668 45.3333C75.5508 45.3333 76.3987 44.9821 77.0238 44.357C77.6489 43.7319 78.0001 42.8841 78.0001 42V34C78.0001 31.3478 76.9465 28.8043 75.0712 26.9289C73.1958 25.0536 70.6523 24 68.0001 24C65.3479 24 62.8044 25.0536 60.929 26.9289C59.0537 28.8043 58.0001 31.3478 58.0001 34V42C58.0001 42.8841 58.3513 43.7319 58.9764 44.357C59.6015 44.9821 60.4494 45.3333 61.3334 45.3333C61.9626 45.3269 62.5765 45.1389 63.1014 44.792C63.1527 44.7592 63.212 44.741 63.2728 44.7393C63.3337 44.7377 63.3938 44.7527 63.4468 44.7827C63.5641 44.8493 63.6828 44.916 63.8028 44.976C63.8659 45.0086 63.9169 45.0606 63.9484 45.1243C63.9799 45.188 63.9902 45.2601 63.9778 45.33C63.9655 45.4 63.9311 45.4642 63.8797 45.5132C63.8283 45.5623 63.7626 45.5936 63.6921 45.6027C60.041 45.9456 56.5439 47.2413 53.5508 49.36C53.0648 49.7314 52.6717 50.2107 52.4026 50.76C52.1335 51.3093 51.9957 51.9137 52.0001 52.5253V54.6667C52.0001 55.0203 52.1406 55.3594 52.3906 55.6095C52.6407 55.8595 52.9798 56 53.3334 56C53.6871 56 54.0262 55.8595 54.2762 55.6095C54.5263 55.3594 54.6668 55.0203 54.6668 54.6667V52.5253C54.6641 52.324 54.7079 52.1248 54.7949 51.9433C54.8818 51.7617 55.0096 51.6027 55.1681 51.4787C56.3037 50.6369 57.5548 49.9633 58.8828 49.4787C58.9332 49.4597 58.9875 49.4532 59.041 49.4598C59.0945 49.4665 59.1455 49.4859 59.1898 49.5166C59.2341 49.5473 59.2704 49.5882 59.2954 49.636C59.3204 49.6837 59.3334 49.7368 59.3334 49.7907V55.6573C59.3334 55.7457 59.3686 55.8305 59.4311 55.893C59.4936 55.9555 59.5784 55.9907 59.6668 55.9907H76.3334C76.4218 55.9907 76.5066 55.9555 76.5691 55.893C76.6317 55.8305 76.6668 55.7457 76.6668 55.6573V49.7907C76.6668 49.7368 76.6798 49.6837 76.7048 49.636C76.7299 49.5882 76.7661 49.5473 76.8104 49.5166C76.8547 49.4859 76.9058 49.4665 76.9592 49.4598C77.0127 49.4532 77.067 49.4597 77.1174 49.4787C78.4451 49.9629 79.6958 50.6366 80.8308 51.4787C80.9897 51.6024 81.1178 51.7614 81.205 51.943C81.2922 52.1246 81.3362 52.3239 81.3334 52.5253V54.6667C81.3334 55.0203 81.4739 55.3594 81.724 55.6095C81.974 55.8595 82.3131 56 82.6668 56C83.0204 56 83.3595 55.8595 83.6096 55.6095C83.8596 55.3594 84.0001 55.0203 84.0001 54.6667V52.5253C84.0046 51.9135 83.8667 51.309 83.5973 50.7597C83.328 50.2103 82.9345 49.7311 82.4481 49.36V49.36ZM62.3881 40.2667C62.3429 40.1969 62.3255 40.1128 62.3393 40.0308C62.3531 39.9488 62.3972 39.875 62.4628 39.824C62.9429 39.4499 63.3311 38.9709 63.5975 38.4236C63.864 37.8763 64.0017 37.2754 64.0001 36.6667V35.5467C64.0002 35.4974 64.0114 35.4487 64.0326 35.4043C64.0539 35.3598 64.0848 35.3207 64.1231 35.2896C64.1614 35.2586 64.2062 35.2365 64.2541 35.2249C64.302 35.2133 64.3519 35.2126 64.4001 35.2227C64.9855 35.3472 65.5907 35.3454 66.1754 35.2176C66.76 35.0898 67.3107 34.8388 67.7908 34.4813C67.8484 34.4379 67.9186 34.4143 67.9908 34.4143C68.0629 34.4143 68.1332 34.4379 68.1908 34.4813C68.6707 34.8388 69.2215 35.0898 69.8062 35.2174C70.3909 35.345 70.9962 35.3464 71.5814 35.2213C71.6297 35.2117 71.6796 35.2129 71.7274 35.2247C71.7752 35.2366 71.8197 35.2589 71.858 35.2899C71.8962 35.321 71.927 35.3601 71.9484 35.4045C71.9697 35.4489 71.981 35.4974 71.9814 35.5467V36.6667C71.9798 37.2754 72.1175 37.8763 72.384 38.4236C72.6505 38.9709 73.0386 39.4499 73.5188 39.824C73.5848 39.8747 73.6294 39.9484 73.6435 40.0305C73.6575 40.1125 73.6402 40.1969 73.5948 40.2667C72.9915 41.2078 72.1614 41.9821 71.1806 42.5184C70.1998 43.0547 69.0999 43.3358 67.9821 43.3358C66.8643 43.3358 65.7644 43.0547 64.7836 42.5184C63.8028 41.9821 62.9727 41.2078 62.3694 40.2667H62.3881ZM68.0001 50.6667C67.2445 50.6594 66.4999 50.4846 65.82 50.1549C65.1401 49.8252 64.5417 49.3488 64.0681 48.76C64.0299 48.7137 64.0048 48.658 63.9955 48.5987C63.9862 48.5394 63.993 48.4787 64.0152 48.423C64.0374 48.3672 64.0743 48.3184 64.1218 48.2818C64.1693 48.2451 64.2259 48.222 64.2854 48.2147C66.7536 47.9276 69.2466 47.9276 71.7148 48.2147C71.7745 48.2215 71.8312 48.2444 71.8789 48.2809C71.9266 48.3174 71.9635 48.3662 71.9856 48.422C72.0078 48.4778 72.0144 48.5386 72.0047 48.5979C71.9951 48.6572 71.9695 48.7128 71.9308 48.7587C71.4574 49.3475 70.8593 49.824 70.1796 50.1539C69.4999 50.4838 68.7556 50.6589 68.0001 50.6667Z" fill="white"/>
</g>
<path d="M126.718 18.35L124.88 16.872C124.737 16.7568 124.625 16.6075 124.556 16.4378C124.486 16.268 124.46 16.0834 124.48 15.901L124.735 13.556C124.769 13.2446 124.733 12.9295 124.63 12.6339C124.526 12.3383 124.357 12.0698 124.135 11.8482C123.914 11.6267 123.646 11.4577 123.35 11.3538C123.054 11.2499 122.739 11.2138 122.428 11.248L120.08 11.5C119.898 11.5202 119.713 11.4942 119.543 11.4243C119.374 11.3544 119.224 11.2429 119.109 11.1L117.631 9.26302C117.428 9.02906 117.178 8.84139 116.897 8.71277C116.615 8.58415 116.309 8.51758 116 8.51758C115.691 8.51758 115.385 8.58415 115.103 8.71277C114.822 8.84139 114.571 9.02906 114.369 9.26302L112.891 11.1C112.776 11.2434 112.627 11.3552 112.457 11.4252C112.287 11.4951 112.102 11.5209 111.92 11.5L109.575 11.248C109.264 11.2136 108.948 11.2497 108.653 11.3534C108.357 11.4572 108.089 11.626 107.867 11.8475C107.646 12.069 107.477 12.3374 107.373 12.633C107.269 12.9285 107.233 13.2436 107.267 13.555L107.522 15.9C107.543 16.0825 107.517 16.2672 107.447 16.437C107.377 16.6068 107.265 16.7561 107.122 16.871L105.282 18.35C105.038 18.5461 104.841 18.7944 104.706 19.0766C104.57 19.3589 104.5 19.668 104.5 19.981C104.5 20.2941 104.57 20.6031 104.706 20.8854C104.841 21.1677 105.038 21.416 105.282 21.612L107.12 23.09C107.263 23.205 107.375 23.3543 107.445 23.5241C107.515 23.6938 107.541 23.8786 107.52 24.061L107.265 26.406C107.231 26.7174 107.267 27.0325 107.37 27.3281C107.474 27.6237 107.643 27.8922 107.864 28.1138C108.086 28.3354 108.354 28.5043 108.65 28.6082C108.945 28.7121 109.261 28.7483 109.572 28.714L111.918 28.459C112.1 28.4387 112.285 28.4647 112.455 28.5346C112.624 28.6045 112.774 28.7161 112.889 28.859L114.369 30.7C114.565 30.9441 114.813 31.141 115.096 31.2764C115.378 31.4117 115.687 31.4819 116 31.4819C116.313 31.4819 116.622 31.4117 116.904 31.2764C117.187 31.141 117.435 30.9441 117.631 30.7L119.109 28.862C119.224 28.7192 119.374 28.6077 119.543 28.5378C119.713 28.4679 119.898 28.4418 120.08 28.462L122.425 28.717C122.736 28.7514 123.051 28.7154 123.347 28.6116C123.643 28.5079 123.911 28.339 124.133 28.1175C124.354 27.8961 124.523 27.6276 124.627 27.3321C124.731 27.0365 124.767 26.7214 124.733 26.41L124.478 24.064C124.457 23.8816 124.483 23.6968 124.553 23.527C124.623 23.3571 124.735 23.2078 124.878 23.093L126.716 21.615C126.96 21.419 127.157 21.1707 127.292 20.8884C127.428 20.6061 127.498 20.2971 127.498 19.984C127.498 19.671 127.428 19.3619 127.292 19.0796C127.157 18.7974 126.96 18.5491 126.716 18.353L126.718 18.35ZM116.4 23.048C116.246 23.2481 116.052 23.4134 115.83 23.5329C115.608 23.6524 115.363 23.7235 115.111 23.7415C114.859 23.7594 114.607 23.7238 114.37 23.6371C114.133 23.5503 113.917 23.4143 113.737 23.238L111.293 20.8C111.197 20.7078 111.121 20.5974 111.069 20.4754C111.016 20.3534 110.989 20.2222 110.988 20.0894C110.987 19.9566 111.012 19.825 111.062 19.7021C111.112 19.5792 111.187 19.4675 111.281 19.3736C111.374 19.2797 111.486 19.2055 111.609 19.1552C111.732 19.1049 111.864 19.0796 111.996 19.0808C112.129 19.0819 112.26 19.1095 112.382 19.1619C112.504 19.2143 112.615 19.2905 112.707 19.386L114.958 21.637L118.867 16.426C119.026 16.2138 119.263 16.0736 119.526 16.0361C119.656 16.0175 119.788 16.0247 119.915 16.0573C120.042 16.0899 120.162 16.1472 120.267 16.226C120.372 16.3048 120.46 16.4035 120.527 16.5165C120.594 16.6295 120.638 16.7546 120.657 16.8846C120.675 17.0146 120.668 17.147 120.636 17.2742C120.603 17.4014 120.546 17.521 120.467 17.626L116.4 23.048Z" fill="white"/>
<defs>
<linearGradient id="paint0_linear" x1="136" y1="6.28022e-06" x2="-7.84952" y2="92.8373" gradientUnits="userSpaceOnUse">
<stop stop-color="#79C792"/>
<stop offset="1" stop-color="#79C792"/>
</linearGradient>
<clipPath id="clip0">
<rect width="32" height="32" fill="white" transform="translate(52 24)"/>
</clipPath>
</defs>
</svg>
