<svg width="137" height="96" viewBox="0 0 137 96" fill="none" xmlns="http://www.w3.org/2000/svg">
<rect width="136" height="96" rx="3" fill="#E0E1DD"/>
<path d="M27.966 74H29.926V69.87H33.048V68.316H29.926V65.81H34V64.228H27.966V74ZM34.8858 70.094C34.8858 72.516 36.4538 74.126 38.4138 74.126C39.6458 74.126 40.5278 73.538 40.9898 72.866V74H42.9638V66.244H40.9898V67.35C40.5278 66.706 39.6738 66.118 38.4278 66.118C36.4538 66.118 34.8858 67.672 34.8858 70.094ZM40.9898 70.122C40.9898 71.592 40.0098 72.404 38.9318 72.404C37.8818 72.404 36.8878 71.564 36.8878 70.094C36.8878 68.624 37.8818 67.84 38.9318 67.84C40.0098 67.84 40.9898 68.652 40.9898 70.122ZM44.3741 70.122C44.3741 72.558 45.9701 74.126 48.2101 74.126C50.1421 74.126 51.4441 73.034 51.8641 71.382H49.7501C49.5121 72.082 49.0081 72.446 48.1961 72.446C47.1041 72.446 46.3761 71.634 46.3761 70.122C46.3761 68.61 47.1041 67.784 48.1961 67.784C49.0081 67.784 49.5261 68.204 49.7501 68.862H51.8641C51.4441 67.126 50.1421 66.118 48.2101 66.118C45.9701 66.118 44.3741 67.686 44.3741 70.122ZM56.632 67.728C57.64 67.728 58.452 68.372 58.48 69.394H54.798C54.952 68.33 55.694 67.728 56.632 67.728ZM60.314 71.564H58.2C57.948 72.082 57.486 72.502 56.646 72.502C55.666 72.502 54.882 71.858 54.784 70.71H60.454C60.496 70.458 60.51 70.206 60.51 69.954C60.51 67.644 58.928 66.118 56.688 66.118C54.392 66.118 52.796 67.672 52.796 70.122C52.796 72.558 54.434 74.126 56.688 74.126C58.606 74.126 59.894 72.992 60.314 71.564ZM64.7725 70.094C64.7725 72.516 66.3405 74.126 68.3005 74.126C69.5325 74.126 70.4145 73.538 70.8765 72.866V74H72.8505V66.244H70.8765V67.35C70.4145 66.706 69.5605 66.118 68.3145 66.118C66.3405 66.118 64.7725 67.672 64.7725 70.094ZM70.8765 70.122C70.8765 71.592 69.8965 72.404 68.8185 72.404C67.7685 72.404 66.7745 71.564 66.7745 70.094C66.7745 68.624 67.7685 67.84 68.8185 67.84C69.8965 67.84 70.8765 68.652 70.8765 70.122ZM67.3905 64.228L70.6105 65.698V64.298L67.3905 62.632V64.228ZM78.3108 74H80.2988V67.854H81.6568V66.244H80.2988V65.922C80.2988 65.054 80.6208 64.746 81.5728 64.774V63.122C79.3888 63.066 78.3108 63.948 78.3108 65.852V66.244H77.4288V67.854H78.3108V74ZM82.4229 70.094C82.4229 72.516 83.9909 74.126 85.9509 74.126C87.1829 74.126 88.0649 73.538 88.5269 72.866V74H90.5009V66.244H88.5269V67.35C88.0649 66.706 87.2109 66.118 85.9649 66.118C83.9909 66.118 82.4229 67.672 82.4229 70.094ZM88.5269 70.122C88.5269 71.592 87.5469 72.404 86.4689 72.404C85.4189 72.404 84.4249 71.564 84.4249 70.094C84.4249 68.624 85.4189 67.84 86.4689 67.84C87.5469 67.84 88.5269 68.652 88.5269 70.122ZM91.9112 70.122C91.9112 72.558 93.5072 74.126 95.7472 74.126C97.6792 74.126 98.9812 73.034 99.4012 71.382H97.2872C97.0492 72.082 96.5452 72.446 95.7332 72.446C94.6412 72.446 93.9132 71.634 93.9132 70.122C93.9132 68.61 94.6412 67.784 95.7332 67.784C96.5452 67.784 97.0632 68.204 97.2872 68.862H99.4012C98.9812 67.126 97.6792 66.118 95.7472 66.118C93.5072 66.118 91.9112 67.686 91.9112 70.122ZM104.169 67.728C105.177 67.728 105.989 68.372 106.017 69.394H102.335C102.489 68.33 103.231 67.728 104.169 67.728ZM107.851 71.564H105.737C105.485 72.082 105.023 72.502 104.183 72.502C103.203 72.502 102.419 71.858 102.321 70.71H107.991C108.033 70.458 108.047 70.206 108.047 69.954C108.047 67.644 106.465 66.118 104.225 66.118C101.929 66.118 100.333 67.672 100.333 70.122C100.333 72.558 101.971 74.126 104.225 74.126C106.143 74.126 107.431 72.992 107.851 71.564Z" fill="white"/>
<path d="M53.3333 45.6666H55.556C56.121 45.654 56.6647 45.4488 57.0972 45.0851C57.5297 44.7215 57.8252 44.221 57.9347 43.6666C57.9782 43.4723 58.0001 43.2738 58 43.0746V42.6666C58 42.5782 58.0351 42.4934 58.0976 42.4309C58.1601 42.3684 58.2449 42.3333 58.3333 42.3333H60C60.0939 42.3333 60.1867 42.3531 60.2725 42.3915C60.3582 42.4299 60.4348 42.4859 60.4973 42.556L65.284 47.92C65.4374 48.102 65.6431 48.2325 65.8732 48.2938C66.1032 48.355 66.3465 48.3441 66.5702 48.2625C66.7938 48.1808 66.987 48.0324 67.1235 47.8374C67.26 47.6423 67.3332 47.41 67.3333 47.172V46.748C67.3335 46.7041 67.325 46.6607 67.3083 46.6202C67.2916 46.5797 67.267 46.5429 67.236 46.512L66.1947 45.472C66.0695 45.3468 65.9992 45.177 65.9992 45C65.9992 44.8229 66.0695 44.6531 66.1947 44.528C66.3198 44.4028 66.4896 44.3325 66.6667 44.3325C66.8437 44.3325 67.0135 44.4028 67.1387 44.528L68.3747 45.7653L68.4853 45.8093C68.6902 45.8914 68.9099 45.9299 69.1305 45.9224C69.3511 45.9148 69.5677 45.8615 69.7665 45.7656C69.9653 45.6698 70.1419 45.5336 70.2852 45.3658C70.4285 45.1979 70.5353 45.002 70.5987 44.7906C70.6163 44.733 70.618 44.6716 70.6034 44.6132C70.5888 44.5547 70.5586 44.5012 70.516 44.4586L68.8613 42.8C68.7362 42.6748 68.6658 42.505 68.6658 42.328C68.6658 42.1509 68.7362 41.9811 68.8613 41.856C68.9865 41.7308 69.1563 41.6605 69.3333 41.6605C69.5104 41.6605 69.6802 41.7308 69.8053 41.856L71.512 43.564C71.543 43.595 71.5798 43.6195 71.6203 43.6362C71.6608 43.6529 71.7042 43.6614 71.748 43.6613H72C72.3536 43.6613 72.6928 43.5208 72.9428 43.2708C73.1929 43.0207 73.3333 42.6816 73.3333 42.328C73.3323 42.0396 73.2388 41.7592 73.0667 41.528L69.2347 36.624C69.1921 36.5699 69.134 36.5303 69.0681 36.5105C69.0023 36.4907 68.9319 36.4917 68.8667 36.5133L66.7867 37.2C66.3181 37.3562 65.8111 37.3537 65.3441 37.1929C64.877 37.0321 64.4759 36.722 64.2028 36.3105C63.9297 35.8989 63.7997 35.4089 63.8329 34.9161C63.8661 34.4232 64.0607 33.9551 64.3867 33.584C64.4261 33.5385 64.4525 33.4833 64.4632 33.4242C64.474 33.365 64.4685 33.304 64.4475 33.2477C64.4265 33.1913 64.3907 33.1417 64.3438 33.1039C64.297 33.0662 64.2409 33.0418 64.1813 33.0333C63.8036 32.9812 63.4189 33.0271 63.064 33.1666L58.4573 35.0026C58.4067 35.0224 58.352 35.0297 58.2979 35.0239C58.2439 35.0181 58.192 34.9994 58.1467 34.9693C58.1015 34.9388 58.0645 34.8977 58.039 34.8495C58.0134 34.8014 58 34.7478 58 34.6933V34.2586C57.9999 34.0936 57.9847 33.9289 57.9547 33.7666C57.8637 33.191 57.5737 32.6656 57.1351 32.2819C56.6965 31.8981 56.1372 31.6804 55.5547 31.6666H53.3333C52.9797 31.6666 52.6406 31.8071 52.3905 32.0572C52.1405 32.3072 52 32.6463 52 33V44.3333C52 44.6869 52.1405 45.0261 52.3905 45.2761C52.6406 45.5262 52.9797 45.6666 53.3333 45.6666Z" fill="white"/>
<path d="M71.5413 35.6346L70.8879 35.8493C70.836 35.865 70.7888 35.8931 70.7502 35.9312C70.7116 35.9693 70.6829 36.0163 70.6666 36.068C70.6511 36.1191 70.6482 36.1732 70.6582 36.2257C70.6682 36.2782 70.6908 36.3274 70.7239 36.3693L74.1333 40.724C74.4791 41.1893 74.666 41.7535 74.6666 42.3333C74.6667 42.4758 74.6551 42.618 74.6319 42.7586C74.6237 42.8117 74.6283 42.866 74.6452 42.917C74.6621 42.968 74.6909 43.0143 74.7293 43.052C74.7677 43.0892 74.8146 43.1167 74.8659 43.132C74.9171 43.1473 74.9714 43.15 75.0239 43.14L77.6039 42.6493C77.6521 42.6406 77.7016 42.6424 77.749 42.6546C77.7964 42.6668 77.8406 42.6891 77.8786 42.72C77.9166 42.7512 77.9473 42.7905 77.9682 42.835C77.9892 42.8795 78 42.9281 77.9999 42.9773V43.0746C78.001 43.3576 78.0459 43.6388 78.1333 43.908C78.2827 44.4084 78.5873 44.8485 79.0031 45.1646C79.4189 45.4807 79.9244 45.6565 80.4466 45.6666H82.6666C83.0202 45.6666 83.3594 45.5262 83.6094 45.2761C83.8595 45.0261 83.9999 44.6869 83.9999 44.3333V33C83.9999 32.6463 83.8595 32.3072 83.6094 32.0572C83.3594 31.8071 83.0202 31.6666 82.6666 31.6666H80.4439C80.0677 31.6697 79.6975 31.7616 79.3635 31.9346C79.0294 32.1077 78.7408 32.3571 78.5213 32.6626C78.3258 32.9263 78.1815 33.2244 78.0959 33.5413C78.0836 33.5857 78.0622 33.6271 78.0332 33.6629C78.0042 33.6987 77.9681 33.7281 77.9272 33.7494C77.8863 33.7707 77.8415 33.7833 77.7955 33.7865C77.7495 33.7897 77.7034 33.7834 77.6599 33.768L72.3066 31.8213C71.9787 31.7041 71.6305 31.654 71.2828 31.6739C70.9351 31.6938 70.595 31.7834 70.2826 31.9373L65.6759 34.2413C65.4707 34.3453 65.3122 34.5228 65.2321 34.7385C65.152 34.9542 65.156 35.1921 65.2435 35.4049C65.331 35.6177 65.4954 35.7897 65.7041 35.8866C65.9127 35.9836 66.1502 35.9983 66.3693 35.928L71.1253 34.3666C71.2934 34.3115 71.4766 34.3254 71.6345 34.4052C71.7924 34.4851 71.9121 34.6245 71.9673 34.7926C72.0224 34.9608 72.0085 35.1439 71.9287 35.3019C71.8488 35.4598 71.7094 35.5795 71.5413 35.6346V35.6346Z" fill="white"/>
<line x1="0.28429" y1="0.588686" x2="136.284" y2="94.5887" stroke="white"/>
<line x1="0.710822" y1="95.5921" x2="134.711" y2="0.592105" stroke="white"/>
<defs>
<clipPath id="clip0">
<rect width="32" height="32" fill="white" transform="translate(52 24)"/>
</clipPath>
</defs>
</svg>
