<svg width="76" height="16" viewBox="0 0 76 16" fill="none" xmlns="http://www.w3.org/2000/svg">
<path d="M15.4708 5.65444C15.3995 5.46311 15.2717 5.29806 15.1042 5.18132C14.9367 5.06459 14.7376 5.00172 14.5334 5.00111H10.4754C10.4064 5.00116 10.339 4.97976 10.2826 4.93988C10.2263 4.89999 10.1837 4.84358 10.1608 4.77844L8.70409 0.649778C8.63274 0.458952 8.5048 0.294472 8.33741 0.178349C8.17002 0.0622254 7.97115 0 7.76742 0C7.56369 0 7.36482 0.0622254 7.19743 0.178349C7.03003 0.294472 6.9021 0.458952 6.83075 0.649778L6.82742 0.660445L5.37409 4.77844C5.3512 4.84347 5.30871 4.89981 5.25248 4.93968C5.19624 4.97956 5.12902 5.00102 5.06009 5.00111H1.00075C0.795297 5.00096 0.594781 5.06409 0.426474 5.18192C0.258168 5.29976 0.130241 5.46657 0.0600929 5.65968C-0.0100556 5.85279 -0.0190209 6.06282 0.0344163 6.2612C0.0878535 6.45959 0.201099 6.6367 0.358752 6.76844L3.81475 9.63511C3.86645 9.67801 3.90397 9.73553 3.92241 9.80013C3.94085 9.86472 3.93934 9.93339 3.91809 9.99711L2.46609 14.3511C2.39898 14.5524 2.39766 14.7699 2.4623 14.972C2.52695 15.1741 2.65421 15.3504 2.82568 15.4754C2.99716 15.6004 3.20395 15.6676 3.41615 15.6673C3.62835 15.667 3.83496 15.5993 4.00609 15.4738L7.57009 12.8604C7.62724 12.8186 7.69624 12.796 7.76709 12.796C7.83793 12.796 7.90694 12.8186 7.96409 12.8604L11.5268 15.4731C11.6978 15.599 11.9045 15.6672 12.1169 15.6677C12.3293 15.6683 12.5363 15.6012 12.7081 15.4762C12.8798 15.3512 13.0072 15.1748 13.072 14.9725C13.1367 14.7702 13.1353 14.5526 13.0681 14.3511L11.6161 9.99444C11.5948 9.93072 11.5933 9.86206 11.6118 9.79746C11.6302 9.73286 11.6677 9.67534 11.7194 9.63244L15.1821 6.76178C15.3377 6.62891 15.4488 6.4515 15.5005 6.25348C15.5521 6.05547 15.5417 5.84638 15.4708 5.65444V5.65444Z" fill="#F8B816"/>
<path d="M35.4708 5.65444C35.3995 5.46311 35.2717 5.29806 35.1042 5.18132C34.9367 5.06459 34.7376 5.00172 34.5334 5.00111H30.4754C30.4064 5.00116 30.339 4.97976 30.2826 4.93988C30.2263 4.89999 30.1837 4.84358 30.1608 4.77844L28.7041 0.649778C28.6327 0.458952 28.5048 0.294472 28.3374 0.178349C28.17 0.0622254 27.9711 0 27.7674 0C27.5637 0 27.3648 0.0622254 27.1974 0.178349C27.03 0.294472 26.9021 0.458952 26.8308 0.649778L26.8274 0.660445L25.3741 4.77844C25.3512 4.84347 25.3087 4.89981 25.2525 4.93968C25.1962 4.97956 25.129 5.00102 25.0601 5.00111H21.0008C20.7953 5.00096 20.5948 5.06409 20.4265 5.18192C20.2582 5.29976 20.1302 5.46657 20.0601 5.65968C19.9899 5.85279 19.981 6.06282 20.0344 6.2612C20.0879 6.45959 20.2011 6.6367 20.3588 6.76844L23.8148 9.63511C23.8664 9.67801 23.904 9.73553 23.9224 9.80013C23.9409 9.86472 23.9393 9.93339 23.9181 9.99711L22.4661 14.3511C22.399 14.5524 22.3977 14.7699 22.4623 14.972C22.5269 15.1741 22.6542 15.3504 22.8257 15.4754C22.9972 15.6004 23.2039 15.6676 23.4162 15.6673C23.6284 15.667 23.835 15.5993 24.0061 15.4738L27.5701 12.8604C27.6272 12.8186 27.6962 12.796 27.7671 12.796C27.8379 12.796 27.9069 12.8186 27.9641 12.8604L31.5268 15.4731C31.6978 15.599 31.9045 15.6672 32.1169 15.6677C32.3293 15.6683 32.5363 15.6012 32.7081 15.4762C32.8798 15.3512 33.0072 15.1748 33.072 14.9725C33.1367 14.7702 33.1353 14.5526 33.0681 14.3511L31.6161 9.99444C31.5948 9.93072 31.5933 9.86206 31.6118 9.79746C31.6302 9.73286 31.6677 9.67534 31.7194 9.63244L35.1821 6.76178C35.3377 6.62891 35.4488 6.4515 35.5005 6.25348C35.5521 6.05547 35.5417 5.84638 35.4708 5.65444V5.65444Z" fill="#F8B816"/>
<path d="M75.4708 5.65444C75.3995 5.46311 75.2717 5.29806 75.1042 5.18132C74.9367 5.06459 74.7376 5.00172 74.5334 5.00111H70.4754C70.4064 5.00116 70.339 4.97976 70.2826 4.93988C70.2263 4.89999 70.1837 4.84358 70.1608 4.77844L68.7041 0.649778C68.6327 0.458952 68.5048 0.294472 68.3374 0.178349C68.17 0.0622254 67.9711 0 67.7674 0C67.5637 0 67.3648 0.0622254 67.1974 0.178349C67.03 0.294472 66.9021 0.458952 66.8308 0.649778L66.8274 0.660445L65.3741 4.77844C65.3512 4.84347 65.3087 4.89981 65.2525 4.93968C65.1962 4.97956 65.129 5.00102 65.0601 5.00111H61.0008C60.7953 5.00096 60.5948 5.06409 60.4265 5.18192C60.2582 5.29976 60.1302 5.46657 60.0601 5.65968C59.9899 5.85279 59.981 6.06282 60.0344 6.2612C60.0879 6.45959 60.2011 6.6367 60.3588 6.76844L63.8148 9.63511C63.8664 9.67801 63.904 9.73553 63.9224 9.80013C63.9409 9.86472 63.9393 9.93339 63.9181 9.99711L62.4661 14.3511C62.399 14.5524 62.3977 14.7699 62.4623 14.972C62.5269 15.1741 62.6542 15.3504 62.8257 15.4754C62.9972 15.6004 63.2039 15.6676 63.4162 15.6673C63.6284 15.667 63.835 15.5993 64.0061 15.4738L67.5701 12.8604C67.6272 12.8186 67.6962 12.796 67.7671 12.796C67.8379 12.796 67.9069 12.8186 67.9641 12.8604L71.5268 15.4731C71.6978 15.599 71.9045 15.6672 72.1169 15.6677C72.3293 15.6683 72.5363 15.6012 72.7081 15.4762C72.8798 15.3512 73.0072 15.1748 73.072 14.9725C73.1367 14.7702 73.1353 14.5526 73.0681 14.3511L71.6161 9.99444C71.5948 9.93072 71.5933 9.86206 71.6118 9.79746C71.6302 9.73286 71.6677 9.67534 71.7194 9.63244L75.1821 6.76178C75.3377 6.62891 75.4488 6.4515 75.5005 6.25348C75.5521 6.05547 75.5417 5.84638 75.4708 5.65444V5.65444Z" fill="#F8B816"/>
<path d="M55.4708 5.65444C55.3995 5.46311 55.2717 5.29806 55.1042 5.18132C54.9367 5.06459 54.7376 5.00172 54.5334 5.00111H50.4754C50.4064 5.00116 50.339 4.97976 50.2826 4.93988C50.2263 4.89999 50.1837 4.84358 50.1608 4.77844L48.7041 0.649778C48.6327 0.458952 48.5048 0.294472 48.3374 0.178349C48.17 0.0622254 47.9711 0 47.7674 0C47.5637 0 47.3648 0.0622254 47.1974 0.178349C47.03 0.294472 46.9021 0.458952 46.8308 0.649778L46.8274 0.660445L45.3741 4.77844C45.3512 4.84347 45.3087 4.89981 45.2525 4.93968C45.1962 4.97956 45.129 5.00102 45.0601 5.00111H41.0008C40.7953 5.00096 40.5948 5.06409 40.4265 5.18192C40.2582 5.29976 40.1302 5.46657 40.0601 5.65968C39.9899 5.85279 39.981 6.06282 40.0344 6.2612C40.0879 6.45959 40.2011 6.6367 40.3588 6.76844L43.8148 9.63511C43.8664 9.67801 43.904 9.73553 43.9224 9.80013C43.9409 9.86472 43.9393 9.93339 43.9181 9.99711L42.4661 14.3511C42.399 14.5524 42.3977 14.7699 42.4623 14.972C42.5269 15.1741 42.6542 15.3504 42.8257 15.4754C42.9972 15.6004 43.2039 15.6676 43.4162 15.6673C43.6284 15.667 43.835 15.5993 44.0061 15.4738L47.5701 12.8604C47.6272 12.8186 47.6962 12.796 47.7671 12.796C47.8379 12.796 47.9069 12.8186 47.9641 12.8604L51.5268 15.4731C51.6978 15.599 51.9045 15.6672 52.1169 15.6677C52.3293 15.6683 52.5363 15.6012 52.7081 15.4762C52.8798 15.3512 53.0072 15.1748 53.072 14.9725C53.1367 14.7702 53.1353 14.5526 53.0681 14.3511L51.6161 9.99444C51.5948 9.93072 51.5933 9.86206 51.6118 9.79746C51.6302 9.73286 51.6677 9.67534 51.7194 9.63244L55.1821 6.76178C55.3377 6.62891 55.4488 6.4515 55.5005 6.25348C55.5521 6.05547 55.5417 5.84638 55.4708 5.65444V5.65444Z" fill="#F8B816"/>
</svg>
