<svg width="16" height="16" viewBox="0 0 16 16" fill="none" xmlns="http://www.w3.org/2000/svg">
<path d="M15.4708 5.65444C15.3995 5.46311 15.2717 5.29806 15.1042 5.18132C14.9367 5.06459 14.7376 5.00172 14.5334 5.00111H10.4754C10.4064 5.00116 10.339 4.97976 10.2826 4.93988C10.2263 4.89999 10.1837 4.84358 10.1608 4.77844L8.70409 0.649778C8.63274 0.458952 8.5048 0.294472 8.33741 0.178349C8.17002 0.0622254 7.97115 0 7.76742 0C7.56369 0 7.36482 0.0622254 7.19743 0.178349C7.03003 0.294472 6.9021 0.458952 6.83075 0.649778L6.82742 0.660445L5.37409 4.77844C5.3512 4.84347 5.30871 4.89981 5.25248 4.93968C5.19624 4.97956 5.12902 5.00102 5.06009 5.00111H1.00075C0.795297 5.00096 0.594781 5.06409 0.426474 5.18192C0.258168 5.29976 0.130241 5.46657 0.0600929 5.65968C-0.0100556 5.85279 -0.0190209 6.06282 0.0344163 6.2612C0.0878535 6.45959 0.201099 6.6367 0.358752 6.76844L3.81475 9.63511C3.86645 9.67801 3.90397 9.73553 3.92241 9.80013C3.94085 9.86472 3.93934 9.93339 3.91809 9.99711L2.46609 14.3511C2.39898 14.5524 2.39766 14.7699 2.4623 14.972C2.52695 15.1741 2.65421 15.3504 2.82568 15.4754C2.99716 15.6004 3.20395 15.6676 3.41615 15.6673C3.62835 15.667 3.83496 15.5993 4.00609 15.4738L7.57009 12.8604C7.62724 12.8186 7.69624 12.796 7.76709 12.796C7.83793 12.796 7.90694 12.8186 7.96409 12.8604L11.5268 15.4731C11.6978 15.599 11.9045 15.6672 12.1169 15.6677C12.3293 15.6683 12.5363 15.6012 12.7081 15.4762C12.8798 15.3512 13.0072 15.1748 13.072 14.9725C13.1367 14.7702 13.1353 14.5526 13.0681 14.3511L11.6161 9.99444C11.5948 9.93072 11.5933 9.86206 11.6118 9.79746C11.6302 9.73286 11.6677 9.67534 11.7194 9.63244L15.1821 6.76178C15.3377 6.62891 15.4488 6.4515 15.5005 6.25348C15.5521 6.05547 15.5417 5.84638 15.4708 5.65444V5.65444Z" fill="#F8B816"/>
</svg>
