<svg width="136" height="96" viewBox="0 0 136 96" fill="none" xmlns="http://www.w3.org/2000/svg">
<rect width="136" height="96" rx="3" fill="url(#paint0_linear)"/>
<path d="M38.636 64.214H32.966V74H38.636V72.404H34.926V69.814H38.216V68.26H34.926V65.81H38.636V64.214ZM45.8492 74H47.8092V69.45C47.8092 67.308 46.5212 66.132 44.7152 66.132C43.7212 66.132 42.8812 66.552 42.3772 67.21V66.244H40.4172V74H42.3772V69.716C42.3772 68.47 43.0632 67.798 44.1272 67.798C45.1632 67.798 45.8492 68.47 45.8492 69.716V74ZM52.505 70.094C52.505 72.516 54.073 74.126 56.047 74.126C57.265 74.126 58.147 73.524 58.609 72.852V74.056C58.609 75.498 57.769 76.114 56.691 76.114C55.711 76.114 54.983 75.652 54.787 74.952H52.841C53.037 76.73 54.563 77.822 56.747 77.822C59.295 77.822 60.583 76.156 60.583 74.056V66.244H58.609V67.35C58.147 66.678 57.265 66.118 56.047 66.118C54.073 66.118 52.505 67.672 52.505 70.094ZM58.609 70.122C58.609 71.592 57.629 72.404 56.551 72.404C55.501 72.404 54.507 71.564 54.507 70.094C54.507 68.624 55.501 67.84 56.551 67.84C57.629 67.84 58.609 68.652 58.609 70.122ZM64.4573 70.136C64.4573 68.638 65.1573 68.19 66.3193 68.19H66.8373V66.132C65.7593 66.132 64.9473 66.65 64.4573 67.448V66.244H62.4973V74H64.4573V70.136ZM75.6474 70.122C75.6474 67.672 73.8974 66.118 71.6574 66.118C69.4174 66.118 67.6674 67.672 67.6674 70.122C67.6674 72.558 69.3614 74.126 71.6014 74.126C73.8554 74.126 75.6474 72.558 75.6474 70.122ZM69.6554 70.122C69.6554 68.568 70.5934 67.826 71.6294 67.826C72.6654 67.826 73.6314 68.568 73.6314 70.122C73.6314 71.662 72.6374 72.418 71.6014 72.418C70.5514 72.418 69.6554 71.662 69.6554 70.122ZM84.4071 66.244H82.4331V70.514C82.4331 71.76 81.7611 72.432 80.6971 72.432C79.6611 72.432 78.9751 71.76 78.9751 70.514V66.244H77.0151V70.794C77.0151 72.922 78.3171 74.098 80.1231 74.098C81.0891 74.098 81.9431 73.678 82.4331 73.02V74H84.4071V66.244ZM88.301 67.364V66.244H86.341V77.696H88.301V72.894C88.777 73.524 89.645 74.126 90.863 74.126C92.851 74.126 94.405 72.516 94.405 70.094C94.405 67.672 92.851 66.118 90.863 66.118C89.659 66.118 88.763 66.706 88.301 67.364ZM92.403 70.094C92.403 71.564 91.409 72.404 90.345 72.404C89.295 72.404 88.301 71.592 88.301 70.122C88.301 68.652 89.295 67.84 90.345 67.84C91.409 67.84 92.403 68.624 92.403 70.094ZM99.1613 67.728C100.169 67.728 100.981 68.372 101.009 69.394H97.3273C97.4813 68.33 98.2233 67.728 99.1613 67.728ZM102.843 71.564H100.729C100.477 72.082 100.015 72.502 99.1753 72.502C98.1953 72.502 97.4113 71.858 97.3133 70.71H102.983C103.025 70.458 103.039 70.206 103.039 69.954C103.039 67.644 101.457 66.118 99.2173 66.118C96.9213 66.118 95.3253 67.672 95.3253 70.122C95.3253 72.558 96.9633 74.126 99.2173 74.126C101.135 74.126 102.423 72.992 102.843 71.564Z" fill="white"/>
<g clip-path="url(#clip0)">
<path d="M70.6667 42.6667V47.3333C70.6667 47.5653 70.7254 48.064 70.732 48.1467L71.336 55.3893C71.3501 55.5558 71.4261 55.7109 71.5491 55.824C71.672 55.9371 71.833 55.9999 72 56H77.3334C77.5009 56.0006 77.6625 55.9381 77.786 55.8249C77.9096 55.7118 77.986 55.5563 78 55.3893L78.5907 48.3053C78.5977 48.2225 78.6353 48.1454 78.6962 48.0889C78.7571 48.0324 78.837 48.0007 78.92 48H81.3334C81.5102 48 81.6797 47.9298 81.8048 47.8047C81.9298 47.6797 82 47.5101 82 47.3333V42.6667C82.0025 41.2083 81.5694 39.7824 80.7563 38.5718C79.9431 37.3612 78.7869 36.421 77.4359 35.8718C76.0849 35.3226 74.6007 35.1893 73.1735 35.4892C71.7463 35.789 70.4411 36.5082 69.4254 37.5547C69.3744 37.6067 69.3421 37.6742 69.3334 37.7465C69.3247 37.8188 69.3402 37.892 69.3774 37.9547C70.2213 39.3815 70.6666 41.0089 70.6667 42.6667Z" fill="white"/>
<path d="M74.6667 33.3333C77.244 33.3333 79.3333 31.244 79.3333 28.6667C79.3333 26.0893 77.244 24 74.6667 24C72.0893 24 70 26.0893 70 28.6667C70 31.244 72.0893 33.3333 74.6667 33.3333Z" fill="white"/>
<path d="M54 47.3334C54 47.5102 54.0702 47.6798 54.1953 47.8048C54.3203 47.9298 54.4899 48 54.6667 48H57.08C57.1635 48.0001 57.244 48.0315 57.3055 48.088C57.367 48.1446 57.405 48.2221 57.412 48.3054L58 55.3894C58.0141 55.5563 58.0905 55.7118 58.214 55.825C58.3375 55.9381 58.4991 56.0006 58.6667 56H64C64.1675 56.0006 64.3291 55.9381 64.4527 55.825C64.5762 55.7118 64.6526 55.5563 64.6667 55.3894L65.2573 48.3054C65.2643 48.2226 65.3019 48.1454 65.3629 48.0889C65.4238 48.0324 65.5036 48.0007 65.5867 48H68C68.1768 48 68.3464 47.9298 68.4714 47.8048C68.5964 47.6798 68.6667 47.5102 68.6667 47.3334V42.6667C68.6667 40.7218 67.894 38.8565 66.5188 37.4813C65.1435 36.106 63.2783 35.3334 61.3333 35.3334C59.3884 35.3334 57.5232 36.106 56.1479 37.4813C54.7726 38.8565 54 40.7218 54 42.6667V47.3334Z" fill="white"/>
<path d="M61.3333 33.3333C63.9106 33.3333 66 31.244 66 28.6667C66 26.0893 63.9106 24 61.3333 24C58.756 24 56.6666 26.0893 56.6666 28.6667C56.6666 31.244 58.756 33.3333 61.3333 33.3333Z" fill="white"/>
<path d="M70.6667 42.6667V47.3333C70.6667 47.5653 70.7254 48.064 70.732 48.1467L71.336 55.3893C71.3501 55.5558 71.4261 55.7109 71.5491 55.824C71.672 55.9371 71.833 55.9999 72 56H77.3334C77.5009 56.0006 77.6625 55.9381 77.786 55.8249C77.9096 55.7118 77.986 55.5563 78 55.3893L78.5907 48.3053C78.5977 48.2225 78.6353 48.1454 78.6962 48.0889C78.7571 48.0324 78.837 48.0007 78.92 48H81.3334C81.5102 48 81.6797 47.9298 81.8048 47.8047C81.9298 47.6797 82 47.5101 82 47.3333V42.6667C82.0025 41.2083 81.5694 39.7824 80.7563 38.5718C79.9431 37.3612 78.7869 36.421 77.4359 35.8718C76.0849 35.3226 74.6007 35.1893 73.1735 35.4892C71.7463 35.789 70.4411 36.5082 69.4254 37.5547C69.3744 37.6067 69.3421 37.6742 69.3334 37.7465C69.3247 37.8188 69.3402 37.892 69.3774 37.9547C70.2213 39.3815 70.6666 41.0089 70.6667 42.6667Z" fill="white"/>
<path d="M74.6667 33.3333C77.244 33.3333 79.3333 31.244 79.3333 28.6667C79.3333 26.0893 77.244 24 74.6667 24C72.0893 24 70 26.0893 70 28.6667C70 31.244 72.0893 33.3333 74.6667 33.3333Z" fill="white"/>
<path d="M54 47.3334C54 47.5102 54.0702 47.6798 54.1953 47.8048C54.3203 47.9298 54.4899 48 54.6667 48H57.08C57.1635 48.0001 57.244 48.0315 57.3055 48.088C57.367 48.1446 57.405 48.2221 57.412 48.3054L58 55.3894C58.0141 55.5563 58.0905 55.7118 58.214 55.825C58.3375 55.9381 58.4991 56.0006 58.6667 56H64C64.1675 56.0006 64.3291 55.9381 64.4527 55.825C64.5762 55.7118 64.6526 55.5563 64.6667 55.3894L65.2573 48.3054C65.2643 48.2226 65.3019 48.1454 65.3629 48.0889C65.4238 48.0324 65.5036 48.0007 65.5867 48H68C68.1768 48 68.3464 47.9298 68.4714 47.8048C68.5964 47.6798 68.6667 47.5102 68.6667 47.3334V42.6667C68.6667 40.7218 67.894 38.8565 66.5188 37.4813C65.1435 36.106 63.2783 35.3334 61.3333 35.3334C59.3884 35.3334 57.5232 36.106 56.1479 37.4813C54.7726 38.8565 54 40.7218 54 42.6667V47.3334Z" fill="white"/>
<path d="M61.3333 33.3333C63.9106 33.3333 66 31.244 66 28.6667C66 26.0893 63.9106 24 61.3333 24C58.756 24 56.6666 26.0893 56.6666 28.6667C56.6666 31.244 58.756 33.3333 61.3333 33.3333Z" fill="white"/>
</g>
<defs>
<linearGradient id="paint0_linear" x1="136" y1="5.74191e-06" x2="-2.20187e-06" y2="96" gradientUnits="userSpaceOnUse">
<stop stop-color="#79C792"/>
<stop offset="1" stop-color="#79C792"/>
</linearGradient>
<clipPath id="clip0">
<rect width="32" height="32" fill="white" transform="translate(52 24)"/>
</clipPath>
</defs>
</svg>
