<svg width="136" height="96" viewBox="0 0 136 96" fill="none" xmlns="http://www.w3.org/2000/svg">
<rect width="136" height="96" rx="3" fill="url(#paint0_linear)"/>
<path d="M38.636 64.214H32.966V74H38.636V72.404H34.926V69.814H38.216V68.26H34.926V65.81H38.636V64.214ZM45.8492 74H47.8092V69.45C47.8092 67.308 46.5212 66.132 44.7152 66.132C43.7212 66.132 42.8812 66.552 42.3772 67.21V66.244H40.4172V74H42.3772V69.716C42.3772 68.47 43.0632 67.798 44.1272 67.798C45.1632 67.798 45.8492 68.47 45.8492 69.716V74ZM52.505 70.094C52.505 72.516 54.073 74.126 56.047 74.126C57.265 74.126 58.147 73.524 58.609 72.852V74.056C58.609 75.498 57.769 76.114 56.691 76.114C55.711 76.114 54.983 75.652 54.787 74.952H52.841C53.037 76.73 54.563 77.822 56.747 77.822C59.295 77.822 60.583 76.156 60.583 74.056V66.244H58.609V67.35C58.147 66.678 57.265 66.118 56.047 66.118C54.073 66.118 52.505 67.672 52.505 70.094ZM58.609 70.122C58.609 71.592 57.629 72.404 56.551 72.404C55.501 72.404 54.507 71.564 54.507 70.094C54.507 68.624 55.501 67.84 56.551 67.84C57.629 67.84 58.609 68.652 58.609 70.122ZM64.4573 70.136C64.4573 68.638 65.1573 68.19 66.3193 68.19H66.8373V66.132C65.7593 66.132 64.9473 66.65 64.4573 67.448V66.244H62.4973V74H64.4573V70.136ZM75.6474 70.122C75.6474 67.672 73.8974 66.118 71.6574 66.118C69.4174 66.118 67.6674 67.672 67.6674 70.122C67.6674 72.558 69.3614 74.126 71.6014 74.126C73.8554 74.126 75.6474 72.558 75.6474 70.122ZM69.6554 70.122C69.6554 68.568 70.5934 67.826 71.6294 67.826C72.6654 67.826 73.6314 68.568 73.6314 70.122C73.6314 71.662 72.6374 72.418 71.6014 72.418C70.5514 72.418 69.6554 71.662 69.6554 70.122ZM84.4071 66.244H82.4331V70.514C82.4331 71.76 81.7611 72.432 80.6971 72.432C79.6611 72.432 78.9751 71.76 78.9751 70.514V66.244H77.0151V70.794C77.0151 72.922 78.3171 74.098 80.1231 74.098C81.0891 74.098 81.9431 73.678 82.4331 73.02V74H84.4071V66.244ZM88.301 67.364V66.244H86.341V77.696H88.301V72.894C88.777 73.524 89.645 74.126 90.863 74.126C92.851 74.126 94.405 72.516 94.405 70.094C94.405 67.672 92.851 66.118 90.863 66.118C89.659 66.118 88.763 66.706 88.301 67.364ZM92.403 70.094C92.403 71.564 91.409 72.404 90.345 72.404C89.295 72.404 88.301 71.592 88.301 70.122C88.301 68.652 89.295 67.84 90.345 67.84C91.409 67.84 92.403 68.624 92.403 70.094ZM99.1613 67.728C100.169 67.728 100.981 68.372 101.009 69.394H97.3273C97.4813 68.33 98.2233 67.728 99.1613 67.728ZM102.843 71.564H100.729C100.477 72.082 100.015 72.502 99.1753 72.502C98.1953 72.502 97.4113 71.858 97.3133 70.71H102.983C103.025 70.458 103.039 70.206 103.039 69.954C103.039 67.644 101.457 66.118 99.2173 66.118C96.9213 66.118 95.3253 67.672 95.3253 70.122C95.3253 72.558 96.9633 74.126 99.2173 74.126C101.135 74.126 102.423 72.992 102.843 71.564Z" fill="white"/>

<path d="M70.6667 42.6667V47.3333C70.6667 47.5653 70.7254 48.064 70.732 48.1467L71.336 55.3893C71.3501 55.5558 71.4261 55.7109 71.5491 55.824C71.672 55.9371 71.833 55.9999 72 56H77.3334C77.5009 56.0006 77.6625 55.9381 77.786 55.8249C77.9096 55.7118 77.986 55.5563 78 55.3893L78.5907 48.3053C78.5977 48.2225 78.6353 48.1454 78.6962 48.0889C78.7571 48.0324 78.837 48.0007 78.92 48H81.3334C81.5102 48 81.6797 47.9298 81.8048 47.8047C81.9298 47.6797 82 47.5101 82 47.3333V42.6667C82.0025 41.2083 81.5694 39.7824 80.7563 38.5718C79.9431 37.3612 78.7869 36.421 77.4359 35.8718C76.0849 35.3226 74.6007 35.1893 73.1735 35.4892C71.7463 35.789 70.4411 36.5082 69.4254 37.5547C69.3744 37.6067 69.3421 37.6742 69.3334 37.7465C69.3247 37.8188 69.3402 37.892 69.3774 37.9547C70.2213 39.3815 70.6666 41.0089 70.6667 42.6667Z" fill="white"/>
<path d="M74.6667 33.3333C77.244 33.3333 79.3333 31.244 79.3333 28.6667C79.3333 26.0893 77.244 24 74.6667 24C72.0893 24 70 26.0893 70 28.6667C70 31.244 72.0893 33.3333 74.6667 33.3333Z" fill="white"/>
<path d="M54 47.3334C54 47.5102 54.0702 47.6798 54.1953 47.8048C54.3203 47.9298 54.4899 48 54.6667 48H57.08C57.1635 48.0001 57.244 48.0315 57.3055 48.088C57.367 48.1446 57.405 48.2221 57.412 48.3054L58 55.3894C58.0141 55.5563 58.0905 55.7118 58.214 55.825C58.3375 55.9381 58.4991 56.0006 58.6667 56H64C64.1675 56.0006 64.3291 55.9381 64.4527 55.825C64.5762 55.7118 64.6526 55.5563 64.6667 55.3894L65.2573 48.3054C65.2643 48.2226 65.3019 48.1454 65.3629 48.0889C65.4238 48.0324 65.5036 48.0007 65.5867 48H68C68.1768 48 68.3464 47.9298 68.4714 47.8048C68.5964 47.6798 68.6667 47.5102 68.6667 47.3334V42.6667C68.6667 40.7218 67.894 38.8565 66.5188 37.4813C65.1435 36.106 63.2783 35.3334 61.3333 35.3334C59.3884 35.3334 57.5232 36.106 56.1479 37.4813C54.7726 38.8565 54 40.7218 54 42.6667V47.3334Z" fill="white"/>
<path d="M61.3333 33.3333C63.9106 33.3333 66 31.244 66 28.6667C66 26.0893 63.9106 24 61.3333 24C58.756 24 56.6666 26.0893 56.6666 28.6667C56.6666 31.244 58.756 33.3333 61.3333 33.3333Z" fill="white"/>
<path d="M70.6667 42.6667V47.3333C70.6667 47.5653 70.7254 48.064 70.732 48.1467L71.336 55.3893C71.3501 55.5558 71.4261 55.7109 71.5491 55.824C71.672 55.9371 71.833 55.9999 72 56H77.3334C77.5009 56.0006 77.6625 55.9381 77.786 55.8249C77.9096 55.7118 77.986 55.5563 78 55.3893L78.5907 48.3053C78.5977 48.2225 78.6353 48.1454 78.6962 48.0889C78.7571 48.0324 78.837 48.0007 78.92 48H81.3334C81.5102 48 81.6797 47.9298 81.8048 47.8047C81.9298 47.6797 82 47.5101 82 47.3333V42.6667C82.0025 41.2083 81.5694 39.7824 80.7563 38.5718C79.9431 37.3612 78.7869 36.421 77.4359 35.8718C76.0849 35.3226 74.6007 35.1893 73.1735 35.4892C71.7463 35.789 70.4411 36.5082 69.4254 37.5547C69.3744 37.6067 69.3421 37.6742 69.3334 37.7465C69.3247 37.8188 69.3402 37.892 69.3774 37.9547C70.2213 39.3815 70.6666 41.0089 70.6667 42.6667Z" fill="white"/>
<path d="M74.6667 33.3333C77.244 33.3333 79.3333 31.244 79.3333 28.6667C79.3333 26.0893 77.244 24 74.6667 24C72.0893 24 70 26.0893 70 28.6667C70 31.244 72.0893 33.3333 74.6667 33.3333Z" fill="white"/>
<path d="M54 47.3334C54 47.5102 54.0702 47.6798 54.1953 47.8048C54.3203 47.9298 54.4899 48 54.6667 48H57.08C57.1635 48.0001 57.244 48.0315 57.3055 48.088C57.367 48.1446 57.405 48.2221 57.412 48.3054L58 55.3894C58.0141 55.5563 58.0905 55.7118 58.214 55.825C58.3375 55.9381 58.4991 56.0006 58.6667 56H64C64.1675 56.0006 64.3291 55.9381 64.4527 55.825C64.5762 55.7118 64.6526 55.5563 64.6667 55.3894L65.2573 48.3054C65.2643 48.2226 65.3019 48.1454 65.3629 48.0889C65.4238 48.0324 65.5036 48.0007 65.5867 48H68C68.1768 48 68.3464 47.9298 68.4714 47.8048C68.5964 47.6798 68.6667 47.5102 68.6667 47.3334V42.6667C68.6667 40.7218 67.894 38.8565 66.5188 37.4813C65.1435 36.106 63.2783 35.3334 61.3333 35.3334C59.3884 35.3334 57.5232 36.106 56.1479 37.4813C54.7726 38.8565 54 40.7218 54 42.6667V47.3334Z" fill="white"/>
<path d="M61.3333 33.3333C63.9106 33.3333 66 31.244 66 28.6667C66 26.0893 63.9106 24 61.3333 24C58.756 24 56.6666 26.0893 56.6666 28.6667C56.6666 31.244 58.756 33.3333 61.3333 33.3333Z" fill="white"/>

<path d="M126.718 18.35L124.88 16.872C124.737 16.7568 124.626 16.6075 124.556 16.4378C124.486 16.268 124.46 16.0834 124.48 15.901L124.735 13.556C124.769 13.2446 124.733 12.9295 124.63 12.6339C124.526 12.3383 124.357 12.0698 124.136 11.8482C123.914 11.6267 123.646 11.4577 123.35 11.3538C123.055 11.2499 122.739 11.2138 122.428 11.248L120.08 11.5C119.898 11.5202 119.713 11.4942 119.543 11.4243C119.374 11.3544 119.224 11.2429 119.109 11.1L117.631 9.26302C117.429 9.02906 117.178 8.84139 116.897 8.71277C116.615 8.58415 116.309 8.51758 116 8.51758C115.691 8.51758 115.385 8.58415 115.103 8.71277C114.822 8.84139 114.572 9.02906 114.369 9.26302L112.891 11.1C112.776 11.2434 112.627 11.3552 112.457 11.4252C112.287 11.4951 112.103 11.5209 111.92 11.5L109.575 11.248C109.264 11.2136 108.949 11.2497 108.653 11.3534C108.357 11.4572 108.089 11.626 107.867 11.8475C107.646 12.069 107.477 12.3374 107.373 12.633C107.269 12.9285 107.233 13.2436 107.267 13.555L107.522 15.9C107.543 16.0825 107.517 16.2672 107.447 16.437C107.377 16.6068 107.265 16.7561 107.122 16.871L105.282 18.35C105.038 18.5461 104.841 18.7944 104.706 19.0766C104.57 19.3589 104.5 19.668 104.5 19.981C104.5 20.2941 104.57 20.6031 104.706 20.8854C104.841 21.1677 105.038 21.416 105.282 21.612L107.12 23.09C107.263 23.205 107.375 23.3543 107.445 23.5241C107.515 23.6938 107.541 23.8786 107.52 24.061L107.265 26.406C107.231 26.7174 107.267 27.0325 107.37 27.3281C107.474 27.6237 107.643 27.8922 107.865 28.1138C108.086 28.3354 108.354 28.5043 108.65 28.6082C108.946 28.7121 109.261 28.7483 109.572 28.714L111.918 28.459C112.1 28.4387 112.285 28.4647 112.455 28.5346C112.625 28.6045 112.774 28.7161 112.889 28.859L114.369 30.7C114.565 30.9441 114.813 31.141 115.096 31.2764C115.378 31.4117 115.687 31.4819 116 31.4819C116.313 31.4819 116.622 31.4117 116.904 31.2764C117.187 31.141 117.435 30.9441 117.631 30.7L119.109 28.862C119.224 28.7192 119.374 28.6077 119.543 28.5378C119.713 28.4679 119.898 28.4418 120.08 28.462L122.425 28.717C122.736 28.7514 123.052 28.7154 123.347 28.6116C123.643 28.5079 123.911 28.339 124.133 28.1175C124.354 27.8961 124.523 27.6276 124.627 27.3321C124.731 27.0365 124.767 26.7214 124.733 26.41L124.478 24.064C124.457 23.8816 124.483 23.6968 124.553 23.527C124.623 23.3571 124.735 23.2078 124.878 23.093L126.716 21.615C126.96 21.419 127.157 21.1707 127.292 20.8884C127.428 20.6061 127.498 20.2971 127.498 19.984C127.498 19.671 127.428 19.3619 127.292 19.0796C127.157 18.7974 126.96 18.5491 126.716 18.353L126.718 18.35ZM116.4 23.048C116.246 23.2481 116.052 23.4134 115.83 23.5329C115.608 23.6524 115.363 23.7235 115.111 23.7415C114.86 23.7594 114.607 23.7238 114.37 23.6371C114.133 23.5503 113.918 23.4143 113.737 23.238L111.293 20.8C111.198 20.7078 111.121 20.5974 111.069 20.4754C111.017 20.3534 110.989 20.2222 110.988 20.0894C110.987 19.9566 111.012 19.825 111.062 19.7021C111.113 19.5792 111.187 19.4675 111.281 19.3736C111.375 19.2797 111.486 19.2055 111.609 19.1552C111.732 19.1049 111.864 19.0796 111.996 19.0808C112.129 19.0819 112.26 19.1095 112.382 19.1619C112.504 19.2143 112.615 19.2905 112.707 19.386L114.958 21.637L118.867 16.426C119.026 16.2138 119.263 16.0736 119.526 16.0361C119.656 16.0175 119.788 16.0247 119.915 16.0573C120.042 16.0899 120.162 16.1472 120.267 16.226C120.372 16.3048 120.461 16.4035 120.528 16.5165C120.594 16.6295 120.638 16.7546 120.657 16.8846C120.676 17.0146 120.668 17.147 120.636 17.2742C120.603 17.4014 120.546 17.521 120.467 17.626L116.4 23.048Z" fill="white"/>
<defs>
<linearGradient id="paint0_linear" x1="136" y1="5.74191e-06" x2="-2.20187e-06" y2="96" gradientUnits="userSpaceOnUse">
<stop stop-color="#79C792"/>
<stop offset="1" stop-color="#79C792"/>
</linearGradient>
<clipPath id="clip0">
<rect width="32" height="32" fill="white" transform="translate(52 24)"/>
</clipPath>
</defs>
</svg>
