<svg width="137" height="97" viewBox="0 0 137 97" fill="none" xmlns="http://www.w3.org/2000/svg">
<rect y="1" width="136" height="96" rx="3" fill="url(#paint0_linear)"/>
<path d="M38.636 65.214H32.966V75H38.636V73.404H34.926V70.814H38.216V69.26H34.926V66.81H38.636V65.214ZM45.8492 75H47.8092V70.45C47.8092 68.308 46.5212 67.132 44.7152 67.132C43.7212 67.132 42.8812 67.552 42.3772 68.21V67.244H40.4172V75H42.3772V70.716C42.3772 69.47 43.0632 68.798 44.1272 68.798C45.1632 68.798 45.8492 69.47 45.8492 70.716V75ZM52.505 71.094C52.505 73.516 54.073 75.126 56.047 75.126C57.265 75.126 58.147 74.524 58.609 73.852V75.056C58.609 76.498 57.769 77.114 56.691 77.114C55.711 77.114 54.983 76.652 54.787 75.952H52.841C53.037 77.73 54.563 78.822 56.747 78.822C59.295 78.822 60.583 77.156 60.583 75.056V67.244H58.609V68.35C58.147 67.678 57.265 67.118 56.047 67.118C54.073 67.118 52.505 68.672 52.505 71.094ZM58.609 71.122C58.609 72.592 57.629 73.404 56.551 73.404C55.501 73.404 54.507 72.564 54.507 71.094C54.507 69.624 55.501 68.84 56.551 68.84C57.629 68.84 58.609 69.652 58.609 71.122ZM64.4573 71.136C64.4573 69.638 65.1573 69.19 66.3193 69.19H66.8373V67.132C65.7593 67.132 64.9473 67.65 64.4573 68.448V67.244H62.4973V75H64.4573V71.136ZM75.6474 71.122C75.6474 68.672 73.8974 67.118 71.6574 67.118C69.4174 67.118 67.6674 68.672 67.6674 71.122C67.6674 73.558 69.3614 75.126 71.6014 75.126C73.8554 75.126 75.6474 73.558 75.6474 71.122ZM69.6554 71.122C69.6554 69.568 70.5934 68.826 71.6294 68.826C72.6654 68.826 73.6314 69.568 73.6314 71.122C73.6314 72.662 72.6374 73.418 71.6014 73.418C70.5514 73.418 69.6554 72.662 69.6554 71.122ZM84.4071 67.244H82.4331V71.514C82.4331 72.76 81.7611 73.432 80.6971 73.432C79.6611 73.432 78.9751 72.76 78.9751 71.514V67.244H77.0151V71.794C77.0151 73.922 78.3171 75.098 80.1231 75.098C81.0891 75.098 81.9431 74.678 82.4331 74.02V75H84.4071V67.244ZM88.301 68.364V67.244H86.341V78.696H88.301V73.894C88.777 74.524 89.645 75.126 90.863 75.126C92.851 75.126 94.405 73.516 94.405 71.094C94.405 68.672 92.851 67.118 90.863 67.118C89.659 67.118 88.763 67.706 88.301 68.364ZM92.403 71.094C92.403 72.564 91.409 73.404 90.345 73.404C89.295 73.404 88.301 72.592 88.301 71.122C88.301 69.652 89.295 68.84 90.345 68.84C91.409 68.84 92.403 69.624 92.403 71.094ZM99.1613 68.728C100.169 68.728 100.981 69.372 101.009 70.394H97.3273C97.4813 69.33 98.2233 68.728 99.1613 68.728ZM102.843 72.564H100.729C100.477 73.082 100.015 73.502 99.1753 73.502C98.1953 73.502 97.4113 72.858 97.3133 71.71H102.983C103.025 71.458 103.039 71.206 103.039 70.954C103.039 68.644 101.457 67.118 99.2173 67.118C96.9213 67.118 95.3253 68.672 95.3253 71.122C95.3253 73.558 96.9633 75.126 99.2173 75.126C101.135 75.126 102.423 73.992 102.843 72.564Z" fill="white"/>
<path d="M70.6667 43.6667V48.3333C70.6667 48.5653 70.7254 49.064 70.732 49.1467L71.336 56.3893C71.3501 56.5558 71.4261 56.7109 71.5491 56.824C71.672 56.9371 71.833 56.9999 72 57H77.3334C77.5009 57.0006 77.6625 56.9381 77.786 56.8249C77.9096 56.7118 77.986 56.5563 78 56.3893L78.5907 49.3053C78.5977 49.2225 78.6353 49.1454 78.6962 49.0889C78.7571 49.0324 78.837 49.0007 78.92 49H81.3334C81.5102 49 81.6797 48.9298 81.8048 48.8047C81.9298 48.6797 82 48.5101 82 48.3333V43.6667C82.0025 42.2083 81.5694 40.7824 80.7563 39.5718C79.9431 38.3612 78.7869 37.421 77.4359 36.8718C76.0849 36.3226 74.6007 36.1893 73.1735 36.4892C71.7463 36.789 70.4411 37.5082 69.4254 38.5547C69.3744 38.6067 69.3421 38.6742 69.3334 38.7465C69.3247 38.8188 69.3402 38.892 69.3774 38.9547C70.2213 40.3815 70.6666 42.0089 70.6667 43.6667V43.6667Z" fill="white"/>
<path d="M74.6667 34.3333C77.244 34.3333 79.3333 32.244 79.3333 29.6667C79.3333 27.0893 77.244 25 74.6667 25C72.0893 25 70 27.0893 70 29.6667C70 32.244 72.0893 34.3333 74.6667 34.3333Z" fill="white"/>
<path d="M54 48.3334C54 48.5102 54.0702 48.6798 54.1953 48.8048C54.3203 48.9298 54.4899 49 54.6667 49H57.08C57.1635 49.0001 57.244 49.0315 57.3055 49.088C57.367 49.1446 57.405 49.2221 57.412 49.3054L58 56.3894C58.0141 56.5563 58.0905 56.7118 58.214 56.825C58.3375 56.9381 58.4991 57.0006 58.6667 57H64C64.1675 57.0006 64.3291 56.9381 64.4527 56.825C64.5762 56.7118 64.6526 56.5563 64.6667 56.3894L65.2573 49.3054C65.2643 49.2226 65.3019 49.1454 65.3629 49.0889C65.4238 49.0324 65.5036 49.0007 65.5867 49H68C68.1768 49 68.3464 48.9298 68.4714 48.8048C68.5964 48.6798 68.6667 48.5102 68.6667 48.3334V43.6667C68.6667 41.7218 67.894 39.8565 66.5188 38.4813C65.1435 37.106 63.2783 36.3334 61.3333 36.3334C59.3884 36.3334 57.5232 37.106 56.1479 38.4813C54.7726 39.8565 54 41.7218 54 43.6667V48.3334Z" fill="white"/>
<path d="M61.3333 34.3333C63.9106 34.3333 66 32.244 66 29.6667C66 27.0893 63.9106 25 61.3333 25C58.756 25 56.6666 27.0893 56.6666 29.6667C56.6666 32.244 58.756 34.3333 61.3333 34.3333Z" fill="white"/>
<path d="M70.6667 43.6667V48.3333C70.6667 48.5653 70.7254 49.064 70.732 49.1467L71.336 56.3893C71.3501 56.5558 71.4261 56.7109 71.5491 56.824C71.672 56.9371 71.833 56.9999 72 57H77.3334C77.5009 57.0006 77.6625 56.9381 77.786 56.8249C77.9096 56.7118 77.986 56.5563 78 56.3893L78.5907 49.3053C78.5977 49.2225 78.6353 49.1454 78.6962 49.0889C78.7571 49.0324 78.837 49.0007 78.92 49H81.3334C81.5102 49 81.6797 48.9298 81.8048 48.8047C81.9298 48.6797 82 48.5101 82 48.3333V43.6667C82.0025 42.2083 81.5694 40.7824 80.7563 39.5718C79.9431 38.3612 78.7869 37.421 77.4359 36.8718C76.0849 36.3226 74.6007 36.1893 73.1735 36.4892C71.7463 36.789 70.4411 37.5082 69.4254 38.5547C69.3744 38.6067 69.3421 38.6742 69.3334 38.7465C69.3247 38.8188 69.3402 38.892 69.3774 38.9547C70.2213 40.3815 70.6666 42.0089 70.6667 43.6667V43.6667Z" fill="white"/>
<path d="M74.6667 34.3333C77.244 34.3333 79.3333 32.244 79.3333 29.6667C79.3333 27.0893 77.244 25 74.6667 25C72.0893 25 70 27.0893 70 29.6667C70 32.244 72.0893 34.3333 74.6667 34.3333Z" fill="white"/>
<path d="M54 48.3334C54 48.5102 54.0702 48.6798 54.1953 48.8048C54.3203 48.9298 54.4899 49 54.6667 49H57.08C57.1635 49.0001 57.244 49.0315 57.3055 49.088C57.367 49.1446 57.405 49.2221 57.412 49.3054L58 56.3894C58.0141 56.5563 58.0905 56.7118 58.214 56.825C58.3375 56.9381 58.4991 57.0006 58.6667 57H64C64.1675 57.0006 64.3291 56.9381 64.4527 56.825C64.5762 56.7118 64.6526 56.5563 64.6667 56.3894L65.2573 49.3054C65.2643 49.2226 65.3019 49.1454 65.3629 49.0889C65.4238 49.0324 65.5036 49.0007 65.5867 49H68C68.1768 49 68.3464 48.9298 68.4714 48.8048C68.5964 48.6798 68.6667 48.5102 68.6667 48.3334V43.6667C68.6667 41.7218 67.894 39.8565 66.5188 38.4813C65.1435 37.106 63.2783 36.3334 61.3333 36.3334C59.3884 36.3334 57.5232 37.106 56.1479 38.4813C54.7726 39.8565 54 41.7218 54 43.6667V48.3334Z" fill="white"/>
<path d="M61.3333 34.3333C63.9106 34.3333 66 32.244 66 29.6667C66 27.0893 63.9106 25 61.3333 25C58.756 25 56.6666 27.0893 56.6666 29.6667C56.6666 32.244 58.756 34.3333 61.3333 34.3333Z" fill="white"/>
<line x1="0.28429" y1="0.588686" x2="136.284" y2="94.5887" stroke="white"/>
<line x1="0.710822" y1="95.5921" x2="134.711" y2="0.592105" stroke="white"/>
<defs>
<linearGradient id="paint0_linear" x1="136" y1="1.00001" x2="-2.20187e-06" y2="97" gradientUnits="userSpaceOnUse">
<stop stop-color="#E0E1DD"/>
<stop offset="1" stop-color="#E0E1DD"/>
</linearGradient>
<clipPath id="clip0">
<rect width="32" height="32" fill="white" transform="translate(52 25)"/>
</clipPath>
</defs>
</svg>
