<svg width="137" height="96" viewBox="0 0 137 96" fill="none" xmlns="http://www.w3.org/2000/svg">
<rect x="0.5" y="0.5" width="135" height="95" rx="2.5" fill="#E0E1DD" stroke="#E0E1DD"/>
<path d="M32.966 74H34.926V64.228H32.966V74ZM42.2945 74H44.2545V69.45C44.2545 67.308 42.9665 66.132 41.1605 66.132C40.1665 66.132 39.3265 66.552 38.8225 67.21V66.244H36.8625V74H38.8225V69.716C38.8225 68.47 39.5085 67.798 40.5725 67.798C41.6085 67.798 42.2945 68.47 42.2945 69.716V74ZM45.6143 70.094C45.6143 72.516 47.1823 74.126 49.1563 74.126C50.3743 74.126 51.2423 73.566 51.7043 72.852V74H53.6923V63.64H51.7043V67.322C51.1723 66.594 50.1923 66.118 49.1703 66.118C47.1823 66.118 45.6143 67.672 45.6143 70.094ZM51.7183 70.122C51.7183 71.592 50.7383 72.404 49.6603 72.404C48.6103 72.404 47.6163 71.564 47.6163 70.094C47.6163 68.624 48.6103 67.84 49.6603 67.84C50.7383 67.84 51.7183 68.652 51.7183 70.122ZM55.6066 74H57.5666V66.244H55.6066V74ZM56.6006 65.32C57.2866 65.32 57.8046 64.816 57.8046 64.172C57.8046 63.528 57.2866 63.024 56.6006 63.024C55.9006 63.024 55.3966 63.528 55.3966 64.172C55.3966 64.816 55.9006 65.32 56.6006 65.32ZM58.6771 66.244L61.5331 74H63.9131L66.7831 66.244H64.6971L62.7371 72.194L60.7771 66.244H58.6771ZM67.884 74H69.844V66.244H67.884V74ZM68.878 65.32C69.564 65.32 70.082 64.816 70.082 64.172C70.082 63.528 69.564 63.024 68.878 63.024C68.178 63.024 67.674 63.528 67.674 64.172C67.674 64.816 68.178 65.32 68.878 65.32ZM71.2765 70.094C71.2765 72.516 72.8445 74.126 74.8185 74.126C76.0365 74.126 76.9045 73.566 77.3665 72.852V74H79.3545V63.64H77.3665V67.322C76.8345 66.594 75.8545 66.118 74.8325 66.118C72.8445 66.118 71.2765 67.672 71.2765 70.094ZM77.3805 70.122C77.3805 71.592 76.4005 72.404 75.3225 72.404C74.2725 72.404 73.2785 71.564 73.2785 70.094C73.2785 68.624 74.2725 67.84 75.3225 67.84C76.4005 67.84 77.3805 68.652 77.3805 70.122ZM88.5907 66.244H86.6167V70.514C86.6167 71.76 85.9447 72.432 84.8807 72.432C83.8447 72.432 83.1587 71.76 83.1587 70.514V66.244H81.1987V70.794C81.1987 72.922 82.5007 74.098 84.3067 74.098C85.2727 74.098 86.1267 73.678 86.6167 73.02V74H88.5907V66.244ZM93.8566 67.728C94.8646 67.728 95.6766 68.372 95.7046 69.394H92.0226C92.1766 68.33 92.9186 67.728 93.8566 67.728ZM97.5386 71.564H95.4246C95.1726 72.082 94.7106 72.502 93.8706 72.502C92.8906 72.502 92.1066 71.858 92.0086 70.71H97.6786C97.7206 70.458 97.7346 70.206 97.7346 69.954C97.7346 67.644 96.1526 66.118 93.9126 66.118C91.6166 66.118 90.0206 67.672 90.0206 70.122C90.0206 72.558 91.6586 74.126 93.9126 74.126C95.8306 74.126 97.1186 72.992 97.5386 71.564ZM99.1652 74H101.125V63.64H99.1652V74Z" fill="white"/>
<g clip-path="url(#clip0)">
<path d="M68 35.3334C66.0557 35.3355 64.1917 36.1088 62.8168 37.4836C61.442 38.8584 60.6687 40.7224 60.6666 42.6667V47.3334C60.6666 47.5102 60.7369 47.6798 60.8619 47.8048C60.9869 47.9298 61.1565 48 61.3333 48H63.7466C63.8302 48.0001 63.9106 48.0315 63.9721 48.088C64.0336 48.1446 64.0716 48.2221 64.0786 48.3054L64.6666 55.3894C64.6807 55.5563 64.7571 55.7118 64.8806 55.825C65.0042 55.9381 65.1658 56.0006 65.3333 56H70.6666C70.8341 56.0006 70.9958 55.9381 71.1193 55.825C71.2428 55.7118 71.3192 55.5563 71.3333 55.3894L71.924 48.3054C71.9309 48.2226 71.9686 48.1454 72.0295 48.0889C72.0904 48.0324 72.1702 48.0007 72.2533 48H74.6666C74.8434 48 75.013 47.9298 75.138 47.8048C75.2631 47.6798 75.3333 47.5102 75.3333 47.3334V42.6667C75.3312 40.7224 74.5579 38.8584 73.1831 37.4836C71.8083 36.1088 69.9442 35.3355 68 35.3334Z" fill="white"/>
<path d="M68 33.3333C70.5774 33.3333 72.6667 31.244 72.6667 28.6667C72.6667 26.0893 70.5774 24 68 24C65.4227 24 63.3334 26.0893 63.3334 28.6667C63.3334 31.244 65.4227 33.3333 68 33.3333Z" fill="white"/>
<path d="M68 35.3334C66.0557 35.3355 64.1917 36.1088 62.8168 37.4836C61.442 38.8584 60.6687 40.7224 60.6666 42.6667V47.3334C60.6666 47.5102 60.7369 47.6798 60.8619 47.8048C60.9869 47.9298 61.1565 48 61.3333 48H63.7466C63.8302 48.0001 63.9106 48.0315 63.9721 48.088C64.0336 48.1446 64.0716 48.2221 64.0786 48.3054L64.6666 55.3894C64.6807 55.5563 64.7571 55.7118 64.8806 55.825C65.0042 55.9381 65.1658 56.0006 65.3333 56H70.6666C70.8341 56.0006 70.9958 55.9381 71.1193 55.825C71.2428 55.7118 71.3192 55.5563 71.3333 55.3894L71.924 48.3054C71.9309 48.2226 71.9686 48.1454 72.0295 48.0889C72.0904 48.0324 72.1702 48.0007 72.2533 48H74.6666C74.8434 48 75.013 47.9298 75.138 47.8048C75.2631 47.6798 75.3333 47.5102 75.3333 47.3334V42.6667C75.3312 40.7224 74.5579 38.8584 73.1831 37.4836C71.8083 36.1088 69.9442 35.3355 68 35.3334Z" fill="white"/>
<path d="M68 33.3333C70.5774 33.3333 72.6667 31.244 72.6667 28.6667C72.6667 26.0893 70.5774 24 68 24C65.4227 24 63.3334 26.0893 63.3334 28.6667C63.3334 31.244 65.4227 33.3333 68 33.3333Z" fill="white"/>
</g>
<line x1="0.28429" y1="0.588686" x2="136.284" y2="94.5887" stroke="white"/>
<line x1="0.710822" y1="95.5921" x2="134.711" y2="0.592105" stroke="white"/>
<defs>
<clipPath id="clip0">
<rect width="32" height="32" fill="white" transform="translate(52 24)"/>
</clipPath>
</defs>
</svg>
