<svg width="24" height="24" viewBox="0 0 24 24" fill="none" xmlns="http://www.w3.org/2000/svg">
<g clip-path="url(#clip0)">
<path d="M23.3051 5.07502C22.8345 4.1594 22.1558 3.36689 21.3234 2.76117C20.491 2.15544 19.5281 1.75338 18.5121 1.58727C17.4962 1.42117 16.4554 1.49566 15.4735 1.80475C14.4915 2.11385 13.5957 2.64893 12.8581 3.36702L12.0001 4.14802L11.1721 3.39402C10.4361 2.66227 9.53629 2.11661 8.54722 1.80234C7.55814 1.48807 6.50837 1.41426 5.48505 1.58702C4.4676 1.74608 3.50274 2.14549 2.67055 2.7521C1.83837 3.35872 1.16285 4.15506 0.700054 5.07502C0.0816291 6.28694 -0.134477 7.66441 0.0831055 9.00748C0.300688 10.3506 0.940634 11.5893 1.91005 12.544L11.2831 22.2C11.3762 22.2959 11.4877 22.3721 11.6109 22.4241C11.734 22.4761 11.8664 22.503 12.0001 22.503C12.1337 22.503 12.2661 22.4761 12.3892 22.4241C12.5124 22.3721 12.6239 22.2959 12.7171 22.2L22.0761 12.562C23.0504 11.6069 23.6948 10.366 23.9158 9.01965C24.1368 7.67328 23.9229 6.29151 23.3051 5.07502ZM20.6571 11.151L12.3571 19.696C12.3105 19.744 12.2547 19.7821 12.1931 19.8081C12.1316 19.8341 12.0654 19.8475 11.9986 19.8475C11.9317 19.8475 11.8655 19.8341 11.804 19.8081C11.7424 19.7821 11.6867 19.744 11.6401 19.696L3.32705 11.136C2.65606 10.4783 2.21218 9.62379 2.05987 8.69662C1.90755 7.76944 2.05474 6.81786 2.48005 5.98002C2.80204 5.3414 3.27179 4.78885 3.85027 4.3683C4.42876 3.94774 5.09926 3.67133 5.80605 3.56202C6.52587 3.44091 7.26424 3.49421 7.9592 3.71745C8.65416 3.94069 9.28543 4.32737 9.80005 4.84502L11.3301 6.24502C11.5142 6.41283 11.7544 6.50584 12.0036 6.50584C12.2527 6.50584 12.4929 6.41283 12.6771 6.24502L14.2381 4.82202C14.7507 4.31205 15.3775 3.9317 16.0666 3.71256C16.7556 3.49342 17.487 3.44182 18.2001 3.56202C18.906 3.67191 19.5756 3.94861 20.1532 4.36915C20.7307 4.78968 21.1997 5.34192 21.5211 5.98002C21.9466 6.82159 22.0922 7.77704 21.9368 8.70717C21.7814 9.6373 21.333 10.4935 20.6571 11.151Z" fill="white"/>
</g>
<defs>
<clipPath id="clip0">
<rect width="24" height="24" fill="white"/>
</clipPath>
</defs>
</svg>
