<svg width="24" height="24" viewBox="0 0 24 24" fill="none" xmlns="http://www.w3.org/2000/svg">
<mask id="path-1-inside-1" fill="white">
<path d="M17.466 3.24016C17.3706 3.13121 17.2451 3.0545 17.1063 3.02017C16.9675 2.98584 16.8217 2.9955 16.6884 3.04788C16.555 3.10027 16.4402 3.1929 16.3593 3.31356C16.2783 3.43421 16.235 3.5772 16.235 3.72365V6.25832C16.2352 6.3059 16.2262 6.35304 16.2085 6.39704C16.1908 6.44103 16.1648 6.481 16.132 6.51464C16.0992 6.54828 16.0602 6.57493 16.0173 6.59305C15.9744 6.61117 15.9284 6.6204 15.882 6.62021H8.30104C6.10216 6.62097 3.99335 7.51599 2.43718 9.10894C0.881013 10.7019 0.00455878 12.8627 7.2916e-05 15.1174C-0.00660248 16.7308 0.445202 18.3112 1.30028 19.6656C1.3729 19.7823 1.47663 19.8752 1.59916 19.9332C1.7217 19.9913 1.85791 20.0121 1.99164 19.9932C2.12537 19.9743 2.25101 19.9165 2.35366 19.8266C2.45632 19.7368 2.53169 19.6186 2.57083 19.4861C2.9481 18.2761 3.68939 17.2197 4.68838 16.4684C5.68738 15.7171 6.89276 15.3095 8.13164 15.3041H15.882C15.9285 15.3041 15.9745 15.3135 16.0174 15.3318C16.0603 15.3501 16.0993 15.3769 16.1321 15.4106C16.1649 15.4444 16.1909 15.4844 16.2085 15.5285C16.2262 15.5726 16.2352 15.6198 16.235 15.6674V18.2007C16.2347 18.3472 16.2779 18.4904 16.3587 18.6113C16.4395 18.7322 16.5543 18.8251 16.6877 18.8776C16.8211 18.9302 16.967 18.94 17.106 18.9057C17.2449 18.8714 17.3705 18.7946 17.466 18.6856L23.8188 11.4478C23.9354 11.3149 24 11.1424 24 10.9636C24 10.7848 23.9354 10.6123 23.8188 10.4794L17.466 3.24016Z"/>
</mask>
<path d="M17.466 3.24016C17.3706 3.13121 17.2451 3.0545 17.1063 3.02017C16.9675 2.98584 16.8217 2.9955 16.6884 3.04788C16.555 3.10027 16.4402 3.1929 16.3593 3.31356C16.2783 3.43421 16.235 3.5772 16.235 3.72365V6.25832C16.2352 6.3059 16.2262 6.35304 16.2085 6.39704C16.1908 6.44103 16.1648 6.481 16.132 6.51464C16.0992 6.54828 16.0602 6.57493 16.0173 6.59305C15.9744 6.61117 15.9284 6.6204 15.882 6.62021H8.30104C6.10216 6.62097 3.99335 7.51599 2.43718 9.10894C0.881013 10.7019 0.00455878 12.8627 7.2916e-05 15.1174C-0.00660248 16.7308 0.445202 18.3112 1.30028 19.6656C1.3729 19.7823 1.47663 19.8752 1.59916 19.9332C1.7217 19.9913 1.85791 20.0121 1.99164 19.9932C2.12537 19.9743 2.25101 19.9165 2.35366 19.8266C2.45632 19.7368 2.53169 19.6186 2.57083 19.4861C2.9481 18.2761 3.68939 17.2197 4.68838 16.4684C5.68738 15.7171 6.89276 15.3095 8.13164 15.3041H15.882C15.9285 15.3041 15.9745 15.3135 16.0174 15.3318C16.0603 15.3501 16.0993 15.3769 16.1321 15.4106C16.1649 15.4444 16.1909 15.4844 16.2085 15.5285C16.2262 15.5726 16.2352 15.6198 16.235 15.6674V18.2007C16.2347 18.3472 16.2779 18.4904 16.3587 18.6113C16.4395 18.7322 16.5543 18.8251 16.6877 18.8776C16.8211 18.9302 16.967 18.94 17.106 18.9057C17.2449 18.8714 17.3705 18.7946 17.466 18.6856L23.8188 11.4478C23.9354 11.3149 24 11.1424 24 10.9636C24 10.7848 23.9354 10.6123 23.8188 10.4794L17.466 3.24016Z" fill="white"/>
<path d="M17.466 3.24016L16.7137 3.89904L16.7144 3.89975L17.466 3.24016ZM16.235 3.72365L15.235 3.72347V3.72365H16.235ZM16.235 6.25832H15.235L15.235 6.26225L16.235 6.25832ZM15.882 6.62021L15.8862 5.62021H15.882V6.62021ZM8.30104 6.62021V5.62021H8.3007L8.30104 6.62021ZM7.2916e-05 15.1174L1.00007 15.1215L1.00007 15.1194L7.2916e-05 15.1174ZM1.30028 19.6656L2.14929 19.1372L2.14586 19.1317L1.30028 19.6656ZM2.57083 19.4861L1.61616 19.1884L1.61394 19.1956L1.61182 19.2027L2.57083 19.4861ZM8.13164 15.3041V14.3041L8.12726 14.3041L8.13164 15.3041ZM15.882 15.3041V16.3041H15.882L15.882 15.3041ZM16.235 15.6674L15.235 15.6635V15.6674H16.235ZM16.235 18.2007L17.235 18.2024V18.2007H16.235ZM17.466 18.6856L16.7144 18.0259L16.7137 18.0267L17.466 18.6856ZM23.8188 11.4478L23.0672 10.7881L23.0672 10.7881L23.8188 11.4478ZM23.8188 10.4794L23.0672 11.139L23.0672 11.1391L23.8188 10.4794ZM18.2182 2.58129C17.9898 2.32051 17.6865 2.13351 17.3463 2.0494L16.8663 3.99093C16.8038 3.97549 16.7513 3.94191 16.7137 3.89904L18.2182 2.58129ZM17.3463 2.0494C17.006 1.96524 16.6486 1.98913 16.3228 2.1171L17.0539 3.97867C16.9948 4.00188 16.929 4.00643 16.8663 3.99093L17.3463 2.0494ZM16.3228 2.1171C15.9973 2.24495 15.7215 2.46935 15.5289 2.75641L17.1897 3.8707C17.159 3.91645 17.1127 3.95558 17.0539 3.97867L16.3228 2.1171ZM15.5289 2.75641C15.3365 3.04318 15.235 3.38034 15.235 3.72347L17.235 3.72382C17.235 3.77407 17.2202 3.82524 17.1897 3.8707L15.5289 2.75641ZM15.235 3.72365V6.25832H17.235V3.72365H15.235ZM15.235 6.26225C15.2347 6.18127 15.2499 6.10048 15.2805 6.02431L17.1364 6.76976C17.2024 6.6056 17.2356 6.43052 17.235 6.2544L15.235 6.26225ZM15.2805 6.02431C15.3111 5.94812 15.3568 5.87725 15.4161 5.81645L16.8479 7.21283C16.9728 7.08474 17.0705 6.93394 17.1364 6.76976L15.2805 6.02431ZM15.4161 5.81645C15.4754 5.7556 15.5473 5.70602 15.6283 5.67183L16.4064 7.51427C16.5731 7.44385 16.723 7.34097 16.8479 7.21283L15.4161 5.81645ZM15.6283 5.67183C15.7093 5.63762 15.797 5.61985 15.8862 5.62022L15.8779 7.6202C16.0599 7.62095 16.2395 7.58472 16.4064 7.51427L15.6283 5.67183ZM15.882 5.62021H8.30104V7.62021H15.882V5.62021ZM8.3007 5.62021C5.82883 5.62107 3.46341 6.62743 1.72186 8.41014L3.1525 9.80774C4.52329 8.40455 6.3755 7.62088 8.30139 7.62021L8.3007 5.62021ZM1.72186 8.41014C-0.0188535 10.192 -0.994928 12.6039 -0.999925 15.1154L1.00007 15.1194C1.00405 13.1215 1.78088 11.2118 3.1525 9.80774L1.72186 8.41014ZM-0.999919 15.1132C-1.00738 16.9155 -0.502793 18.6828 0.454696 20.1994L2.14586 19.1317C1.3932 17.9396 0.99417 16.546 1.00006 15.1215L-0.999919 15.1132ZM0.451285 20.194C0.623808 20.4712 0.872574 20.6955 1.17092 20.8369L2.02741 19.0296C2.08068 19.0548 2.12199 19.0934 2.14927 19.1372L0.451285 20.194ZM1.17092 20.8369C1.46953 20.9784 1.80321 21.0298 2.13152 20.9834L1.85175 19.0031C1.91261 18.9945 1.97387 19.0042 2.02741 19.0296L1.17092 20.8369ZM2.13152 20.9834C2.45973 20.937 2.76517 20.7955 3.01241 20.579L1.69491 19.0743C1.73684 19.0376 1.791 19.0116 1.85175 19.0031L2.13152 20.9834ZM3.01241 20.579C3.2594 20.3627 3.43774 20.0812 3.52984 19.7695L1.61182 19.2027C1.62564 19.156 1.65324 19.1108 1.69491 19.0743L3.01241 20.579ZM3.52551 19.7838C3.84131 18.7709 4.46046 17.891 5.28943 17.2676L4.08734 15.6692C2.91831 16.5483 2.05488 17.7813 1.61616 19.1884L3.52551 19.7838ZM5.28943 17.2676C6.118 16.6445 7.11452 16.3086 8.13601 16.3041L8.12726 14.3041C6.671 14.3105 5.25676 14.7897 4.08734 15.6692L5.28943 17.2676ZM8.13164 16.3041H15.882V14.3041H8.13164V16.3041ZM15.882 16.3041C15.7933 16.3041 15.7061 16.2861 15.6256 16.2518L16.4093 14.4118C16.243 14.3409 16.0637 14.3041 15.882 14.3041L15.882 16.3041ZM15.6256 16.2518C15.5451 16.2176 15.4737 16.168 15.4148 16.1074L16.8494 14.7138C16.7249 14.5857 16.5755 14.4826 16.4093 14.4118L15.6256 16.2518ZM15.4148 16.1074C15.3559 16.0468 15.3106 15.9762 15.2802 15.9003L17.1368 15.1567C17.0711 14.9927 16.9739 14.842 16.8494 14.7138L15.4148 16.1074ZM15.2802 15.9003C15.2498 15.8245 15.2347 15.7441 15.235 15.6635L17.235 15.6713C17.2356 15.4955 17.2025 15.3207 17.1368 15.1567L15.2802 15.9003ZM15.235 15.6674V18.2007H17.235V15.6674H15.235ZM15.235 18.1989C15.2344 18.5423 15.3353 18.8799 15.5274 19.1672L17.1899 18.0554C17.2204 18.1009 17.2351 18.1522 17.235 18.2024L15.235 18.1989ZM15.5274 19.1672C15.7198 19.4548 15.9955 19.6797 16.3212 19.808L17.0542 17.9472C17.113 17.9704 17.1593 18.0096 17.1899 18.0554L15.5274 19.1672ZM16.3212 19.808C16.6472 19.9364 17.0048 19.9606 17.3455 19.8766L16.8664 17.9348C16.9292 17.9193 16.9951 17.9239 17.0542 17.9472L16.3212 19.808ZM17.3455 19.8766C17.686 19.7926 17.9896 19.6055 18.2183 19.3445L16.7137 18.0267C16.7513 17.9838 16.8039 17.9502 16.8664 17.9348L17.3455 19.8766ZM18.2176 19.3453L24.5703 12.1075L23.0672 10.7881L16.7144 18.0259L18.2176 19.3453ZM24.5703 12.1075C24.8491 11.7899 25 11.3822 25 10.9636H23C23 10.9026 23.0218 10.8399 23.0672 10.7881L24.5703 12.1075ZM25 10.9636C25 10.545 24.8491 10.1373 24.5703 9.8197L23.0672 11.1391C23.0218 11.0873 23 11.0246 23 10.9636H25ZM24.5704 9.81981L18.2176 2.58058L16.7144 3.89975L23.0672 11.139L24.5704 9.81981Z" fill="white" mask="url(#path-1-inside-1)"/>
</svg>
