<svg width="136" height="105" viewBox="0 0 136 105" fill="none" xmlns="http://www.w3.org/2000/svg">
<rect x="0.5" y="0.5" width="135" height="104" rx="2.5" stroke="#E0E1DD"/>
<path d="M23.926 69.666V66.824H25.48C26.586 66.824 27.076 67.356 27.076 68.252C27.076 69.12 26.586 69.666 25.48 69.666H23.926ZM29.092 68.252C29.092 66.558 27.916 65.228 25.564 65.228H21.966V75H23.926V71.248H25.564C28.084 71.248 29.092 69.736 29.092 68.252ZM29.9796 71.094C29.9796 73.516 31.5476 75.126 33.5076 75.126C34.7396 75.126 35.6216 74.538 36.0836 73.866V75H38.0576V67.244H36.0836V68.35C35.6216 67.706 34.7676 67.118 33.5216 67.118C31.5476 67.118 29.9796 68.672 29.9796 71.094ZM36.0836 71.122C36.0836 72.592 35.1036 73.404 34.0256 73.404C32.9756 73.404 31.9816 72.564 31.9816 71.094C31.9816 69.624 32.9756 68.84 34.0256 68.84C35.1036 68.84 36.0836 69.652 36.0836 71.122ZM41.9319 71.136C41.9319 69.638 42.6319 69.19 43.7939 69.19H44.3119V67.132C43.2339 67.132 42.4219 67.65 41.9319 68.448V67.244H39.9719V75H41.9319V71.136ZM50.942 75.014L53.238 75L55.156 68.042L56.99 75H59.3L62.03 65.228H59.916L58.18 72.774L56.304 65.228H54.12L52.132 72.816L50.41 65.228H48.31L50.942 75.014ZM66.6418 68.728C67.6498 68.728 68.4618 69.372 68.4898 70.394H64.8078C64.9618 69.33 65.7038 68.728 66.6418 68.728ZM70.3238 72.564H68.2098C67.9578 73.082 67.4958 73.502 66.6558 73.502C65.6758 73.502 64.8918 72.858 64.7938 71.71H70.4638C70.5058 71.458 70.5198 71.206 70.5198 70.954C70.5198 68.644 68.9378 67.118 66.6978 67.118C64.4017 67.118 62.8057 68.672 62.8057 71.122C62.8057 73.558 64.4438 75.126 66.6978 75.126C68.6158 75.126 69.9038 73.992 70.3238 72.564ZM73.9104 68.378V64.64H71.9504V75H73.9104V73.894C74.3864 74.566 75.2544 75.126 76.4724 75.126C78.4604 75.126 80.0144 73.516 80.0144 71.094C80.0144 68.672 78.4604 67.118 76.4724 67.118C75.2964 67.118 74.3864 67.664 73.9104 68.378ZM78.0124 71.094C78.0124 72.564 77.0184 73.404 75.9544 73.404C74.9044 73.404 73.9104 72.592 73.9104 71.122C73.9104 69.652 74.9044 68.84 75.9544 68.84C77.0184 68.84 78.0124 69.624 78.0124 71.094ZM80.9347 71.122C80.9347 73.558 82.5307 75.126 84.7707 75.126C86.7027 75.126 88.0047 74.034 88.4247 72.382H86.3107C86.0727 73.082 85.5687 73.446 84.7567 73.446C83.6647 73.446 82.9367 72.634 82.9367 71.122C82.9367 69.61 83.6647 68.784 84.7567 68.784C85.5687 68.784 86.0867 69.204 86.3107 69.862H88.4247C88.0047 68.126 86.7027 67.118 84.7707 67.118C82.5307 67.118 80.9347 68.686 80.9347 71.122ZM89.3565 71.094C89.3565 73.516 90.9245 75.126 92.8845 75.126C94.1165 75.126 94.9985 74.538 95.4605 73.866V75H97.4345V67.244H95.4605V68.35C94.9985 67.706 94.1445 67.118 92.8985 67.118C90.9245 67.118 89.3565 68.672 89.3565 71.094ZM95.4605 71.122C95.4605 72.592 94.4805 73.404 93.4025 73.404C92.3525 73.404 91.3585 72.564 91.3585 71.094C91.3585 69.624 92.3525 68.84 93.4025 68.84C94.4805 68.84 95.4605 69.652 95.4605 71.122ZM110.199 75H112.159V70.45C112.159 68.308 110.843 67.132 108.981 67.132C107.847 67.132 106.825 67.734 106.321 68.616C105.789 67.65 104.795 67.132 103.591 67.132C102.625 67.132 101.799 67.538 101.309 68.182V67.244H99.3488V75H101.309V70.716C101.309 69.484 101.995 68.84 103.059 68.84C104.095 68.84 104.781 69.484 104.781 70.716V75H106.741V70.716C106.741 69.484 107.427 68.84 108.477 68.84C109.513 68.84 110.199 69.484 110.199 70.716V75Z" fill="black"/>
<path d="M68 49.0013C70.3734 49.0013 72.6935 48.2976 74.6668 46.979C76.6402 45.6604 78.1783 43.7863 79.0866 41.5935C79.9948 39.4008 80.2324 36.988 79.7694 34.6603C79.3064 32.3325 78.1635 30.1943 76.4853 28.5161C74.8071 26.8378 72.6689 25.6949 70.3411 25.2319C68.0133 24.7689 65.6005 25.0065 63.4078 25.9148C61.2151 26.823 59.3409 28.3611 58.0224 30.3345C56.7038 32.3079 56 34.628 56 37.0013C56.0035 40.1829 57.2689 43.2331 59.5186 45.4827C61.7683 47.7324 64.8185 48.9978 68 49.0013ZM68 27.0013C68.2637 27.0013 68.5215 27.0795 68.7408 27.2261C68.96 27.3726 69.1309 27.5808 69.2318 27.8244C69.3328 28.0681 69.3592 28.3362 69.3077 28.5948C69.2563 28.8534 69.1293 29.091 68.9428 29.2775C68.7563 29.464 68.5188 29.5909 68.2601 29.6424C68.0015 29.6938 67.7334 29.6674 67.4898 29.5665C67.2461 29.4656 67.0379 29.2947 66.8914 29.0754C66.7449 28.8562 66.6667 28.5984 66.6667 28.3347C66.6667 28.1596 66.7012 27.9862 66.7682 27.8244C66.8352 27.6627 66.9334 27.5157 67.0572 27.3919C67.181 27.2681 67.328 27.1698 67.4898 27.1028C67.6515 27.0358 67.8249 27.0013 68 27.0013ZM68 31.668C69.0548 31.668 70.086 31.9808 70.963 32.5668C71.8401 33.1529 72.5237 33.9858 72.9274 34.9604C73.331 35.9349 73.4366 37.0073 73.2309 38.0418C73.0251 39.0764 72.5171 40.0267 71.7712 40.7726C71.0254 41.5185 70.075 42.0264 69.0405 42.2322C68.0059 42.438 66.9336 42.3324 65.959 41.9287C64.9845 41.525 64.1515 40.8415 63.5655 39.9644C62.9795 39.0873 62.6667 38.0562 62.6667 37.0013C62.6667 35.5869 63.2286 34.2303 64.2288 33.2301C65.229 32.2299 66.5855 31.668 68 31.668Z" fill="#F8B816"/>
<path d="M76.7867 48.956C76.7525 48.8605 76.697 48.7741 76.6244 48.7033C76.5518 48.6325 76.4641 48.5792 76.3678 48.5474C76.2715 48.5157 76.1692 48.5063 76.0687 48.52C75.9683 48.5338 75.8723 48.5702 75.788 48.6266C73.475 50.1468 70.7678 50.9568 68 50.9568C65.2322 50.9568 62.525 50.1468 60.212 48.6266C60.1281 48.5694 60.032 48.5325 59.9313 48.5189C59.8306 48.5052 59.7282 48.5152 59.632 48.548C59.5358 48.5797 59.4481 48.6329 59.3756 48.7036C59.303 48.7743 59.2475 48.8606 59.2133 48.956L57.372 54.1106C57.3361 54.2113 57.3249 54.319 57.3394 54.4249C57.3538 54.5307 57.3935 54.6315 57.4551 54.7188C57.5166 54.8061 57.5983 54.8773 57.6931 54.9265C57.7879 54.9757 57.8932 55.0013 58 55.0013H78C78.1068 55.0013 78.2121 54.9757 78.3069 54.9265C78.4018 54.8773 78.4834 54.8061 78.545 54.7188C78.6065 54.6315 78.6462 54.5307 78.6606 54.4249C78.6751 54.319 78.6639 54.2113 78.628 54.1106L76.7867 48.956Z" fill="#F8B816"/>
</svg>
