<svg width="136" height="96" viewBox="0 0 136 96" fill="none" xmlns="http://www.w3.org/2000/svg">
<rect width="136" height="96" rx="3" fill="#79C792"/>
<path d="M23.926 68.666V65.824H25.48C26.586 65.824 27.076 66.356 27.076 67.252C27.076 68.12 26.586 68.666 25.48 68.666H23.926ZM29.092 67.252C29.092 65.558 27.916 64.228 25.564 64.228H21.966V74H23.926V70.248H25.564C28.084 70.248 29.092 68.736 29.092 67.252ZM29.9796 70.094C29.9796 72.516 31.5476 74.126 33.5076 74.126C34.7396 74.126 35.6216 73.538 36.0836 72.866V74H38.0576V66.244H36.0836V67.35C35.6216 66.706 34.7676 66.118 33.5216 66.118C31.5476 66.118 29.9796 67.672 29.9796 70.094ZM36.0836 70.122C36.0836 71.592 35.1036 72.404 34.0256 72.404C32.9756 72.404 31.9816 71.564 31.9816 70.094C31.9816 68.624 32.9756 67.84 34.0256 67.84C35.1036 67.84 36.0836 68.652 36.0836 70.122ZM41.9319 70.136C41.9319 68.638 42.6319 68.19 43.7939 68.19H44.3119V66.132C43.2339 66.132 42.4219 66.65 41.9319 67.448V66.244H39.9719V74H41.9319V70.136ZM50.942 74.014L53.238 74L55.156 67.042L56.99 74H59.3L62.03 64.228H59.916L58.18 71.774L56.304 64.228H54.12L52.132 71.816L50.41 64.228H48.31L50.942 74.014ZM66.6418 67.728C67.6498 67.728 68.4618 68.372 68.4898 69.394H64.8078C64.9618 68.33 65.7038 67.728 66.6418 67.728ZM70.3238 71.564H68.2098C67.9578 72.082 67.4958 72.502 66.6558 72.502C65.6758 72.502 64.8918 71.858 64.7938 70.71H70.4638C70.5058 70.458 70.5198 70.206 70.5198 69.954C70.5198 67.644 68.9378 66.118 66.6978 66.118C64.4017 66.118 62.8057 67.672 62.8057 70.122C62.8057 72.558 64.4438 74.126 66.6978 74.126C68.6158 74.126 69.9038 72.992 70.3238 71.564ZM73.9104 67.378V63.64H71.9504V74H73.9104V72.894C74.3864 73.566 75.2544 74.126 76.4724 74.126C78.4604 74.126 80.0144 72.516 80.0144 70.094C80.0144 67.672 78.4604 66.118 76.4724 66.118C75.2964 66.118 74.3864 66.664 73.9104 67.378ZM78.0124 70.094C78.0124 71.564 77.0184 72.404 75.9544 72.404C74.9044 72.404 73.9104 71.592 73.9104 70.122C73.9104 68.652 74.9044 67.84 75.9544 67.84C77.0184 67.84 78.0124 68.624 78.0124 70.094ZM80.9347 70.122C80.9347 72.558 82.5307 74.126 84.7707 74.126C86.7027 74.126 88.0047 73.034 88.4247 71.382H86.3107C86.0727 72.082 85.5687 72.446 84.7567 72.446C83.6647 72.446 82.9367 71.634 82.9367 70.122C82.9367 68.61 83.6647 67.784 84.7567 67.784C85.5687 67.784 86.0867 68.204 86.3107 68.862H88.4247C88.0047 67.126 86.7027 66.118 84.7707 66.118C82.5307 66.118 80.9347 67.686 80.9347 70.122ZM89.3565 70.094C89.3565 72.516 90.9245 74.126 92.8845 74.126C94.1165 74.126 94.9985 73.538 95.4605 72.866V74H97.4345V66.244H95.4605V67.35C94.9985 66.706 94.1445 66.118 92.8985 66.118C90.9245 66.118 89.3565 67.672 89.3565 70.094ZM95.4605 70.122C95.4605 71.592 94.4805 72.404 93.4025 72.404C92.3525 72.404 91.3585 71.564 91.3585 70.094C91.3585 68.624 92.3525 67.84 93.4025 67.84C94.4805 67.84 95.4605 68.652 95.4605 70.122ZM110.199 74H112.159V69.45C112.159 67.308 110.843 66.132 108.981 66.132C107.847 66.132 106.825 66.734 106.321 67.616C105.789 66.65 104.795 66.132 103.591 66.132C102.625 66.132 101.799 66.538 101.309 67.182V66.244H99.3488V74H101.309V69.716C101.309 68.484 101.995 67.84 103.059 67.84C104.095 67.84 104.781 68.484 104.781 69.716V74H106.741V69.716C106.741 68.484 107.427 67.84 108.477 67.84C109.513 67.84 110.199 68.484 110.199 69.716V74Z" fill="white"/>
<path d="M68 49.0013C70.3734 49.0013 72.6935 48.2976 74.6668 46.979C76.6402 45.6604 78.1783 43.7863 79.0866 41.5935C79.9948 39.4008 80.2324 36.988 79.7694 34.6603C79.3064 32.3325 78.1635 30.1943 76.4853 28.5161C74.8071 26.8378 72.6689 25.6949 70.3411 25.2319C68.0133 24.7689 65.6005 25.0065 63.4078 25.9148C61.2151 26.823 59.3409 28.3611 58.0224 30.3345C56.7038 32.3079 56 34.628 56 37.0013C56.0035 40.1829 57.2689 43.2331 59.5186 45.4827C61.7683 47.7324 64.8185 48.9978 68 49.0013ZM68 27.0013C68.2637 27.0013 68.5215 27.0795 68.7408 27.2261C68.96 27.3726 69.1309 27.5808 69.2318 27.8244C69.3328 28.0681 69.3592 28.3362 69.3077 28.5948C69.2563 28.8534 69.1293 29.091 68.9428 29.2775C68.7563 29.464 68.5188 29.5909 68.2601 29.6424C68.0015 29.6938 67.7334 29.6674 67.4898 29.5665C67.2461 29.4656 67.0379 29.2947 66.8914 29.0754C66.7449 28.8562 66.6667 28.5984 66.6667 28.3347C66.6667 28.1596 66.7012 27.9862 66.7682 27.8244C66.8352 27.6627 66.9334 27.5157 67.0572 27.3919C67.181 27.2681 67.328 27.1698 67.4898 27.1028C67.6515 27.0358 67.8249 27.0013 68 27.0013ZM68 31.668C69.0548 31.668 70.086 31.9808 70.963 32.5668C71.8401 33.1529 72.5237 33.9858 72.9274 34.9604C73.331 35.9349 73.4366 37.0073 73.2309 38.0418C73.0251 39.0764 72.5171 40.0267 71.7712 40.7726C71.0254 41.5185 70.075 42.0264 69.0405 42.2322C68.0059 42.438 66.9336 42.3324 65.959 41.9287C64.9845 41.525 64.1515 40.8415 63.5655 39.9644C62.9795 39.0873 62.6667 38.0562 62.6667 37.0013C62.6667 35.5869 63.2286 34.2303 64.2288 33.2301C65.229 32.2299 66.5855 31.668 68 31.668Z" fill="white"/>
<path d="M76.7867 48.956C76.7525 48.8605 76.697 48.7741 76.6244 48.7033C76.5518 48.6325 76.4641 48.5792 76.3678 48.5474C76.2715 48.5157 76.1692 48.5063 76.0687 48.52C75.9683 48.5338 75.8723 48.5702 75.788 48.6266C73.475 50.1468 70.7678 50.9568 68 50.9568C65.2322 50.9568 62.525 50.1468 60.212 48.6266C60.1281 48.5694 60.032 48.5325 59.9313 48.5189C59.8306 48.5052 59.7282 48.5152 59.632 48.548C59.5358 48.5797 59.4481 48.6329 59.3756 48.7036C59.303 48.7743 59.2475 48.8606 59.2133 48.956L57.372 54.1106C57.3361 54.2113 57.3249 54.319 57.3394 54.4249C57.3538 54.5307 57.3935 54.6315 57.4551 54.7188C57.5166 54.8061 57.5983 54.8773 57.6931 54.9265C57.7879 54.9757 57.8932 55.0013 58 55.0013H78C78.1068 55.0013 78.2121 54.9757 78.3069 54.9265C78.4018 54.8773 78.4834 54.8061 78.545 54.7188C78.6065 54.6315 78.6462 54.5307 78.6606 54.4249C78.6751 54.319 78.6639 54.2113 78.628 54.1106L76.7867 48.956Z" fill="white"/>
<path d="M126.718 18.35L124.88 16.872C124.737 16.7568 124.626 16.6075 124.556 16.4378C124.486 16.268 124.46 16.0834 124.48 15.901L124.735 13.556C124.769 13.2446 124.733 12.9295 124.63 12.6339C124.526 12.3383 124.357 12.0698 124.136 11.8482C123.914 11.6267 123.646 11.4577 123.35 11.3538C123.055 11.2499 122.739 11.2138 122.428 11.248L120.08 11.5C119.898 11.5202 119.713 11.4942 119.543 11.4243C119.374 11.3544 119.224 11.2429 119.109 11.1L117.631 9.26302C117.429 9.02906 117.178 8.84139 116.897 8.71277C116.615 8.58415 116.309 8.51758 116 8.51758C115.691 8.51758 115.385 8.58415 115.103 8.71277C114.822 8.84139 114.572 9.02906 114.369 9.26302L112.891 11.1C112.776 11.2434 112.627 11.3552 112.457 11.4252C112.287 11.4951 112.103 11.5209 111.92 11.5L109.575 11.248C109.264 11.2136 108.949 11.2497 108.653 11.3534C108.357 11.4572 108.089 11.626 107.867 11.8475C107.646 12.069 107.477 12.3374 107.373 12.633C107.269 12.9285 107.233 13.2436 107.267 13.555L107.522 15.9C107.543 16.0825 107.517 16.2672 107.447 16.437C107.377 16.6068 107.265 16.7561 107.122 16.871L105.282 18.35C105.038 18.5461 104.841 18.7944 104.706 19.0766C104.57 19.3589 104.5 19.668 104.5 19.981C104.5 20.2941 104.57 20.6031 104.706 20.8854C104.841 21.1677 105.038 21.416 105.282 21.612L107.12 23.09C107.263 23.205 107.375 23.3543 107.445 23.5241C107.515 23.6938 107.541 23.8786 107.52 24.061L107.265 26.406C107.231 26.7174 107.267 27.0325 107.37 27.3281C107.474 27.6237 107.643 27.8922 107.865 28.1138C108.086 28.3354 108.354 28.5043 108.65 28.6082C108.946 28.7121 109.261 28.7483 109.572 28.714L111.918 28.459C112.1 28.4387 112.285 28.4647 112.455 28.5346C112.625 28.6045 112.774 28.7161 112.889 28.859L114.369 30.7C114.565 30.9441 114.813 31.141 115.096 31.2764C115.378 31.4117 115.687 31.4819 116 31.4819C116.313 31.4819 116.622 31.4117 116.904 31.2764C117.187 31.141 117.435 30.9441 117.631 30.7L119.109 28.862C119.224 28.7192 119.374 28.6077 119.543 28.5378C119.713 28.4679 119.898 28.4418 120.08 28.462L122.425 28.717C122.736 28.7514 123.052 28.7154 123.347 28.6116C123.643 28.5079 123.911 28.339 124.133 28.1175C124.354 27.8961 124.523 27.6276 124.627 27.3321C124.731 27.0365 124.767 26.7214 124.733 26.41L124.478 24.064C124.457 23.8816 124.483 23.6968 124.553 23.527C124.623 23.3571 124.735 23.2078 124.878 23.093L126.716 21.615C126.96 21.419 127.157 21.1707 127.292 20.8884C127.428 20.6061 127.498 20.2971 127.498 19.984C127.498 19.671 127.428 19.3619 127.292 19.0796C127.157 18.7974 126.96 18.5491 126.716 18.353L126.718 18.35ZM116.4 23.048C116.246 23.2481 116.052 23.4134 115.83 23.5329C115.608 23.6524 115.363 23.7235 115.111 23.7415C114.86 23.7594 114.607 23.7238 114.37 23.6371C114.133 23.5503 113.918 23.4143 113.737 23.238L111.293 20.8C111.198 20.7078 111.121 20.5974 111.069 20.4754C111.017 20.3534 110.989 20.2222 110.988 20.0894C110.987 19.9566 111.012 19.825 111.062 19.7021C111.113 19.5792 111.187 19.4675 111.281 19.3736C111.375 19.2797 111.486 19.2055 111.609 19.1552C111.732 19.1049 111.864 19.0796 111.996 19.0808C112.129 19.0819 112.26 19.1095 112.382 19.1619C112.504 19.2143 112.615 19.2905 112.707 19.386L114.958 21.637L118.867 16.426C119.026 16.2138 119.263 16.0736 119.526 16.0361C119.656 16.0175 119.788 16.0247 119.915 16.0573C120.042 16.0899 120.162 16.1472 120.267 16.226C120.372 16.3048 120.461 16.4035 120.528 16.5165C120.594 16.6295 120.638 16.7546 120.657 16.8846C120.676 17.0146 120.668 17.147 120.636 17.2742C120.603 17.4014 120.546 17.521 120.467 17.626L116.4 23.048Z" fill="white"/>
</svg>
