<svg width="136" height="105" viewBox="0 0 136 105" fill="none" xmlns="http://www.w3.org/2000/svg">
<rect x="0.5" y="0.5" width="135" height="104" rx="2.5" stroke="#E0E1DD"/>
<path d="M32.966 75H34.926V65.228H32.966V75ZM42.2945 75H44.2545V70.45C44.2545 68.308 42.9665 67.132 41.1605 67.132C40.1665 67.132 39.3265 67.552 38.8225 68.21V67.244H36.8625V75H38.8225V70.716C38.8225 69.47 39.5085 68.798 40.5725 68.798C41.6085 68.798 42.2945 69.47 42.2945 70.716V75ZM45.6143 71.094C45.6143 73.516 47.1823 75.126 49.1563 75.126C50.3743 75.126 51.2423 74.566 51.7043 73.852V75H53.6923V64.64H51.7043V68.322C51.1723 67.594 50.1923 67.118 49.1703 67.118C47.1823 67.118 45.6143 68.672 45.6143 71.094ZM51.7183 71.122C51.7183 72.592 50.7383 73.404 49.6603 73.404C48.6103 73.404 47.6163 72.564 47.6163 71.094C47.6163 69.624 48.6103 68.84 49.6603 68.84C50.7383 68.84 51.7183 69.652 51.7183 71.122ZM55.6066 75H57.5666V67.244H55.6066V75ZM56.6006 66.32C57.2866 66.32 57.8046 65.816 57.8046 65.172C57.8046 64.528 57.2866 64.024 56.6006 64.024C55.9006 64.024 55.3966 64.528 55.3966 65.172C55.3966 65.816 55.9006 66.32 56.6006 66.32ZM58.6771 67.244L61.5331 75H63.9131L66.7831 67.244H64.6971L62.7371 73.194L60.7771 67.244H58.6771ZM67.884 75H69.844V67.244H67.884V75ZM68.878 66.32C69.564 66.32 70.082 65.816 70.082 65.172C70.082 64.528 69.564 64.024 68.878 64.024C68.178 64.024 67.674 64.528 67.674 65.172C67.674 65.816 68.178 66.32 68.878 66.32ZM71.2765 71.094C71.2765 73.516 72.8445 75.126 74.8185 75.126C76.0365 75.126 76.9045 74.566 77.3665 73.852V75H79.3545V64.64H77.3665V68.322C76.8345 67.594 75.8545 67.118 74.8325 67.118C72.8445 67.118 71.2765 68.672 71.2765 71.094ZM77.3805 71.122C77.3805 72.592 76.4005 73.404 75.3225 73.404C74.2725 73.404 73.2785 72.564 73.2785 71.094C73.2785 69.624 74.2725 68.84 75.3225 68.84C76.4005 68.84 77.3805 69.652 77.3805 71.122ZM88.5907 67.244H86.6167V71.514C86.6167 72.76 85.9447 73.432 84.8807 73.432C83.8447 73.432 83.1587 72.76 83.1587 71.514V67.244H81.1987V71.794C81.1987 73.922 82.5007 75.098 84.3067 75.098C85.2727 75.098 86.1267 74.678 86.6167 74.02V75H88.5907V67.244ZM93.8566 68.728C94.8646 68.728 95.6766 69.372 95.7046 70.394H92.0226C92.1766 69.33 92.9186 68.728 93.8566 68.728ZM97.5386 72.564H95.4246C95.1726 73.082 94.7106 73.502 93.8706 73.502C92.8906 73.502 92.1066 72.858 92.0086 71.71H97.6786C97.7206 71.458 97.7346 71.206 97.7346 70.954C97.7346 68.644 96.1526 67.118 93.9126 67.118C91.6166 67.118 90.0206 68.672 90.0206 71.122C90.0206 73.558 91.6586 75.126 93.9126 75.126C95.8306 75.126 97.1186 73.992 97.5386 72.564ZM99.1652 75H101.125V64.64H99.1652V75Z" fill="black"/>
<path d="M68.0001 35.3333C66.0558 35.3354 64.1918 36.1087 62.817 37.4835C61.4422 38.8583 60.6689 40.7224 60.6667 42.6666V47.3333C60.6667 47.5101 60.737 47.6797 60.862 47.8047C60.987 47.9297 61.1566 48 61.3334 48H63.7467C63.8303 48 63.9108 48.0314 63.9722 48.088C64.0337 48.1445 64.0717 48.2221 64.0787 48.3053L64.6667 55.3893C64.6808 55.5562 64.7572 55.7118 64.8808 55.8249C65.0043 55.9381 65.1659 56.0006 65.3334 56H70.6667C70.8343 56.0006 70.9959 55.9381 71.1194 55.8249C71.2429 55.7118 71.3193 55.5562 71.3334 55.3893L71.9241 48.3053C71.9311 48.2225 71.9687 48.1453 72.0296 48.0889C72.0905 48.0324 72.1703 48.0007 72.2534 48H74.6667C74.8436 48 75.0131 47.9297 75.1382 47.8047C75.2632 47.6797 75.3334 47.5101 75.3334 47.3333V42.6666C75.3313 40.7224 74.558 38.8583 73.1832 37.4835C71.8084 36.1087 69.9444 35.3354 68.0001 35.3333Z" fill="#F8B816"/>
<path d="M67.9999 33.3333C70.5772 33.3333 72.6666 31.244 72.6666 28.6667C72.6666 26.0893 70.5772 24 67.9999 24C65.4226 24 63.3333 26.0893 63.3333 28.6667C63.3333 31.244 65.4226 33.3333 67.9999 33.3333Z" fill="#F8B816"/>
<path d="M68.0001 35.3333C66.0558 35.3354 64.1918 36.1087 62.817 37.4835C61.4422 38.8583 60.6689 40.7224 60.6667 42.6666V47.3333C60.6667 47.5101 60.737 47.6797 60.862 47.8047C60.987 47.9297 61.1566 48 61.3334 48H63.7467C63.8303 48 63.9108 48.0314 63.9722 48.088C64.0337 48.1445 64.0717 48.2221 64.0787 48.3053L64.6667 55.3893C64.6808 55.5562 64.7572 55.7118 64.8808 55.8249C65.0043 55.9381 65.1659 56.0006 65.3334 56H70.6667C70.8343 56.0006 70.9959 55.9381 71.1194 55.8249C71.2429 55.7118 71.3193 55.5562 71.3334 55.3893L71.9241 48.3053C71.9311 48.2225 71.9687 48.1453 72.0296 48.0889C72.0905 48.0324 72.1703 48.0007 72.2534 48H74.6667C74.8436 48 75.0131 47.9297 75.1382 47.8047C75.2632 47.6797 75.3334 47.5101 75.3334 47.3333V42.6666C75.3313 40.7224 74.558 38.8583 73.1832 37.4835C71.8084 36.1087 69.9444 35.3354 68.0001 35.3333Z" fill="#F8B816"/>
<path d="M67.9999 33.3333C70.5772 33.3333 72.6666 31.244 72.6666 28.6667C72.6666 26.0893 70.5772 24 67.9999 24C65.4226 24 63.3333 26.0893 63.3333 28.6667C63.3333 31.244 65.4226 33.3333 67.9999 33.3333Z" fill="#F8B816"/>
<defs>
<clipPath id="clip0">
<rect width="32" height="32" fill="white" transform="translate(52 24)"/>
</clipPath>
</defs>
</svg>
